<svg width="135" height="134" viewBox="0 0 135 134" fill="none" xmlns="http://www.w3.org/2000/svg">
<g clip-path="url(#clip0_553_461)">
<path d="M55.378 105.748C55.0318 105.19 55.0318 105.129 55.6125 103.822C56.3109 102.241 56.6382 100.521 56.5695 98.7931C56.5008 97.0657 56.0379 95.3769 55.2161 93.8559C53.6045 90.8426 53.205 87.3274 54.0994 84.0293C54.9202 81.0869 56.0536 79.9088 57.0809 80.925C57.5834 81.4833 57.5723 81.5894 56.5673 84.3419C56.1354 85.7404 55.9856 87.2108 56.1265 88.6676C56.2674 90.1244 56.6962 91.5388 57.388 92.8286C58.3615 94.6939 58.8971 96.7564 58.9542 98.8597C59.0113 100.963 58.5883 103.051 57.7174 104.967C57.1591 106 57.0307 106.167 56.4221 106.234C56.2152 106.291 55.9947 106.272 55.8009 106.179C55.6071 106.087 55.453 105.928 55.3668 105.732L55.378 105.748ZM66.6563 105.972C66.1594 105.469 66.2599 104.956 66.9243 103.331C67.354 102.239 67.5774 101.076 67.5832 99.9027C67.7467 97.7658 67.2725 95.6284 66.2208 93.761C65.2131 91.845 64.7224 89.6992 64.7971 87.5356C64.7971 84.4983 65.9863 80.925 67.0695 80.6458C67.2254 80.5837 67.3938 80.5594 67.5609 80.575C67.728 80.5906 67.889 80.6456 68.0307 80.7355C68.1724 80.8255 68.2907 80.9477 68.376 81.0923C68.4613 81.2368 68.511 81.3995 68.5212 81.567C68.4142 82.2646 68.2132 82.9445 67.9238 83.5882C67.394 84.8695 67.1906 86.2624 67.3319 87.6417C67.138 89.0988 67.3911 90.5805 68.0578 91.8906C69.3316 93.9213 70.0034 96.2717 69.9952 98.6688C70.236 100.875 69.8142 103.102 68.7836 105.067C68.2923 105.994 68.0857 106.184 67.5162 106.257C67.3528 106.288 67.1843 106.281 67.0242 106.235C66.8642 106.19 66.7171 106.107 66.5949 105.994L66.6563 105.972ZM77.7393 105.972C77.3596 105.575 77.4768 104.972 78.2976 102.806C78.6997 101.727 78.8893 100.58 78.8559 99.4281C78.8984 97.4805 78.4307 95.5557 77.4992 93.8448C77.0238 92.8247 76.6263 91.7702 76.3099 90.6902C75.8716 88.6457 75.8716 86.5316 76.3099 84.4871C76.5995 83.1227 77.17 81.8336 77.9849 80.7016C78.2488 80.5483 78.5621 80.504 78.8582 80.578C79.1543 80.652 79.4099 80.8386 79.5706 81.098C79.9112 81.6229 79.9 81.7178 79.2132 83.4319C78.5892 84.9096 78.303 86.5081 78.3754 88.1106C78.4479 89.7131 78.8772 91.2792 79.632 92.6946C80.735 94.7165 81.2912 96.9913 81.2456 99.2941C81.3287 100.68 81.139 102.068 80.6873 103.381C79.9893 105.508 79.4366 106.284 78.6047 106.284C78.4416 106.298 78.2776 106.275 78.1242 106.218C77.9707 106.162 77.8317 106.072 77.7169 105.955L77.7393 105.972ZM12.3082 73.7615C12.0497 73.5046 11.858 73.1883 11.7498 72.8403C11.6568 66.1626 11.6382 59.485 11.694 52.8073L11.7498 33.2656L12.4757 31.814C13.2627 30.1373 14.6609 28.825 16.384 28.1457C17.5733 27.7102 17.8357 27.7102 67.5162 27.7102C117.197 27.7102 117.47 27.7102 118.66 28.1457C120.38 28.821 121.777 30.1269 122.568 31.7972L123.277 33.2489L123.333 52.8073C123.333 63.5496 123.333 72.5835 123.266 72.8403C123.158 73.1883 122.966 73.5046 122.707 73.7615C122.272 74.197 121.747 74.197 67.505 74.197C13.2629 74.197 12.7437 74.1189 12.3082 73.6834V73.7615ZM17.1378 65.3865C17.2048 60.3615 17.2438 60.0545 17.7296 59.055C18.1013 58.3489 18.6471 57.7494 19.3153 57.313L20.3426 56.6151H114.818L115.834 57.313C116.482 57.7614 117.008 58.3639 117.364 59.0662C117.856 60.0545 117.895 60.3615 117.923 65.4033L118.001 70.6795H119.72V52.4835C119.72 32.819 119.72 33.4164 118.57 32.3444L118.045 31.8419L117.911 33.3605C117.926 34.3041 117.662 35.231 117.152 36.0254C116.643 36.8199 115.911 37.4465 115.047 37.8272C114.332 38.1287 109.201 38.1678 67.5441 38.1678C25.8868 38.1678 20.7781 38.2571 20.0411 37.9668C19.1758 37.5925 18.4434 36.9661 17.9394 36.1693C17.4355 35.3725 17.1833 34.4423 17.2159 33.5001L17.0875 31.9982L16.5292 32.5007C15.3399 33.556 15.3678 32.9865 15.3678 52.6007V70.808H17.0819L17.1378 65.3865ZM61.3913 53.8179C61.2142 53.7271 61.0632 53.5928 60.9524 53.4275C60.8416 53.2623 60.7747 53.0715 60.7579 52.8733C60.7412 52.675 60.7751 52.4758 60.8566 52.2943C60.9381 52.1128 61.0645 51.955 61.2238 51.8358C61.6425 51.5343 62.5526 51.4785 67.505 51.4785C74.0319 51.4785 74.3613 51.5455 74.2329 52.8687C74.1157 54.0133 73.7025 54.0915 67.5329 54.0915C65.4914 54.2155 63.4425 54.1276 61.4192 53.829L61.3913 53.8179ZM103.618 53.3545C103.523 53.2128 103.462 53.0514 103.439 52.8825C103.416 52.7136 103.433 52.5418 103.487 52.3801C103.54 52.2184 103.631 52.0712 103.75 51.9498C103.87 51.8283 104.016 51.7359 104.176 51.6795C105.17 51.1546 106.237 52.7961 105.421 53.6057C105.285 53.711 105.129 53.7878 104.963 53.8317C104.797 53.8756 104.623 53.8856 104.453 53.8611C104.283 53.8366 104.119 53.7782 103.972 53.6892C103.825 53.6003 103.697 53.4826 103.596 53.3433L103.618 53.3545ZM109.302 53.3935C109.133 53.1807 109.048 52.9138 109.062 52.6428C109.076 52.3717 109.188 52.115 109.378 51.9207C109.567 51.7264 109.821 51.6078 110.092 51.587C110.363 51.5662 110.631 51.6447 110.848 51.8079C111.004 51.8929 111.138 52.0129 111.24 52.1584C111.342 52.3039 111.408 52.471 111.435 52.6466C111.461 52.8221 111.446 53.0014 111.392 53.1704C111.338 53.3393 111.245 53.4934 111.121 53.6205C110.997 53.7476 110.845 53.8442 110.677 53.9029C110.51 53.9616 110.331 53.9807 110.155 53.9587C109.979 53.9367 109.81 53.8743 109.662 53.7762C109.514 53.6782 109.391 53.5472 109.302 53.3935ZM115.293 69.7025V68.7254H19.7228V70.6795H115.293V69.7025ZM115.293 65.1241V63.9237H19.7228V66.3245H115.293V65.1241ZM115.293 60.8082C115.238 60.4493 115.096 60.1092 114.88 59.8173C114.664 59.5254 114.38 59.2906 114.053 59.1332C113.713 58.9657 101.005 58.8875 67.505 58.8875C34.005 58.8875 21.3197 58.9657 20.9623 59.1332C20.6406 59.298 20.3613 59.5349 20.1463 59.8255C19.9313 60.116 19.7864 60.4524 19.7228 60.8082V61.2995H115.293V60.8082ZM114.634 35.1249C115.226 34.533 115.293 34.3767 115.293 32.8413V31.1663H19.7117V32.8413C19.7117 34.3711 19.7508 34.5163 20.3426 35.1249L21.0014 35.7725H113.947L114.634 35.1249Z" fill="#303E42"/>
</g>
<defs>
<clipPath id="clip0_553_461">
<rect width="134" height="134" fill="white" transform="translate(0.5)"/>
</clipPath>
</defs>
</svg>
