<svg width="275" height="275" viewBox="0 0 275 275" fill="none" xmlns="http://www.w3.org/2000/svg">
<g filter="url(#filter0_d_481_683)">
<rect x="25" y="25" width="223" height="223" rx="20" fill="white"/>
</g>
<path d="M88.5 58.2863L94.427 75.3342L112.473 75.7038L98.0897 86.6083L103.316 103.885L88.5 93.5745L73.6857 103.885L78.9124 86.6083L64.5288 75.7038L82.5751 75.3363L88.5 58.2863ZM88.5 70.7241L85.4988 79.3604L76.3562 79.5462L83.6429 85.0709L80.9949 93.8236L88.5 88.601L96.0052 93.8236L93.3592 85.0709L100.644 79.5462L91.5033 79.3624L88.5 70.7241Z" fill="black"/>
<path d="M136.5 58.2863L142.427 75.3342L160.473 75.7038L146.09 86.6083L151.316 103.885L136.5 93.5745L121.686 103.885L126.912 86.6083L112.529 75.7038L130.575 75.3363L136.5 58.2863ZM136.5 70.7241L133.499 79.3604L124.356 79.5462L131.643 85.0709L128.995 93.8236L136.5 88.601L144.005 93.8236L141.359 85.0709L148.644 79.5462L139.503 79.3624L136.5 70.7241Z" fill="black"/>
<path d="M113.5 105.286L119.427 122.334L137.473 122.704L123.09 133.608L128.316 150.885L113.5 140.574L98.6857 150.885L103.912 133.608L89.5288 122.704L107.575 122.336L113.5 105.286ZM113.5 117.724L110.499 126.36L101.356 126.546L108.643 132.071L105.995 140.824L113.5 135.601L121.005 140.824L118.359 132.071L125.644 126.546L116.503 126.362L113.5 117.724Z" fill="black"/>
<path d="M160.5 105.286L166.427 122.334L184.473 122.704L170.09 133.608L175.316 150.885L160.5 140.574L145.686 150.885L150.912 133.608L136.529 122.704L154.575 122.336L160.5 105.286ZM160.5 117.724L157.499 126.36L148.356 126.546L155.643 132.071L152.995 140.824L160.5 135.601L168.005 140.824L165.359 132.071L172.644 126.546L163.503 126.362L160.5 117.724Z" fill="black"/>
<path d="M184.5 58.2863L190.427 75.3342L208.473 75.7038L194.09 86.6083L199.316 103.885L184.5 93.5745L169.686 103.885L174.912 86.6083L160.529 75.7038L178.575 75.3363L184.5 58.2863ZM184.5 70.7241L181.499 79.3604L172.356 79.5462L179.643 85.0709L176.995 93.8236L184.5 88.601L192.005 93.8236L189.359 85.0709L196.644 79.5462L187.503 79.3624L184.5 70.7241Z" fill="black"/>
<path d="M99.476 184.56H101.396V186H99.476V184.56ZM93.092 188.4H96.02C96.8413 188.4 97.4067 188.341 97.716 188.224C98.036 188.117 98.196 187.893 98.196 187.552V178.48H99.476V186.576C99.476 187.237 99.4227 187.781 99.316 188.208C99.2093 188.635 99.0067 188.965 98.708 189.2C98.4093 189.435 97.988 189.6 97.444 189.696C96.9 189.792 96.1853 189.84 95.3 189.84C94.5213 189.84 93.8867 189.787 93.396 189.68C92.916 189.573 92.5427 189.387 92.276 189.12C92.02 188.864 91.844 188.501 91.748 188.032C91.6627 187.573 91.62 186.981 91.62 186.256C91.62 185.808 91.636 185.344 91.668 184.864C91.7107 184.373 91.7693 183.904 91.844 183.456C91.9187 183.008 92.004 182.613 92.1 182.272L93.284 182.48C93.156 183.109 93.06 183.723 92.996 184.32C92.932 184.907 92.9 185.461 92.9 185.984C92.9 186.485 92.9107 186.923 92.932 187.296C92.964 187.68 93.0173 188.048 93.092 188.4ZM95.62 176.56C95.5133 176.56 95.3907 176.512 95.252 176.416C95.1133 176.32 94.9907 176.203 94.884 176.064C94.788 175.915 94.74 175.787 94.74 175.68C94.74 175.563 94.788 175.44 94.884 175.312C94.9907 175.173 95.1133 175.056 95.252 174.96C95.3907 174.853 95.5133 174.8 95.62 174.8C95.7373 174.8 95.86 174.853 95.988 174.96C96.1267 175.056 96.244 175.173 96.34 175.312C96.4467 175.44 96.5 175.563 96.5 175.68C96.5 175.787 96.4467 175.909 96.34 176.048C96.244 176.187 96.1267 176.309 95.988 176.416C95.8493 176.512 95.7267 176.56 95.62 176.56ZM104.598 184.56H106.518V186H100.758V184.56H103.318V178.48H104.598V184.56ZM102.726 189.04C102.619 189.04 102.497 188.992 102.358 188.896C102.219 188.8 102.097 188.677 101.99 188.528C101.894 188.389 101.846 188.267 101.846 188.16C101.846 188.043 101.894 187.915 101.99 187.776C102.097 187.648 102.219 187.531 102.358 187.424C102.497 187.328 102.619 187.28 102.726 187.28C102.843 187.28 102.966 187.328 103.094 187.424C103.233 187.531 103.35 187.648 103.446 187.776C103.553 187.915 103.606 188.043 103.606 188.16C103.606 188.267 103.553 188.389 103.446 188.528C103.35 188.667 103.233 188.784 103.094 188.88C102.955 188.987 102.833 189.04 102.726 189.04ZM105.03 189.04C104.923 189.04 104.801 188.992 104.662 188.896C104.523 188.8 104.401 188.677 104.294 188.528C104.198 188.389 104.15 188.267 104.15 188.16C104.15 188.043 104.198 187.915 104.294 187.776C104.401 187.648 104.523 187.531 104.662 187.424C104.801 187.328 104.923 187.28 105.03 187.28C105.147 187.28 105.27 187.328 105.398 187.424C105.537 187.531 105.654 187.648 105.75 187.776C105.857 187.915 105.91 188.043 105.91 188.16C105.91 188.267 105.857 188.389 105.75 188.528C105.654 188.667 105.537 188.784 105.398 188.88C105.259 188.987 105.137 189.04 105.03 189.04ZM109.723 184.56H111.643V186H105.883V184.56H108.443V178.48H109.723V184.56ZM107.851 189.04C107.744 189.04 107.622 188.992 107.483 188.896C107.344 188.8 107.222 188.677 107.115 188.528C107.019 188.389 106.971 188.267 106.971 188.16C106.971 188.043 107.019 187.915 107.115 187.776C107.222 187.648 107.344 187.531 107.483 187.424C107.622 187.328 107.744 187.28 107.851 187.28C107.968 187.28 108.091 187.328 108.219 187.424C108.358 187.531 108.475 187.648 108.571 187.776C108.678 187.915 108.731 188.043 108.731 188.16C108.731 188.267 108.678 188.389 108.571 188.528C108.475 188.667 108.358 188.784 108.219 188.88C108.08 188.987 107.958 189.04 107.851 189.04ZM110.155 189.04C110.048 189.04 109.926 188.992 109.787 188.896C109.648 188.8 109.526 188.677 109.419 188.528C109.323 188.389 109.275 188.267 109.275 188.16C109.275 188.043 109.323 187.915 109.419 187.776C109.526 187.648 109.648 187.531 109.787 187.424C109.926 187.328 110.048 187.28 110.155 187.28C110.272 187.28 110.395 187.328 110.523 187.424C110.662 187.531 110.779 187.648 110.875 187.776C110.982 187.915 111.035 188.043 111.035 188.16C111.035 188.267 110.982 188.389 110.875 188.528C110.779 188.667 110.662 188.784 110.523 188.88C110.384 188.987 110.262 189.04 110.155 189.04ZM111.008 184.56H113.568C113.515 184.261 113.472 183.904 113.44 183.488C113.419 183.072 113.408 182.523 113.408 181.84C113.408 181.147 113.456 180.576 113.552 180.128C113.648 179.669 113.819 179.312 114.064 179.056C114.309 178.789 114.651 178.603 115.088 178.496C115.525 178.379 116.085 178.32 116.768 178.32C117.355 178.32 117.899 178.357 118.4 178.432C118.901 178.507 119.472 178.635 120.112 178.816V186H111.008V184.56ZM118.096 184.56C118.373 184.56 118.565 184.501 118.672 184.384C118.779 184.267 118.832 184.059 118.832 183.76V179.792H115.504C115.216 179.792 115.019 179.851 114.912 179.968C114.816 180.085 114.768 180.32 114.768 180.672V184.56H118.096ZM116.768 176.56C116.661 176.56 116.539 176.512 116.4 176.416C116.261 176.32 116.139 176.203 116.032 176.064C115.936 175.915 115.888 175.787 115.888 175.68C115.888 175.563 115.936 175.44 116.032 175.312C116.139 175.173 116.261 175.056 116.4 174.96C116.539 174.853 116.661 174.8 116.768 174.8C116.885 174.8 117.008 174.853 117.136 174.96C117.275 175.056 117.392 175.173 117.488 175.312C117.595 175.44 117.648 175.563 117.648 175.68C117.648 175.787 117.595 175.909 117.488 176.048C117.392 176.187 117.275 176.309 117.136 176.416C116.997 176.512 116.875 176.56 116.768 176.56ZM125.079 184.56H126.999V186H125.079V184.56ZM122.711 190.144L122.167 189.024C122.583 188.821 122.908 188.592 123.143 188.336C123.388 188.08 123.559 187.765 123.655 187.392C123.761 187.019 123.815 186.555 123.815 186V178.48H125.095V186C125.095 186.704 125.015 187.312 124.855 187.824C124.695 188.347 124.439 188.795 124.087 189.168C123.735 189.541 123.276 189.867 122.711 190.144ZM135.184 184.56H136.144V186H135.248C134.928 186 134.677 185.931 134.496 185.792C134.315 185.643 134.165 185.413 134.048 185.104L132.944 182.224C132.688 181.605 132.4 181.12 132.08 180.768C131.76 180.405 131.36 180.149 130.88 180C130.411 179.84 129.808 179.76 129.072 179.76C128.869 179.76 128.656 179.765 128.432 179.776C128.219 179.787 127.989 179.803 127.744 179.824L127.536 178.416C127.845 178.384 128.139 178.363 128.416 178.352C128.704 178.331 128.976 178.32 129.232 178.32C130.128 178.32 130.88 178.437 131.488 178.672C132.107 178.896 132.624 179.253 133.04 179.744C133.456 180.235 133.808 180.88 134.096 181.68L135.184 184.56ZM133.008 181.76L134.192 182.272C134 182.805 133.755 183.301 133.456 183.76C133.168 184.208 132.821 184.603 132.416 184.944C132.021 185.275 131.563 185.536 131.04 185.728C130.528 185.909 129.941 186 129.28 186H126.352V184.56H129.808C130.235 184.56 130.619 184.475 130.96 184.304C131.312 184.133 131.616 183.909 131.872 183.632C132.139 183.355 132.363 183.056 132.544 182.736C132.736 182.405 132.891 182.08 133.008 181.76ZM139.348 186H135.508V184.56H138.068V175.92H139.348V186ZM142.553 186V175.92H143.833V186H142.553ZM150.43 190.144L149.886 189.024C150.302 188.821 150.627 188.592 150.862 188.336C151.107 188.08 151.278 187.765 151.374 187.392C151.48 187.019 151.534 186.555 151.534 186V178.48H152.814V186C152.814 186.704 152.734 187.312 152.574 187.824C152.414 188.347 152.158 188.795 151.806 189.168C151.454 189.541 150.995 189.867 150.43 190.144ZM156.006 186V175.92H157.286V184.56H159.206V186H156.006ZM162.411 184.56H164.331V186H158.571V184.56H161.131V178.48H162.411V184.56ZM160.539 189.04C160.432 189.04 160.309 188.992 160.171 188.896C160.032 188.8 159.909 188.677 159.803 188.528C159.707 188.389 159.659 188.267 159.659 188.16C159.659 188.043 159.707 187.915 159.803 187.776C159.909 187.648 160.032 187.531 160.171 187.424C160.309 187.328 160.432 187.28 160.539 187.28C160.656 187.28 160.779 187.328 160.907 187.424C161.045 187.531 161.163 187.648 161.259 187.776C161.365 187.915 161.419 188.043 161.419 188.16C161.419 188.267 161.365 188.389 161.259 188.528C161.163 188.667 161.045 188.784 160.907 188.88C160.768 188.987 160.645 189.04 160.539 189.04ZM162.843 189.04C162.736 189.04 162.613 188.992 162.475 188.896C162.336 188.8 162.213 188.677 162.107 188.528C162.011 188.389 161.963 188.267 161.963 188.16C161.963 188.043 162.011 187.915 162.107 187.776C162.213 187.648 162.336 187.531 162.475 187.424C162.613 187.328 162.736 187.28 162.843 187.28C162.96 187.28 163.083 187.328 163.211 187.424C163.349 187.531 163.467 187.648 163.563 187.776C163.669 187.915 163.723 188.043 163.723 188.16C163.723 188.267 163.669 188.389 163.563 188.528C163.467 188.667 163.349 188.784 163.211 188.88C163.072 188.987 162.949 189.04 162.843 189.04ZM167.536 184.56H169.456V186H163.696V184.56H166.256V178.48H167.536V184.56ZM165.744 176.56C165.637 176.56 165.514 176.512 165.376 176.416C165.237 176.32 165.114 176.203 165.008 176.064C164.912 175.915 164.864 175.787 164.864 175.68C164.864 175.563 164.912 175.44 165.008 175.312C165.114 175.173 165.237 175.056 165.376 174.96C165.514 174.853 165.637 174.8 165.744 174.8C165.861 174.8 165.984 174.853 166.112 174.96C166.25 175.056 166.368 175.173 166.464 175.312C166.57 175.44 166.624 175.563 166.624 175.68C166.624 175.787 166.57 175.909 166.464 176.048C166.368 176.187 166.25 176.309 166.112 176.416C165.973 176.512 165.85 176.56 165.744 176.56ZM168.048 176.56C167.941 176.56 167.818 176.512 167.68 176.416C167.541 176.32 167.418 176.203 167.312 176.064C167.216 175.915 167.168 175.787 167.168 175.68C167.168 175.563 167.216 175.44 167.312 175.312C167.418 175.173 167.541 175.056 167.68 174.96C167.818 174.853 167.941 174.8 168.048 174.8C168.165 174.8 168.288 174.853 168.416 174.96C168.554 175.056 168.672 175.173 168.768 175.312C168.874 175.44 168.928 175.563 168.928 175.68C168.928 175.787 168.874 175.909 168.768 176.048C168.672 176.187 168.554 176.309 168.416 176.416C168.277 176.512 168.154 176.56 168.048 176.56ZM176.549 181.68H178.021V183.12H176.613C176.293 183.12 176.042 183.051 175.861 182.912C175.679 182.763 175.53 182.533 175.413 182.224C175.189 181.595 174.917 181.104 174.597 180.752C174.277 180.389 173.871 180.133 173.381 179.984C172.89 179.835 172.277 179.76 171.541 179.76C171.338 179.76 171.125 179.765 170.901 179.776C170.687 179.787 170.458 179.803 170.213 179.824L170.005 178.416C170.314 178.384 170.607 178.363 170.885 178.352C171.173 178.331 171.445 178.32 171.701 178.32C172.597 178.32 173.349 178.437 173.957 178.672C174.565 178.896 175.077 179.253 175.493 179.744C175.909 180.235 176.261 180.88 176.549 181.68ZM175.477 181.76L176.661 182.272C176.458 182.805 176.202 183.301 175.893 183.76C175.583 184.208 175.215 184.603 174.789 184.944C174.362 185.275 173.871 185.536 173.317 185.728C172.762 185.909 172.133 186 171.429 186H168.821V184.56H171.797C172.287 184.56 172.73 184.475 173.125 184.304C173.519 184.133 173.866 183.909 174.165 183.632C174.474 183.355 174.735 183.056 174.949 182.736C175.173 182.405 175.349 182.08 175.477 181.76ZM172.965 176.56C172.858 176.56 172.735 176.512 172.597 176.416C172.458 176.32 172.335 176.203 172.229 176.064C172.133 175.915 172.085 175.787 172.085 175.68C172.085 175.563 172.133 175.44 172.229 175.312C172.335 175.173 172.458 175.056 172.597 174.96C172.735 174.853 172.858 174.8 172.965 174.8C173.082 174.8 173.205 174.853 173.333 174.96C173.471 175.056 173.589 175.173 173.685 175.312C173.791 175.44 173.845 175.563 173.845 175.68C173.845 175.787 173.791 175.909 173.685 176.048C173.589 176.187 173.471 176.309 173.333 176.416C173.194 176.512 173.071 176.56 172.965 176.56ZM179.616 186V175.92H180.896V186H179.616ZM86.7038 215C86.1598 215 85.7224 214.893 85.3918 214.68C85.0611 214.467 84.8211 214.12 84.6718 213.64C84.5331 213.149 84.4638 212.504 84.4638 211.704C84.4638 211.224 84.5011 210.723 84.5758 210.2C84.6611 209.667 84.7731 209.219 84.9118 208.856L86.1278 209.064C85.9998 209.491 85.9038 209.907 85.8398 210.312C85.7758 210.717 85.7438 211.096 85.7438 211.448C85.7438 211.885 85.7598 212.275 85.7918 212.616C85.8344 212.947 85.9038 213.261 85.9998 213.56H94.6078V207.48H95.8878V215H86.7038ZM89.2158 207.16C89.1091 207.16 88.9864 207.112 88.8478 207.016C88.7091 206.92 88.5864 206.803 88.4798 206.664C88.3838 206.515 88.3358 206.387 88.3358 206.28C88.3358 206.163 88.3838 206.04 88.4798 205.912C88.5864 205.773 88.7091 205.656 88.8478 205.56C88.9864 205.453 89.1091 205.4 89.2158 205.4C89.3331 205.4 89.4558 205.453 89.5838 205.56C89.7224 205.656 89.8398 205.773 89.9358 205.912C90.0424 206.04 90.0958 206.163 90.0958 206.28C90.0958 206.387 90.0424 206.509 89.9358 206.648C89.8398 206.787 89.7224 206.909 89.5838 207.016C89.4451 207.112 89.3224 207.16 89.2158 207.16ZM91.5198 207.16C91.4131 207.16 91.2904 207.112 91.1518 207.016C91.0131 206.92 90.8904 206.803 90.7838 206.664C90.6878 206.515 90.6398 206.387 90.6398 206.28C90.6398 206.163 90.6878 206.04 90.7838 205.912C90.8904 205.773 91.0131 205.656 91.1518 205.56C91.2904 205.453 91.4131 205.4 91.5198 205.4C91.6371 205.4 91.7598 205.453 91.8878 205.56C92.0264 205.656 92.1438 205.773 92.2398 205.912C92.3464 206.04 92.3998 206.163 92.3998 206.28C92.3998 206.387 92.3464 206.509 92.2398 206.648C92.1438 206.787 92.0264 206.909 91.8878 207.016C91.7491 207.112 91.6264 207.16 91.5198 207.16ZM99.0844 215V204.92H100.364V213.56H102.284V215H99.0844ZM110.849 213.56H112.769V215H110.849V213.56ZM107.905 207.32C108.63 207.32 109.206 207.389 109.633 207.528C110.07 207.656 110.379 207.875 110.561 208.184C110.753 208.483 110.849 208.888 110.849 209.4V215H101.649V213.56H109.569V208.936C109.313 208.872 109.046 208.829 108.769 208.808C108.491 208.776 108.166 208.76 107.793 208.76C107.366 208.76 106.897 208.792 106.385 208.856C105.873 208.92 105.387 209.016 104.929 209.144L104.433 207.96C104.731 207.811 105.073 207.693 105.457 207.608C105.851 207.512 106.262 207.443 106.689 207.4C107.115 207.347 107.521 207.32 107.905 207.32ZM104.465 214.472C104.166 214.131 103.969 213.683 103.873 213.128C103.777 212.563 103.729 211.971 103.729 211.352C103.729 210.744 103.793 210.157 103.921 209.592C104.059 209.027 104.23 208.483 104.433 207.96L105.633 208.328C105.451 208.872 105.302 209.389 105.185 209.88C105.067 210.36 105.009 210.851 105.009 211.352C105.009 211.736 105.025 212.109 105.057 212.472C105.099 212.835 105.169 213.176 105.265 213.496C105.371 213.816 105.515 214.104 105.697 214.36L104.465 214.472ZM115.973 213.56H117.893V215H112.133V213.56H114.693V207.48H115.973V213.56ZM114.101 218.04C113.994 218.04 113.872 217.992 113.733 217.896C113.594 217.8 113.472 217.677 113.365 217.528C113.269 217.389 113.221 217.267 113.221 217.16C113.221 217.043 113.269 216.915 113.365 216.776C113.472 216.648 113.594 216.531 113.733 216.424C113.872 216.328 113.994 216.28 114.101 216.28C114.218 216.28 114.341 216.328 114.469 216.424C114.608 216.531 114.725 216.648 114.821 216.776C114.928 216.915 114.981 217.043 114.981 217.16C114.981 217.267 114.928 217.389 114.821 217.528C114.725 217.667 114.608 217.784 114.469 217.88C114.33 217.987 114.208 218.04 114.101 218.04ZM116.405 218.04C116.298 218.04 116.176 217.992 116.037 217.896C115.898 217.8 115.776 217.677 115.669 217.528C115.573 217.389 115.525 217.267 115.525 217.16C115.525 217.043 115.573 216.915 115.669 216.776C115.776 216.648 115.898 216.531 116.037 216.424C116.176 216.328 116.298 216.28 116.405 216.28C116.522 216.28 116.645 216.328 116.773 216.424C116.912 216.531 117.029 216.648 117.125 216.776C117.232 216.915 117.285 217.043 117.285 217.16C117.285 217.267 117.232 217.389 117.125 217.528C117.029 217.667 116.912 217.784 116.773 217.88C116.634 217.987 116.512 218.04 116.405 218.04ZM121.098 213.56H123.018V215H117.258V213.56H119.818V207.48H121.098V213.56ZM119.226 218.04C119.119 218.04 118.997 217.992 118.858 217.896C118.719 217.8 118.597 217.677 118.49 217.528C118.394 217.389 118.346 217.267 118.346 217.16C118.346 217.043 118.394 216.915 118.49 216.776C118.597 216.648 118.719 216.531 118.858 216.424C118.997 216.328 119.119 216.28 119.226 216.28C119.343 216.28 119.466 216.328 119.594 216.424C119.733 216.531 119.85 216.648 119.946 216.776C120.053 216.915 120.106 217.043 120.106 217.16C120.106 217.267 120.053 217.389 119.946 217.528C119.85 217.667 119.733 217.784 119.594 217.88C119.455 217.987 119.333 218.04 119.226 218.04ZM121.53 218.04C121.423 218.04 121.301 217.992 121.162 217.896C121.023 217.8 120.901 217.677 120.794 217.528C120.698 217.389 120.65 217.267 120.65 217.16C120.65 217.043 120.698 216.915 120.794 216.776C120.901 216.648 121.023 216.531 121.162 216.424C121.301 216.328 121.423 216.28 121.53 216.28C121.647 216.28 121.77 216.328 121.898 216.424C122.037 216.531 122.154 216.648 122.25 216.776C122.357 216.915 122.41 217.043 122.41 217.16C122.41 217.267 122.357 217.389 122.25 217.528C122.154 217.667 122.037 217.784 121.898 217.88C121.759 217.987 121.637 218.04 121.53 218.04ZM131.487 213.56H133.407V215H131.487V213.56ZM122.383 213.56H124.943C124.89 213.261 124.847 212.904 124.815 212.488C124.794 212.072 124.783 211.523 124.783 210.84C124.783 210.147 124.831 209.576 124.927 209.128C125.023 208.669 125.194 208.312 125.439 208.056C125.684 207.789 126.026 207.603 126.463 207.496C126.9 207.379 127.46 207.32 128.143 207.32C128.73 207.32 129.274 207.357 129.775 207.432C130.276 207.507 130.847 207.635 131.487 207.816V215H122.383V213.56ZM129.471 213.56C129.748 213.56 129.94 213.501 130.047 213.384C130.154 213.267 130.207 213.059 130.207 212.76V208.792H126.879C126.591 208.792 126.394 208.851 126.287 208.968C126.191 209.085 126.143 209.32 126.143 209.672V213.56H129.471ZM126.991 205.56C126.884 205.56 126.762 205.512 126.623 205.416C126.484 205.32 126.362 205.203 126.255 205.064C126.159 204.915 126.111 204.787 126.111 204.68C126.111 204.563 126.159 204.44 126.255 204.312C126.362 204.173 126.484 204.056 126.623 203.96C126.762 203.853 126.884 203.8 126.991 203.8C127.108 203.8 127.231 203.853 127.359 203.96C127.498 204.056 127.615 204.173 127.711 204.312C127.818 204.44 127.871 204.563 127.871 204.68C127.871 204.787 127.818 204.909 127.711 205.048C127.615 205.187 127.498 205.309 127.359 205.416C127.22 205.512 127.098 205.56 126.991 205.56ZM129.295 205.56C129.188 205.56 129.066 205.512 128.927 205.416C128.788 205.32 128.666 205.203 128.559 205.064C128.463 204.915 128.415 204.787 128.415 204.68C128.415 204.563 128.463 204.44 128.559 204.312C128.666 204.173 128.788 204.056 128.927 203.96C129.066 203.853 129.188 203.8 129.295 203.8C129.412 203.8 129.535 203.853 129.663 203.96C129.802 204.056 129.919 204.173 130.015 204.312C130.122 204.44 130.175 204.563 130.175 204.68C130.175 204.787 130.122 204.909 130.015 205.048C129.919 205.187 129.802 205.309 129.663 205.416C129.524 205.512 129.402 205.56 129.295 205.56ZM136.614 213.56H138.534V215H132.774V213.56H135.334V207.48H136.614V213.56ZM134.822 205.56C134.715 205.56 134.592 205.512 134.454 205.416C134.315 205.32 134.192 205.203 134.086 205.064C133.99 204.915 133.942 204.787 133.942 204.68C133.942 204.563 133.99 204.44 134.086 204.312C134.192 204.173 134.315 204.056 134.454 203.96C134.592 203.853 134.715 203.8 134.822 203.8C134.939 203.8 135.062 203.853 135.19 203.96C135.328 204.056 135.446 204.173 135.542 204.312C135.648 204.44 135.702 204.563 135.702 204.68C135.702 204.787 135.648 204.909 135.542 205.048C135.446 205.187 135.328 205.309 135.19 205.416C135.051 205.512 134.928 205.56 134.822 205.56ZM137.126 205.56C137.019 205.56 136.896 205.512 136.758 205.416C136.619 205.32 136.496 205.203 136.39 205.064C136.294 204.915 136.246 204.787 136.246 204.68C136.246 204.563 136.294 204.44 136.39 204.312C136.496 204.173 136.619 204.056 136.758 203.96C136.896 203.853 137.019 203.8 137.126 203.8C137.243 203.8 137.366 203.853 137.494 203.96C137.632 204.056 137.75 204.173 137.846 204.312C137.952 204.44 138.006 204.563 138.006 204.68C138.006 204.787 137.952 204.909 137.846 205.048C137.75 205.187 137.632 205.309 137.494 205.416C137.355 205.512 137.232 205.56 137.126 205.56ZM141.739 215H137.899V213.56H140.459V204.92H141.739V215ZM144.944 215V204.92H146.224V215H144.944ZM164.212 213.56H166.292V215H164.212V213.56ZM155.188 215C154.644 215 154.207 214.893 153.876 214.68C153.545 214.467 153.305 214.12 153.156 213.64C153.017 213.149 152.948 212.504 152.948 211.704C152.948 211.224 152.985 210.723 153.06 210.2C153.145 209.667 153.257 209.219 153.396 208.856L154.612 209.064C154.484 209.491 154.388 209.907 154.324 210.312C154.26 210.717 154.228 211.096 154.228 211.448C154.228 211.885 154.244 212.275 154.276 212.616C154.319 212.947 154.388 213.261 154.484 213.56H163.092V207.48H164.372V215H155.188ZM158.852 218.2C158.745 218.2 158.623 218.152 158.484 218.056C158.345 217.96 158.223 217.837 158.116 217.688C158.02 217.549 157.972 217.427 157.972 217.32C157.972 217.203 158.02 217.075 158.116 216.936C158.223 216.808 158.345 216.691 158.484 216.584C158.623 216.488 158.745 216.44 158.852 216.44C158.969 216.44 159.092 216.488 159.22 216.584C159.359 216.691 159.476 216.808 159.572 216.936C159.679 217.075 159.732 217.203 159.732 217.32C159.732 217.427 159.679 217.549 159.572 217.688C159.476 217.827 159.359 217.944 159.22 218.04C159.081 218.147 158.959 218.2 158.852 218.2ZM176.305 215C175.622 215 175.067 214.957 174.641 214.872C174.214 214.787 173.883 214.632 173.649 214.408C173.425 214.184 173.27 213.875 173.185 213.48C173.099 213.085 173.057 212.584 173.057 211.976V208.92H174.337V212.712C174.337 213.053 174.433 213.283 174.625 213.4C174.817 213.507 175.137 213.56 175.585 213.56H177.713C177.787 213.187 177.835 212.792 177.857 212.376C177.889 211.949 177.905 211.459 177.905 210.904C177.905 210.435 177.867 209.928 177.793 209.384C177.718 208.84 177.617 208.285 177.489 207.72L178.753 207.512C178.827 207.789 178.897 208.131 178.961 208.536C179.025 208.931 179.078 209.336 179.121 209.752C179.163 210.157 179.185 210.525 179.185 210.856C179.185 211.912 179.105 212.744 178.945 213.352C178.785 213.949 178.497 214.376 178.081 214.632C177.675 214.877 177.083 215 176.305 215ZM171.089 215H169.489V213.56H171.809C172.257 213.56 172.577 213.507 172.769 213.4C172.961 213.283 173.057 213.053 173.057 212.712V208.92H174.337V211.976C174.337 212.584 174.294 213.085 174.209 213.48C174.134 213.875 173.979 214.184 173.745 214.408C173.521 214.632 173.195 214.787 172.769 214.872C172.342 214.957 171.782 215 171.089 215ZM169.489 215H165.649V213.56H168.209V208.92H169.489V215ZM178.145 213.56H181.105V215H176.305L178.145 213.56ZM188.189 210.68H189.661V212.12H188.253C187.933 212.12 187.683 212.051 187.501 211.912C187.32 211.763 187.171 211.533 187.053 211.224C186.829 210.595 186.557 210.104 186.237 209.752C185.917 209.389 185.512 209.133 185.021 208.984C184.531 208.835 183.917 208.76 183.181 208.76C182.979 208.76 182.765 208.765 182.541 208.776C182.328 208.787 182.099 208.803 181.853 208.824L181.645 207.416C181.955 207.384 182.248 207.363 182.525 207.352C182.813 207.331 183.085 207.32 183.341 207.32C184.237 207.32 184.989 207.437 185.597 207.672C186.205 207.896 186.717 208.253 187.133 208.744C187.549 209.235 187.901 209.88 188.189 210.68ZM187.117 210.76L188.301 211.272C188.099 211.805 187.843 212.301 187.533 212.76C187.224 213.208 186.856 213.603 186.429 213.944C186.003 214.275 185.512 214.536 184.957 214.728C184.403 214.909 183.773 215 183.069 215H180.461V213.56H183.437C183.928 213.56 184.371 213.475 184.765 213.304C185.16 213.133 185.507 212.909 185.805 212.632C186.115 212.355 186.376 212.056 186.589 211.736C186.813 211.405 186.989 211.08 187.117 210.76Z" fill="black"/>
<defs>
<filter id="filter0_d_481_683" x="0" y="0" width="275" height="275" filterUnits="userSpaceOnUse" color-interpolation-filters="sRGB">
<feFlood flood-opacity="0" result="BackgroundImageFix"/>
<feColorMatrix in="SourceAlpha" type="matrix" values="0 0 0 0 0 0 0 0 0 0 0 0 0 0 0 0 0 0 127 0" result="hardAlpha"/>
<feMorphology radius="8" operator="dilate" in="SourceAlpha" result="effect1_dropShadow_481_683"/>
<feOffset dx="1" dy="1"/>
<feGaussianBlur stdDeviation="9"/>
<feComposite in2="hardAlpha" operator="out"/>
<feColorMatrix type="matrix" values="0 0 0 0 0 0 0 0 0 0 0 0 0 0 0 0 0 0 0.17 0"/>
<feBlend mode="normal" in2="BackgroundImageFix" result="effect1_dropShadow_481_683"/>
<feBlend mode="normal" in="SourceGraphic" in2="effect1_dropShadow_481_683" result="shape"/>
</filter>
</defs>
</svg>
