<svg width="275" height="275" viewBox="0 0 275 275" fill="none" xmlns="http://www.w3.org/2000/svg">
<g filter="url(#filter0_d_481_677)">
<rect x="25" y="25" width="223" height="223" rx="20" fill="white"/>
</g>
<path d="M136.5 93.758V86.0717M136.5 93.758C141.001 93.9325 145.258 95.8502 148.371 99.1058C151.484 102.361 153.209 106.7 153.182 111.204V117.054C153.182 124.808 159.25 126.745 159.25 130.623C159.25 132.55 159.25 134.5 157.501 134.5H115.499C113.75 134.5 113.75 132.55 113.75 130.623C113.75 126.745 119.818 124.808 119.818 117.054V111.204C119.791 106.7 121.516 102.361 124.629 99.1058C127.742 95.8502 131.999 93.9325 136.5 93.758ZM117 92.25L113.75 89M110.5 105.25H107.25M156 92.25L159.25 89M162.5 105.25H165.75M125.255 134.5C125.554 137.274 126.867 139.84 128.943 141.704C131.019 143.568 133.71 144.599 136.5 144.599C139.29 144.599 141.981 143.568 144.057 141.704C146.133 139.84 147.446 137.274 147.745 134.5H125.255Z" stroke="black" stroke-width="6.5" stroke-linecap="round" stroke-linejoin="round"/>
<path d="M95.8209 185.56H97.7409V187H95.8209V185.56ZM93.4529 191.144L92.9089 190.024C93.3249 189.821 93.6503 189.592 93.8849 189.336C94.1303 189.08 94.3009 188.765 94.3969 188.392C94.5036 188.019 94.5569 187.555 94.5569 187V179.48H95.8369V187C95.8369 187.704 95.7569 188.312 95.5969 188.824C95.4369 189.347 95.1809 189.795 94.8289 190.168C94.4769 190.541 94.0183 190.867 93.4529 191.144ZM95.1809 177.56C95.0743 177.56 94.9516 177.512 94.8129 177.416C94.6743 177.32 94.5516 177.203 94.4449 177.064C94.3489 176.915 94.3009 176.787 94.3009 176.68C94.3009 176.563 94.3489 176.44 94.4449 176.312C94.5516 176.173 94.6743 176.056 94.8129 175.96C94.9516 175.853 95.0743 175.8 95.1809 175.8C95.2983 175.8 95.4209 175.853 95.5489 175.96C95.6876 176.056 95.8049 176.173 95.9009 176.312C96.0076 176.44 96.0609 176.563 96.0609 176.68C96.0609 176.787 96.0076 176.909 95.9009 177.048C95.8049 177.187 95.6876 177.309 95.5489 177.416C95.4103 177.512 95.2876 177.56 95.1809 177.56ZM105.926 185.56H106.886V187H105.99C105.67 187 105.419 186.931 105.238 186.792C105.057 186.643 104.907 186.413 104.79 186.104L103.686 183.224C103.43 182.605 103.142 182.12 102.822 181.768C102.502 181.405 102.102 181.149 101.622 181C101.153 180.84 100.55 180.76 99.8141 180.76C99.6114 180.76 99.3981 180.765 99.1741 180.776C98.9607 180.787 98.7314 180.803 98.4861 180.824L98.2781 179.416C98.5874 179.384 98.8807 179.363 99.1581 179.352C99.4461 179.331 99.7181 179.32 99.9741 179.32C100.87 179.32 101.622 179.437 102.23 179.672C102.849 179.896 103.366 180.253 103.782 180.744C104.198 181.235 104.55 181.88 104.838 182.68L105.926 185.56ZM103.75 182.76L104.934 183.272C104.742 183.805 104.497 184.301 104.198 184.76C103.91 185.208 103.563 185.603 103.158 185.944C102.763 186.275 102.305 186.536 101.782 186.728C101.27 186.909 100.683 187 100.022 187H97.0941V185.56H100.55C100.977 185.56 101.361 185.475 101.702 185.304C102.054 185.133 102.358 184.909 102.614 184.632C102.881 184.355 103.105 184.056 103.286 183.736C103.478 183.405 103.633 183.08 103.75 182.76ZM101.654 190.04C101.547 190.04 101.425 189.992 101.286 189.896C101.147 189.8 101.025 189.677 100.918 189.528C100.822 189.389 100.774 189.267 100.774 189.16C100.774 189.043 100.822 188.915 100.918 188.776C101.025 188.648 101.147 188.531 101.286 188.424C101.425 188.328 101.547 188.28 101.654 188.28C101.771 188.28 101.894 188.328 102.022 188.424C102.161 188.531 102.278 188.648 102.374 188.776C102.481 188.915 102.534 189.043 102.534 189.16C102.534 189.267 102.481 189.389 102.374 189.528C102.278 189.667 102.161 189.784 102.022 189.88C101.883 189.987 101.761 190.04 101.654 190.04ZM115.082 185.56H116.042V187H115.146C114.826 187 114.576 186.931 114.394 186.792C114.213 186.643 114.064 186.413 113.946 186.104L112.842 183.224C112.586 182.605 112.298 182.12 111.978 181.768C111.658 181.405 111.258 181.149 110.778 181C110.309 180.84 109.706 180.76 108.97 180.76C108.768 180.76 108.554 180.765 108.33 180.776C108.117 180.787 107.888 180.803 107.642 180.824L107.434 179.416C107.744 179.384 108.037 179.363 108.314 179.352C108.602 179.331 108.874 179.32 109.13 179.32C110.026 179.32 110.778 179.437 111.386 179.672C112.005 179.896 112.522 180.253 112.938 180.744C113.354 181.235 113.706 181.88 113.994 182.68L115.082 185.56ZM112.906 182.76L114.09 183.272C113.898 183.805 113.653 184.301 113.354 184.76C113.066 185.208 112.72 185.603 112.314 185.944C111.92 186.275 111.461 186.536 110.938 186.728C110.426 186.909 109.84 187 109.178 187H106.25V185.56H109.706C110.133 185.56 110.517 185.475 110.858 185.304C111.21 185.133 111.514 184.909 111.77 184.632C112.037 184.355 112.261 184.056 112.442 183.736C112.634 183.405 112.789 183.08 112.906 182.76ZM119.247 187H115.407V185.56H117.967V176.92H119.247V187ZM122.452 187V176.92H123.732V187H122.452ZM137.8 185.56H139.56V187H137.8V185.56ZM137.848 179.48V187H133.944C133.261 187 132.701 186.952 132.264 186.856C131.837 186.76 131.512 186.579 131.288 186.312C131.064 186.045 130.909 185.667 130.824 185.176C130.739 184.685 130.696 184.04 130.696 183.24C130.696 182.44 130.739 181.795 130.824 181.304C130.909 180.813 131.064 180.435 131.288 180.168C131.512 179.901 131.837 179.72 132.264 179.624C132.701 179.528 133.261 179.48 133.944 179.48H137.848ZM136.568 180.92H133.16C132.765 180.92 132.483 180.989 132.312 181.128C132.141 181.267 132.056 181.496 132.056 181.816V184.664C132.056 184.984 132.141 185.213 132.312 185.352C132.483 185.491 132.765 185.56 133.16 185.56H136.568V180.92ZM133.144 177.56C133.037 177.56 132.915 177.512 132.776 177.416C132.637 177.32 132.515 177.203 132.408 177.064C132.312 176.915 132.264 176.787 132.264 176.68C132.264 176.563 132.312 176.44 132.408 176.312C132.515 176.173 132.637 176.056 132.776 175.96C132.915 175.853 133.037 175.8 133.144 175.8C133.261 175.8 133.384 175.853 133.512 175.96C133.651 176.056 133.768 176.173 133.864 176.312C133.971 176.44 134.024 176.563 134.024 176.68C134.024 176.787 133.971 176.909 133.864 177.048C133.768 177.187 133.651 177.309 133.512 177.416C133.373 177.512 133.251 177.56 133.144 177.56ZM135.448 177.56C135.341 177.56 135.219 177.512 135.08 177.416C134.941 177.32 134.819 177.203 134.712 177.064C134.616 176.915 134.568 176.787 134.568 176.68C134.568 176.563 134.616 176.44 134.712 176.312C134.819 176.173 134.941 176.056 135.08 175.96C135.219 175.853 135.341 175.8 135.448 175.8C135.565 175.8 135.688 175.853 135.816 175.96C135.955 176.056 136.072 176.173 136.168 176.312C136.275 176.44 136.328 176.563 136.328 176.68C136.328 176.787 136.275 176.909 136.168 177.048C136.072 177.187 135.955 177.309 135.816 177.416C135.677 177.512 135.555 177.56 135.448 177.56ZM142.762 187H138.922V185.56H141.482V176.92H142.762V187ZM151.951 185.56H154.511V187H151.951V185.56ZM148.047 187C147.589 187 147.21 186.941 146.911 186.824C146.613 186.707 146.378 186.509 146.207 186.232C146.037 185.944 145.914 185.549 145.839 185.048C145.765 184.547 145.727 183.917 145.727 183.16C145.727 182.381 145.775 181.747 145.871 181.256C145.978 180.755 146.154 180.365 146.399 180.088C146.645 179.8 146.986 179.603 147.423 179.496C147.861 179.379 148.415 179.32 149.087 179.32C149.77 179.32 150.362 179.357 150.863 179.432C151.365 179.507 151.887 179.635 152.431 179.816V185.56L151.839 187H148.047ZM150.415 185.56C150.693 185.56 150.885 185.501 150.991 185.384C151.098 185.267 151.151 185.059 151.151 184.76V180.76H147.823C147.535 180.76 147.338 180.819 147.231 180.936C147.135 181.053 147.087 181.288 147.087 181.64V185.56H150.415ZM149.039 191.272L148.239 190.28C148.634 189.971 149.002 189.619 149.343 189.224C149.695 188.829 150.005 188.419 150.271 187.992C150.549 187.565 150.762 187.144 150.911 186.728C151.071 186.301 151.151 185.912 151.151 185.56H152.431C152.431 186.008 152.341 186.493 152.159 187.016C151.989 187.539 151.743 188.061 151.423 188.584C151.114 189.107 150.757 189.597 150.351 190.056C149.946 190.525 149.509 190.931 149.039 191.272ZM164.435 185.576H166.195V187.016H164.435V185.576ZM153.875 187V185.56H163.683L162.883 182.456C162.691 181.72 162.393 181.149 161.987 180.744C161.593 180.328 161.075 180.04 160.435 179.88C159.795 179.709 159.001 179.624 158.051 179.624L158.131 178.232C159.273 178.232 160.238 178.339 161.027 178.552C161.817 178.755 162.457 179.128 162.947 179.672C163.449 180.205 163.822 180.968 164.067 181.96L165.075 185.896V187H153.875ZM155.699 185.88C155.699 185.037 155.726 184.365 155.779 183.864C155.843 183.363 155.966 182.989 156.147 182.744C156.329 182.499 156.601 182.339 156.963 182.264C157.337 182.179 157.827 182.136 158.435 182.136C159.086 182.136 159.603 182.179 159.987 182.264C160.382 182.339 160.675 182.499 160.867 182.744C161.059 182.989 161.182 183.363 161.235 183.864C161.299 184.365 161.331 185.037 161.331 185.88H155.699ZM160.211 183.176H157.635C157.337 183.176 157.123 183.224 156.995 183.32C156.878 183.405 156.819 183.565 156.819 183.8V185.88H160.211V183.176ZM176.219 187C175.536 187 174.981 186.957 174.555 186.872C174.128 186.787 173.797 186.632 173.563 186.408C173.339 186.184 173.184 185.875 173.099 185.48C173.013 185.085 172.971 184.584 172.971 183.976V180.92H174.251V184.712C174.251 185.053 174.347 185.283 174.539 185.4C174.731 185.507 175.051 185.56 175.499 185.56H177.627C177.701 185.187 177.749 184.792 177.771 184.376C177.803 183.949 177.819 183.459 177.819 182.904C177.819 182.435 177.781 181.928 177.707 181.384C177.632 180.84 177.531 180.285 177.403 179.72L178.667 179.512C178.741 179.789 178.811 180.131 178.875 180.536C178.939 180.931 178.992 181.336 179.035 181.752C179.077 182.157 179.099 182.525 179.099 182.856C179.099 183.912 179.019 184.744 178.859 185.352C178.699 185.949 178.411 186.376 177.995 186.632C177.589 186.877 176.997 187 176.219 187ZM171.003 187H169.403V185.56H171.723C172.171 185.56 172.491 185.507 172.683 185.4C172.875 185.283 172.971 185.053 172.971 184.712V180.92H174.251V183.976C174.251 184.584 174.208 185.085 174.123 185.48C174.048 185.875 173.893 186.184 173.659 186.408C173.435 186.632 173.109 186.787 172.683 186.872C172.256 186.957 171.696 187 171.003 187ZM169.403 187H165.563V185.56H168.123V180.92H169.403V187Z" fill="black"/>
<defs>
<filter id="filter0_d_481_677" x="0" y="0" width="275" height="275" filterUnits="userSpaceOnUse" color-interpolation-filters="sRGB">
<feFlood flood-opacity="0" result="BackgroundImageFix"/>
<feColorMatrix in="SourceAlpha" type="matrix" values="0 0 0 0 0 0 0 0 0 0 0 0 0 0 0 0 0 0 127 0" result="hardAlpha"/>
<feMorphology radius="8" operator="dilate" in="SourceAlpha" result="effect1_dropShadow_481_677"/>
<feOffset dx="1" dy="1"/>
<feGaussianBlur stdDeviation="9"/>
<feComposite in2="hardAlpha" operator="out"/>
<feColorMatrix type="matrix" values="0 0 0 0 0 0 0 0 0 0 0 0 0 0 0 0 0 0 0.17 0"/>
<feBlend mode="normal" in2="BackgroundImageFix" result="effect1_dropShadow_481_677"/>
<feBlend mode="normal" in="SourceGraphic" in2="effect1_dropShadow_481_677" result="shape"/>
</filter>
</defs>
</svg>
