<svg width="275" height="275" viewBox="0 0 275 275" fill="none" xmlns="http://www.w3.org/2000/svg">
<g filter="url(#filter0_d_481_668)">
<rect x="25" y="25" width="223" height="223" rx="20" fill="white"/>
</g>
<path fill-rule="evenodd" clip-rule="evenodd" d="M136.5 73.375C137.003 73.375 137.485 73.5747 137.841 73.9303C138.196 74.2858 138.396 74.768 138.396 75.2708V75.3997C143.7 75.9533 147.748 78.234 150.383 81.1365C152.196 83.1329 153.396 85.5121 153.773 87.8326L153.978 87.99C156.109 89.6412 157.673 91.6432 157.301 93.9391C156.943 96.1572 154.939 97.5071 153.073 98.3317C152.602 98.5405 152.121 98.7277 151.633 98.8929C151.655 99.2304 151.667 99.5716 151.667 99.9167C151.666 101.951 151.256 103.964 150.461 105.837C149.666 107.709 148.502 109.403 147.039 110.816C145.577 112.23 143.844 113.335 141.946 114.065C140.047 114.795 138.021 115.136 135.988 115.068C133.955 114.999 131.956 114.522 130.111 113.665C128.266 112.808 126.613 111.589 125.249 110.08C123.884 108.571 122.838 106.803 122.171 104.881C121.504 102.959 121.231 100.923 121.367 98.8929C120.879 98.7277 120.398 98.5405 119.927 98.3317C118.061 97.5071 116.057 96.1572 115.699 93.9391C115.327 91.6432 116.891 89.6412 119.022 87.99L119.263 87.8042C119.312 87.5023 119.372 87.2025 119.445 86.9056C119.945 84.934 120.857 83.0907 122.12 81.4968C124.661 78.2587 128.818 75.6424 134.604 75.3087V75.2708C134.604 74.768 134.804 74.2858 135.159 73.9303C135.515 73.5747 135.997 73.375 136.5 73.375ZM151.022 93.1675C151.41 93.3079 151.833 93.318 152.227 93.1962C152.621 93.0744 152.965 92.8274 153.206 92.4926C153.58 93.0139 153.566 93.2907 153.559 93.3343C153.534 93.486 153.244 94.1116 151.54 94.8662C149.551 95.7458 146.559 96.3828 143.128 96.743C143.046 95.0401 142.313 93.4338 141.078 92.2574C139.844 91.081 138.205 90.4248 136.5 90.4248C134.795 90.4248 133.156 91.081 131.922 92.2574C130.688 93.4338 129.954 95.0401 129.872 96.743C126.441 96.3828 123.449 95.7458 121.46 94.8662C119.756 94.1116 119.466 93.486 119.441 93.3343C119.434 93.2907 119.42 93.0158 119.794 92.4926C120.062 92.8656 120.455 93.1289 120.903 93.2335C121.35 93.3381 121.819 93.2769 122.225 93.0612C122.63 92.8456 122.943 92.4902 123.107 92.061C123.27 91.6318 123.271 91.158 123.112 90.7276C122.884 90.1133 122.814 89.0952 123.129 87.8023C123.501 86.3567 124.174 85.0059 125.104 83.8381L125.125 83.8116V87.5937C125.125 88.0966 125.325 88.5788 125.68 88.9343C126.036 89.2898 126.518 89.4896 127.021 89.4896C127.524 89.4896 128.006 89.2898 128.361 88.9343C128.717 88.5788 128.917 88.0966 128.917 87.5937V80.6664C130.475 79.8417 132.361 79.2654 134.604 79.1061V83.8021C134.604 84.3049 134.804 84.7871 135.159 85.1426C135.515 85.4982 135.997 85.6979 136.5 85.6979C137.003 85.6979 137.485 85.4982 137.841 85.1426C138.196 84.7871 138.396 84.3049 138.396 83.8021V79.2161C140.614 79.4948 142.506 80.1299 144.083 80.9792V87.5937C144.083 88.0966 144.283 88.5788 144.639 88.9343C144.994 89.2898 145.476 89.4896 145.979 89.4896C146.482 89.4896 146.964 89.2898 147.32 88.9343C147.675 88.5788 147.875 88.0966 147.875 87.5937V84.0277C149.991 86.5435 150.438 89.2052 149.885 90.7408C149.714 91.2135 149.738 91.7346 149.951 92.1896C150.164 92.6446 150.55 92.9964 151.022 93.1675ZM131.698 101.651C129.504 101.512 127.321 101.237 125.161 100.827C125.388 103.678 126.682 106.339 128.783 108.279C130.884 110.22 133.64 111.297 136.5 111.297C139.36 111.297 142.116 110.22 144.217 108.279C146.318 106.339 147.612 103.678 147.839 100.827C145.829 101.221 143.604 101.494 141.302 101.651C140.683 102.301 139.937 102.819 139.112 103.172C138.287 103.526 137.398 103.708 136.5 103.708C135.602 103.708 134.713 103.526 133.888 103.172C133.063 102.819 132.317 102.301 131.698 101.651ZM139.344 97.0729C139.344 97.8271 139.044 98.5504 138.511 99.0837C137.978 99.6171 137.254 99.9167 136.5 99.9167C135.746 99.9167 135.022 99.6171 134.489 99.0837C133.956 98.5504 133.656 97.8271 133.656 97.0729C133.656 96.3187 133.956 95.5954 134.489 95.0621C135.022 94.5288 135.746 94.2292 136.5 94.2292C137.254 94.2292 137.978 94.5288 138.511 95.0621C139.044 95.5954 139.344 96.3187 139.344 97.0729Z" fill="black"/>
<path d="M136.5 135.937C137.506 135.937 138.47 135.538 139.181 134.827C139.892 134.116 140.292 133.151 140.292 132.146C140.292 131.14 139.892 130.176 139.181 129.465C138.47 128.754 137.506 128.354 136.5 128.354C135.494 128.354 134.53 128.754 133.819 129.465C133.108 130.176 132.708 131.14 132.708 132.146C132.708 133.151 133.108 134.116 133.819 134.827C134.53 135.538 135.494 135.937 136.5 135.937Z" fill="black"/>
<path fill-rule="evenodd" clip-rule="evenodd" d="M128.033 115.842L134.604 120.771H138.396L144.967 115.842C156.522 117.692 170.625 122.837 170.625 130.25V141.625H102.375V130.25C102.375 122.837 116.478 117.692 128.033 115.842ZM139.66 124.562L145.936 119.855C147.837 120.204 149.773 120.642 151.667 121.156V137.833H155.458V122.316C156.785 122.771 158.058 123.266 159.25 123.798V137.833H113.75V123.798C114.942 123.268 116.215 122.771 117.542 122.316V137.833H121.333V121.156C123.227 120.642 125.163 120.204 127.064 119.855L133.34 124.562H139.66ZM165.516 127.766C166.585 128.874 166.833 129.691 166.833 130.25V137.833H163.042V125.806C164.065 126.462 164.892 127.122 165.516 127.768M107.484 127.768C108.11 127.124 108.936 126.464 109.958 125.808V137.833H106.167V130.25C106.167 129.691 106.413 128.874 107.484 127.766" fill="black"/>
<path d="M114.201 184.4H117.129C117.951 184.4 118.516 184.341 118.825 184.224C119.145 184.117 119.305 183.893 119.305 183.552V174.48H120.585V182.576C120.585 183.237 120.532 183.781 120.425 184.208C120.319 184.635 120.116 184.965 119.817 185.2C119.519 185.435 119.097 185.6 118.553 185.696C118.009 185.792 117.295 185.84 116.409 185.84C115.631 185.84 114.996 185.787 114.505 185.68C114.025 185.573 113.652 185.387 113.385 185.12C113.129 184.864 112.953 184.501 112.857 184.032C112.772 183.573 112.729 182.981 112.729 182.256C112.729 181.808 112.745 181.344 112.777 180.864C112.82 180.373 112.879 179.904 112.953 179.456C113.028 179.008 113.113 178.613 113.209 178.272L114.393 178.48C114.265 179.109 114.169 179.723 114.105 180.32C114.041 180.907 114.009 181.461 114.009 181.984C114.009 182.485 114.02 182.923 114.041 183.296C114.073 183.68 114.127 184.048 114.201 184.4ZM116.729 172.56C116.623 172.56 116.5 172.512 116.361 172.416C116.223 172.32 116.1 172.203 115.993 172.064C115.897 171.915 115.849 171.787 115.849 171.68C115.849 171.563 115.897 171.44 115.993 171.312C116.1 171.173 116.223 171.056 116.361 170.96C116.5 170.853 116.623 170.8 116.729 170.8C116.847 170.8 116.969 170.853 117.097 170.96C117.236 171.056 117.353 171.173 117.449 171.312C117.556 171.44 117.609 171.563 117.609 171.68C117.609 171.787 117.556 171.909 117.449 172.048C117.353 172.187 117.236 172.309 117.097 172.416C116.959 172.512 116.836 172.56 116.729 172.56ZM129.803 180.56H132.363V182H129.803V180.56ZM125.899 182C125.44 182 125.061 181.941 124.763 181.824C124.464 181.707 124.229 181.509 124.059 181.232C123.888 180.944 123.765 180.549 123.691 180.048C123.616 179.547 123.579 178.917 123.579 178.16C123.579 177.381 123.627 176.747 123.723 176.256C123.829 175.755 124.005 175.365 124.251 175.088C124.496 174.8 124.837 174.603 125.275 174.496C125.712 174.379 126.267 174.32 126.939 174.32C127.621 174.32 128.213 174.357 128.715 174.432C129.216 174.507 129.739 174.635 130.283 174.816V180.56L129.691 182H125.899ZM128.267 180.56C128.544 180.56 128.736 180.501 128.843 180.384C128.949 180.267 129.003 180.059 129.003 179.76V175.76H125.675C125.387 175.76 125.189 175.819 125.083 175.936C124.987 176.053 124.939 176.288 124.939 176.64V180.56H128.267ZM126.891 186.272L126.091 185.28C126.485 184.971 126.853 184.619 127.195 184.224C127.547 183.829 127.856 183.419 128.123 182.992C128.4 182.565 128.613 182.144 128.763 181.728C128.923 181.301 129.003 180.912 129.003 180.56H130.283C130.283 181.008 130.192 181.493 130.011 182.016C129.84 182.539 129.595 183.061 129.275 183.584C128.965 184.107 128.608 184.597 128.203 185.056C127.797 185.525 127.36 185.931 126.891 186.272ZM135.567 180.56H137.487V182H131.727V180.56H134.287V174.48H135.567V180.56ZM133.695 185.04C133.588 185.04 133.466 184.992 133.327 184.896C133.188 184.8 133.066 184.677 132.959 184.528C132.863 184.389 132.815 184.267 132.815 184.16C132.815 184.043 132.863 183.915 132.959 183.776C133.066 183.648 133.188 183.531 133.327 183.424C133.466 183.328 133.588 183.28 133.695 183.28C133.812 183.28 133.935 183.328 134.063 183.424C134.202 183.531 134.319 183.648 134.415 183.776C134.522 183.915 134.575 184.043 134.575 184.16C134.575 184.267 134.522 184.389 134.415 184.528C134.319 184.667 134.202 184.784 134.063 184.88C133.924 184.987 133.802 185.04 133.695 185.04ZM135.999 185.04C135.892 185.04 135.77 184.992 135.631 184.896C135.492 184.8 135.37 184.677 135.263 184.528C135.167 184.389 135.119 184.267 135.119 184.16C135.119 184.043 135.167 183.915 135.263 183.776C135.37 183.648 135.492 183.531 135.631 183.424C135.77 183.328 135.892 183.28 135.999 183.28C136.116 183.28 136.239 183.328 136.367 183.424C136.506 183.531 136.623 183.648 136.719 183.776C136.826 183.915 136.879 184.043 136.879 184.16C136.879 184.267 136.826 184.389 136.719 184.528C136.623 184.667 136.506 184.784 136.367 184.88C136.228 184.987 136.106 185.04 135.999 185.04ZM136.852 180.56H139.412C139.359 180.261 139.316 179.904 139.284 179.488C139.263 179.072 139.252 178.523 139.252 177.84C139.252 177.147 139.3 176.576 139.396 176.128C139.492 175.669 139.663 175.312 139.908 175.056C140.153 174.789 140.495 174.603 140.932 174.496C141.369 174.379 141.929 174.32 142.612 174.32C143.199 174.32 143.743 174.357 144.244 174.432C144.745 174.507 145.316 174.635 145.956 174.816V182H136.852V180.56ZM143.94 180.56C144.217 180.56 144.409 180.501 144.516 180.384C144.623 180.267 144.676 180.059 144.676 179.76V175.792H141.348C141.06 175.792 140.863 175.851 140.756 175.968C140.66 176.085 140.612 176.32 140.612 176.672V180.56H143.94ZM142.612 172.56C142.505 172.56 142.383 172.512 142.244 172.416C142.105 172.32 141.983 172.203 141.876 172.064C141.78 171.915 141.732 171.787 141.732 171.68C141.732 171.563 141.78 171.44 141.876 171.312C141.983 171.173 142.105 171.056 142.244 170.96C142.383 170.853 142.505 170.8 142.612 170.8C142.729 170.8 142.852 170.853 142.98 170.96C143.119 171.056 143.236 171.173 143.332 171.312C143.439 171.44 143.492 171.563 143.492 171.68C143.492 171.787 143.439 171.909 143.332 172.048C143.236 172.187 143.119 172.309 142.98 172.416C142.841 172.512 142.719 172.56 142.612 172.56ZM150.923 180.56H152.843V182H150.923V180.56ZM148.555 186.144L148.011 185.024C148.427 184.821 148.752 184.592 148.987 184.336C149.232 184.08 149.403 183.765 149.499 183.392C149.605 183.019 149.659 182.555 149.659 182V174.48H150.939V182C150.939 182.704 150.859 183.312 150.699 183.824C150.539 184.347 150.283 184.795 149.931 185.168C149.579 185.541 149.12 185.867 148.555 186.144ZM159.924 177.68H161.396V179.12H159.988C159.668 179.12 159.417 179.051 159.236 178.912C159.054 178.763 158.905 178.533 158.788 178.224C158.564 177.595 158.292 177.104 157.972 176.752C157.652 176.389 157.246 176.133 156.756 175.984C156.265 175.835 155.652 175.76 154.916 175.76C154.713 175.76 154.5 175.765 154.276 175.776C154.062 175.787 153.833 175.803 153.588 175.824L153.38 174.416C153.689 174.384 153.982 174.363 154.26 174.352C154.548 174.331 154.82 174.32 155.076 174.32C155.972 174.32 156.724 174.437 157.332 174.672C157.94 174.896 158.452 175.253 158.868 175.744C159.284 176.235 159.636 176.88 159.924 177.68ZM158.852 177.76L160.036 178.272C159.833 178.805 159.577 179.301 159.268 179.76C158.958 180.208 158.59 180.603 158.164 180.944C157.737 181.275 157.246 181.536 156.692 181.728C156.137 181.909 155.508 182 154.804 182H152.196V180.56H155.172C155.662 180.56 156.105 180.475 156.5 180.304C156.894 180.133 157.241 179.909 157.54 179.632C157.849 179.355 158.11 179.056 158.324 178.736C158.548 178.405 158.724 178.08 158.852 177.76ZM106.99 213.4H109.918C110.74 213.4 111.305 213.341 111.614 213.224C111.934 213.117 112.094 212.893 112.094 212.552V203.48H113.374V211.576C113.374 212.237 113.321 212.781 113.214 213.208C113.108 213.635 112.905 213.965 112.606 214.2C112.308 214.435 111.886 214.6 111.342 214.696C110.798 214.792 110.084 214.84 109.198 214.84C108.42 214.84 107.785 214.787 107.294 214.68C106.814 214.573 106.441 214.387 106.174 214.12C105.918 213.864 105.742 213.501 105.646 213.032C105.561 212.573 105.518 211.981 105.518 211.256C105.518 210.808 105.534 210.344 105.566 209.864C105.609 209.373 105.668 208.904 105.742 208.456C105.817 208.008 105.902 207.613 105.998 207.272L107.182 207.48C107.054 208.109 106.958 208.723 106.894 209.32C106.83 209.907 106.798 210.461 106.798 210.984C106.798 211.485 106.809 211.923 106.83 212.296C106.862 212.68 106.916 213.048 106.99 213.4ZM109.518 201.56C109.412 201.56 109.289 201.512 109.15 201.416C109.012 201.32 108.889 201.203 108.782 201.064C108.686 200.915 108.638 200.787 108.638 200.68C108.638 200.563 108.686 200.44 108.782 200.312C108.889 200.173 109.012 200.056 109.15 199.96C109.289 199.853 109.412 199.8 109.518 199.8C109.636 199.8 109.758 199.853 109.886 199.96C110.025 200.056 110.142 200.173 110.238 200.312C110.345 200.44 110.398 200.563 110.398 200.68C110.398 200.787 110.345 200.909 110.238 201.048C110.142 201.187 110.025 201.309 109.886 201.416C109.748 201.512 109.625 201.56 109.518 201.56ZM118.688 211C118.229 211 117.85 210.941 117.552 210.824C117.253 210.707 117.018 210.509 116.848 210.232C116.677 209.944 116.554 209.549 116.48 209.048C116.405 208.547 116.368 207.917 116.368 207.16C116.368 206.381 116.416 205.747 116.512 205.256C116.618 204.755 116.794 204.365 117.04 204.088C117.285 203.8 117.626 203.603 118.064 203.496C118.501 203.379 119.056 203.32 119.728 203.32C120.41 203.32 121.002 203.357 121.504 203.432C122.005 203.507 122.528 203.635 123.072 203.816V209.56L122.48 211H118.688ZM121.056 209.56C121.333 209.56 121.525 209.501 121.632 209.384C121.738 209.267 121.792 209.059 121.792 208.76V204.76H118.464C118.176 204.76 117.978 204.819 117.872 204.936C117.776 205.053 117.728 205.288 117.728 205.64V209.56H121.056ZM119.68 215.272L118.88 214.28C119.274 213.971 119.642 213.619 119.984 213.224C120.336 212.829 120.645 212.419 120.912 211.992C121.189 211.565 121.402 211.144 121.552 210.728C121.712 210.301 121.792 209.912 121.792 209.56H123.072C123.072 210.008 122.981 210.493 122.8 211.016C122.629 211.539 122.384 212.061 122.064 212.584C121.754 213.107 121.397 213.597 120.992 214.056C120.586 214.525 120.149 214.931 119.68 215.272ZM131.752 209.56H132.872V211H131.752V209.56ZM124.984 211V209.56H130.536C130.248 208.504 129.981 207.651 129.736 207C129.501 206.349 129.261 205.848 129.016 205.496C128.771 205.144 128.488 204.904 128.168 204.776C127.848 204.648 127.459 204.584 127 204.584C126.819 204.584 126.616 204.6 126.392 204.632C126.168 204.653 125.965 204.691 125.784 204.744L125.432 203.336C125.709 203.272 125.987 203.224 126.264 203.192C126.541 203.16 126.787 203.144 127 203.144C127.565 203.144 128.045 203.187 128.44 203.272C128.845 203.347 129.197 203.512 129.496 203.768C129.805 204.013 130.088 204.381 130.344 204.872C130.6 205.363 130.861 206.019 131.128 206.84C131.405 207.651 131.72 208.664 132.072 209.88V211H124.984ZM141.435 209.56H143.355V211H141.435V209.56ZM138.491 203.32C139.216 203.32 139.792 203.389 140.219 203.528C140.656 203.656 140.965 203.875 141.147 204.184C141.339 204.483 141.435 204.888 141.435 205.4V211H132.235V209.56H140.155V204.936C139.899 204.872 139.632 204.829 139.355 204.808C139.077 204.776 138.752 204.76 138.379 204.76C137.952 204.76 137.483 204.792 136.971 204.856C136.459 204.92 135.973 205.016 135.515 205.144L135.019 203.96C135.317 203.811 135.659 203.693 136.043 203.608C136.437 203.512 136.848 203.443 137.275 203.4C137.701 203.347 138.107 203.32 138.491 203.32ZM135.051 210.472C134.752 210.131 134.555 209.683 134.459 209.128C134.363 208.563 134.315 207.971 134.315 207.352C134.315 206.744 134.379 206.157 134.507 205.592C134.645 205.027 134.816 204.483 135.019 203.96L136.219 204.328C136.037 204.872 135.888 205.389 135.771 205.88C135.653 206.36 135.595 206.851 135.595 207.352C135.595 207.736 135.611 208.109 135.643 208.472C135.685 208.835 135.755 209.176 135.851 209.496C135.957 209.816 136.101 210.104 136.283 210.36L135.051 210.472ZM146.559 209.56H148.479V211H142.719V209.56H145.279V203.48H146.559V209.56ZM144.767 201.56C144.66 201.56 144.538 201.512 144.399 201.416C144.26 201.32 144.138 201.203 144.031 201.064C143.935 200.915 143.887 200.787 143.887 200.68C143.887 200.563 143.935 200.44 144.031 200.312C144.138 200.173 144.26 200.056 144.399 199.96C144.538 199.853 144.66 199.8 144.767 199.8C144.884 199.8 145.007 199.853 145.135 199.96C145.274 200.056 145.391 200.173 145.487 200.312C145.594 200.44 145.647 200.563 145.647 200.68C145.647 200.787 145.594 200.909 145.487 201.048C145.391 201.187 145.274 201.309 145.135 201.416C144.996 201.512 144.874 201.56 144.767 201.56ZM147.071 201.56C146.964 201.56 146.842 201.512 146.703 201.416C146.564 201.32 146.442 201.203 146.335 201.064C146.239 200.915 146.191 200.787 146.191 200.68C146.191 200.563 146.239 200.44 146.335 200.312C146.442 200.173 146.564 200.056 146.703 199.96C146.842 199.853 146.964 199.8 147.071 199.8C147.188 199.8 147.311 199.853 147.439 199.96C147.578 200.056 147.695 200.173 147.791 200.312C147.898 200.44 147.951 200.563 147.951 200.68C147.951 200.787 147.898 200.909 147.791 201.048C147.695 201.187 147.578 201.309 147.439 201.416C147.3 201.512 147.178 201.56 147.071 201.56ZM156.26 209.56H158.5V211H156.26V209.56ZM150.532 204.76C150.532 205.773 150.756 206.643 151.204 207.368C151.652 208.083 152.303 208.627 153.156 209C154.009 209.373 155.044 209.56 156.26 209.56V211C155.279 211 154.361 210.845 153.508 210.536C152.665 210.227 151.924 209.795 151.284 209.24C150.644 208.685 150.143 208.04 149.78 207.304C149.428 206.568 149.252 205.773 149.252 204.92C149.252 204.504 149.364 204.179 149.588 203.944C149.823 203.709 150.223 203.549 150.788 203.464C151.364 203.368 152.159 203.32 153.172 203.32C154.196 203.32 154.991 203.368 155.556 203.464C156.121 203.549 156.516 203.709 156.74 203.944C156.975 204.179 157.092 204.504 157.092 204.92C157.092 205.773 156.911 206.568 156.548 207.304C156.196 208.04 155.7 208.685 155.06 209.24C154.42 209.795 153.673 210.227 152.82 210.536C151.977 210.845 151.065 211 150.084 211V209.56C151.3 209.56 152.335 209.373 153.188 209C154.041 208.627 154.692 208.083 155.14 207.368C155.588 206.643 155.812 205.773 155.812 204.76H150.532ZM147.844 209.56H150.084V211H147.844V209.56ZM164.116 203.32C164.841 203.32 165.417 203.389 165.844 203.528C166.281 203.656 166.59 203.875 166.772 204.184C166.964 204.483 167.06 204.888 167.06 205.4V211H157.86V209.56H165.78V204.936C165.524 204.872 165.257 204.829 164.98 204.808C164.702 204.776 164.377 204.76 164.004 204.76C163.577 204.76 163.108 204.792 162.596 204.856C162.084 204.92 161.598 205.016 161.14 205.144L160.644 203.96C160.942 203.811 161.284 203.693 161.668 203.608C162.062 203.512 162.473 203.443 162.9 203.4C163.326 203.347 163.732 203.32 164.116 203.32ZM160.676 210.472C160.377 210.131 160.18 209.683 160.084 209.128C159.988 208.563 159.94 207.971 159.94 207.352C159.94 206.744 160.004 206.157 160.132 205.592C160.27 205.027 160.441 204.483 160.644 203.96L161.844 204.328C161.662 204.872 161.513 205.389 161.396 205.88C161.278 206.36 161.22 206.851 161.22 207.352C161.22 207.736 161.236 208.109 161.268 208.472C161.31 208.835 161.38 209.176 161.476 209.496C161.582 209.816 161.726 210.104 161.908 210.36L160.676 210.472Z" fill="black"/>
<defs>
<filter id="filter0_d_481_668" x="0" y="0" width="275" height="275" filterUnits="userSpaceOnUse" color-interpolation-filters="sRGB">
<feFlood flood-opacity="0" result="BackgroundImageFix"/>
<feColorMatrix in="SourceAlpha" type="matrix" values="0 0 0 0 0 0 0 0 0 0 0 0 0 0 0 0 0 0 127 0" result="hardAlpha"/>
<feMorphology radius="8" operator="dilate" in="SourceAlpha" result="effect1_dropShadow_481_668"/>
<feOffset dx="1" dy="1"/>
<feGaussianBlur stdDeviation="9"/>
<feComposite in2="hardAlpha" operator="out"/>
<feColorMatrix type="matrix" values="0 0 0 0 0 0 0 0 0 0 0 0 0 0 0 0 0 0 0.17 0"/>
<feBlend mode="normal" in2="BackgroundImageFix" result="effect1_dropShadow_481_668"/>
<feBlend mode="normal" in="SourceGraphic" in2="effect1_dropShadow_481_668" result="shape"/>
</filter>
</defs>
</svg>
