<svg width="275" height="275" viewBox="0 0 275 275" fill="none" xmlns="http://www.w3.org/2000/svg">
<g filter="url(#filter0_d_481_657)">
<rect x="25" y="25" width="223" height="223" rx="20" fill="white"/>
</g>
<path d="M109.086 84.8588C113.102 84.8588 116.359 81.6025 116.359 77.5856C116.359 73.5688 113.102 70.3125 109.086 70.3125C105.069 70.3125 101.812 73.5688 101.812 77.5856C101.812 81.6025 105.069 84.8588 109.086 84.8588Z" stroke="black" stroke-width="1.875" stroke-linecap="round" stroke-linejoin="round"/>
<path d="M109.086 139.687C113.102 139.687 116.359 136.431 116.359 132.414C116.359 128.397 113.102 125.141 109.086 125.141C105.069 125.141 101.812 128.397 101.812 132.414C101.812 136.431 105.069 139.687 109.086 139.687Z" stroke="black" stroke-width="1.875" stroke-linecap="round" stroke-linejoin="round"/>
<path d="M109.086 112.273C113.102 112.273 116.359 109.017 116.359 105C116.359 100.983 113.102 97.7267 109.086 97.7267C105.069 97.7267 101.812 100.983 101.812 105C101.812 109.017 105.069 112.273 109.086 112.273Z" stroke="black" stroke-width="1.875" stroke-linecap="round" stroke-linejoin="round"/>
<path d="M167.831 70.3125H127.549C125.695 70.3125 124.193 71.8151 124.193 73.6688V81.5025C124.193 83.3561 125.695 84.8588 127.549 84.8588H167.831C169.685 84.8588 171.188 83.3561 171.188 81.5025V73.6688C171.188 71.8151 169.685 70.3125 167.831 70.3125Z" stroke="black" stroke-width="1.875" stroke-linecap="round" stroke-linejoin="round"/>
<path d="M167.831 125.141H127.549C125.695 125.141 124.193 126.644 124.193 128.497V136.331C124.193 138.185 125.695 139.687 127.549 139.687H167.831C169.685 139.687 171.188 138.185 171.188 136.331V128.497C171.188 126.644 169.685 125.141 167.831 125.141Z" stroke="black" stroke-width="1.875" stroke-linecap="round" stroke-linejoin="round"/>
<path d="M167.831 97.7267H127.549C125.695 97.7267 124.193 99.2294 124.193 101.083V108.917C124.193 110.77 125.695 112.273 127.549 112.273H167.831C169.685 112.273 171.188 110.77 171.188 108.917V101.083C171.188 99.2294 169.685 97.7267 167.831 97.7267Z" stroke="black" stroke-width="1.875" stroke-linecap="round" stroke-linejoin="round"/>
<path d="M88.5499 181.56H90.3099V183H88.5499V181.56ZM88.5979 175.48V183H84.6939C84.0113 183 83.4513 182.952 83.0139 182.856C82.5873 182.76 82.2619 182.579 82.0379 182.312C81.8139 182.045 81.6593 181.667 81.5739 181.176C81.4886 180.685 81.4459 180.04 81.4459 179.24C81.4459 178.44 81.4886 177.795 81.5739 177.304C81.6593 176.813 81.8139 176.435 82.0379 176.168C82.2619 175.901 82.5873 175.72 83.0139 175.624C83.4513 175.528 84.0113 175.48 84.6939 175.48H88.5979ZM87.3179 176.92H83.9099C83.5153 176.92 83.2326 176.989 83.0619 177.128C82.8913 177.267 82.8059 177.496 82.8059 177.816V180.664C82.8059 180.984 82.8913 181.213 83.0619 181.352C83.2326 181.491 83.5153 181.56 83.9099 181.56H87.3179V176.92ZM83.8939 173.56C83.7873 173.56 83.6646 173.512 83.5259 173.416C83.3873 173.32 83.2646 173.203 83.1579 173.064C83.0619 172.915 83.0139 172.787 83.0139 172.68C83.0139 172.563 83.0619 172.44 83.1579 172.312C83.2646 172.173 83.3873 172.056 83.5259 171.96C83.6646 171.853 83.7873 171.8 83.8939 171.8C84.0113 171.8 84.1339 171.853 84.2619 171.96C84.4006 172.056 84.5179 172.173 84.6139 172.312C84.7206 172.44 84.7739 172.563 84.7739 172.68C84.7739 172.787 84.7206 172.909 84.6139 173.048C84.5179 173.187 84.4006 173.309 84.2619 173.416C84.1233 173.512 84.0006 173.56 83.8939 173.56ZM86.1979 173.56C86.0913 173.56 85.9686 173.512 85.8299 173.416C85.6913 173.32 85.5686 173.203 85.4619 173.064C85.3659 172.915 85.3179 172.787 85.3179 172.68C85.3179 172.563 85.3659 172.44 85.4619 172.312C85.5686 172.173 85.6913 172.056 85.8299 171.96C85.9686 171.853 86.0913 171.8 86.1979 171.8C86.3153 171.8 86.4379 171.853 86.5659 171.96C86.7046 172.056 86.8219 172.173 86.9179 172.312C87.0246 172.44 87.0779 172.563 87.0779 172.68C87.0779 172.787 87.0246 172.909 86.9179 173.048C86.8219 173.187 86.7046 173.309 86.5659 173.416C86.4273 173.512 86.3046 173.56 86.1979 173.56ZM89.6722 183V181.56H93.7842L95.0162 183H89.6722ZM93.2402 176.92V180.376C93.2295 180.803 93.3469 181.107 93.5922 181.288C93.8482 181.469 94.2269 181.56 94.7282 181.56H98.5042V183H95.0162C94.3869 183 93.8642 182.936 93.4482 182.808C93.0429 182.68 92.7229 182.472 92.4882 182.184C92.2642 181.885 92.1042 181.485 92.0082 180.984C91.9229 180.472 91.8802 179.837 91.8802 179.08C91.8802 178.333 91.9229 177.715 92.0082 177.224C92.0935 176.733 92.2482 176.349 92.4722 176.072C92.7069 175.795 93.0269 175.597 93.4322 175.48C93.8482 175.363 94.3815 175.304 95.0322 175.304C95.3629 175.304 95.7042 175.325 96.0562 175.368C96.4082 175.4 96.7442 175.453 97.0642 175.528C97.3842 175.603 97.6615 175.688 97.8962 175.784L97.6882 177.128C97.2189 177 96.7549 176.904 96.2962 176.84C95.8375 176.776 95.4002 176.744 94.9842 176.744C94.6322 176.744 94.3069 176.76 94.0082 176.792C93.7095 176.813 93.4535 176.856 93.2402 176.92ZM106.889 181.56H109.449V183H106.889V181.56ZM102.985 183C102.526 183 102.147 182.941 101.849 182.824C101.55 182.707 101.315 182.509 101.145 182.232C100.974 181.944 100.851 181.549 100.777 181.048C100.702 180.547 100.665 179.917 100.665 179.16C100.665 178.381 100.713 177.747 100.809 177.256C100.915 176.755 101.091 176.365 101.337 176.088C101.582 175.8 101.923 175.603 102.361 175.496C102.798 175.379 103.353 175.32 104.025 175.32C104.707 175.32 105.299 175.357 105.801 175.432C106.302 175.507 106.825 175.635 107.369 175.816V181.56L106.777 183H102.985ZM105.353 181.56C105.63 181.56 105.822 181.501 105.929 181.384C106.035 181.267 106.089 181.059 106.089 180.76V176.76H102.761C102.473 176.76 102.275 176.819 102.169 176.936C102.073 177.053 102.025 177.288 102.025 177.64V181.56H105.353ZM103.977 187.272L103.177 186.28C103.571 185.971 103.939 185.619 104.281 185.224C104.633 184.829 104.942 184.419 105.209 183.992C105.486 183.565 105.699 183.144 105.849 182.728C106.009 182.301 106.089 181.912 106.089 181.56H107.369C107.369 182.008 107.278 182.493 107.097 183.016C106.926 183.539 106.681 184.061 106.361 184.584C106.051 185.107 105.694 185.597 105.289 186.056C104.883 186.525 104.446 186.931 103.977 187.272ZM112.653 181.56H114.573V183H108.813V181.56H111.373V175.48H112.653V181.56ZM112.013 173.56C111.906 173.56 111.783 173.512 111.645 173.416C111.506 173.32 111.383 173.203 111.277 173.064C111.181 172.915 111.133 172.787 111.133 172.68C111.133 172.563 111.181 172.44 111.277 172.312C111.383 172.173 111.506 172.056 111.645 171.96C111.783 171.853 111.906 171.8 112.013 171.8C112.13 171.8 112.253 171.853 112.381 171.96C112.519 172.056 112.637 172.173 112.733 172.312C112.839 172.44 112.893 172.563 112.893 172.68C112.893 172.787 112.839 172.909 112.733 173.048C112.637 173.187 112.519 173.309 112.381 173.416C112.242 173.512 112.119 173.56 112.013 173.56ZM117.778 181.56H119.698V183H113.938V181.56H116.498V175.48H117.778V181.56ZM115.986 173.56C115.879 173.56 115.756 173.512 115.618 173.416C115.479 173.32 115.356 173.203 115.25 173.064C115.154 172.915 115.106 172.787 115.106 172.68C115.106 172.563 115.154 172.44 115.25 172.312C115.356 172.173 115.479 172.056 115.618 171.96C115.756 171.853 115.879 171.8 115.986 171.8C116.103 171.8 116.226 171.853 116.354 171.96C116.492 172.056 116.61 172.173 116.706 172.312C116.812 172.44 116.866 172.563 116.866 172.68C116.866 172.787 116.812 172.909 116.706 173.048C116.61 173.187 116.492 173.309 116.354 173.416C116.215 173.512 116.092 173.56 115.986 173.56ZM118.29 173.56C118.183 173.56 118.06 173.512 117.922 173.416C117.783 173.32 117.66 173.203 117.554 173.064C117.458 172.915 117.41 172.787 117.41 172.68C117.41 172.563 117.458 172.44 117.554 172.312C117.66 172.173 117.783 172.056 117.922 171.96C118.06 171.853 118.183 171.8 118.29 171.8C118.407 171.8 118.53 171.853 118.658 171.96C118.796 172.056 118.914 172.173 119.01 172.312C119.116 172.44 119.17 172.563 119.17 172.68C119.17 172.787 119.116 172.909 119.01 173.048C118.914 173.187 118.796 173.309 118.658 173.416C118.519 173.512 118.396 173.56 118.29 173.56ZM125.319 175.32C126.044 175.32 126.62 175.389 127.047 175.528C127.484 175.656 127.793 175.875 127.975 176.184C128.167 176.483 128.263 176.888 128.263 177.4V183H119.063V181.56H126.983V176.936C126.727 176.872 126.46 176.829 126.183 176.808C125.905 176.776 125.58 176.76 125.207 176.76C124.78 176.76 124.311 176.792 123.799 176.856C123.287 176.92 122.801 177.016 122.343 177.144L121.847 175.96C122.145 175.811 122.487 175.693 122.871 175.608C123.265 175.512 123.676 175.443 124.103 175.4C124.529 175.347 124.935 175.32 125.319 175.32ZM121.879 182.472C121.58 182.131 121.383 181.683 121.287 181.128C121.191 180.563 121.143 179.971 121.143 179.352C121.143 178.744 121.207 178.157 121.335 177.592C121.473 177.027 121.644 176.483 121.847 175.96L123.047 176.328C122.865 176.872 122.716 177.389 122.599 177.88C122.481 178.36 122.423 178.851 122.423 179.352C122.423 179.736 122.439 180.109 122.471 180.472C122.513 180.835 122.583 181.176 122.679 181.496C122.785 181.816 122.929 182.104 123.111 182.36L121.879 182.472ZM142.269 181.56H144.029V183H142.269V181.56ZM142.317 175.48V183H138.413C137.73 183 137.17 182.952 136.733 182.856C136.306 182.76 135.981 182.579 135.757 182.312C135.533 182.045 135.378 181.667 135.293 181.176C135.207 180.685 135.165 180.04 135.165 179.24C135.165 178.44 135.207 177.795 135.293 177.304C135.378 176.813 135.533 176.435 135.757 176.168C135.981 175.901 136.306 175.72 136.733 175.624C137.17 175.528 137.73 175.48 138.413 175.48H142.317ZM141.037 176.92H137.629C137.234 176.92 136.951 176.989 136.781 177.128C136.61 177.267 136.525 177.496 136.525 177.816V180.664C136.525 180.984 136.61 181.213 136.781 181.352C136.951 181.491 137.234 181.56 137.629 181.56H141.037V176.92ZM137.613 173.56C137.506 173.56 137.383 173.512 137.245 173.416C137.106 173.32 136.983 173.203 136.877 173.064C136.781 172.915 136.733 172.787 136.733 172.68C136.733 172.563 136.781 172.44 136.877 172.312C136.983 172.173 137.106 172.056 137.245 171.96C137.383 171.853 137.506 171.8 137.613 171.8C137.73 171.8 137.853 171.853 137.981 171.96C138.119 172.056 138.237 172.173 138.333 172.312C138.439 172.44 138.493 172.563 138.493 172.68C138.493 172.787 138.439 172.909 138.333 173.048C138.237 173.187 138.119 173.309 137.981 173.416C137.842 173.512 137.719 173.56 137.613 173.56ZM139.917 173.56C139.81 173.56 139.687 173.512 139.549 173.416C139.41 173.32 139.287 173.203 139.181 173.064C139.085 172.915 139.037 172.787 139.037 172.68C139.037 172.563 139.085 172.44 139.181 172.312C139.287 172.173 139.41 172.056 139.549 171.96C139.687 171.853 139.81 171.8 139.917 171.8C140.034 171.8 140.157 171.853 140.285 171.96C140.423 172.056 140.541 172.173 140.637 172.312C140.743 172.44 140.797 172.563 140.797 172.68C140.797 172.787 140.743 172.909 140.637 173.048C140.541 173.187 140.423 173.309 140.285 173.416C140.146 173.512 140.023 173.56 139.917 173.56ZM143.391 183V181.56H147.503L148.735 183H143.391ZM146.959 176.92V180.376C146.948 180.803 147.066 181.107 147.311 181.288C147.567 181.469 147.946 181.56 148.447 181.56H152.223V183H148.735C148.106 183 147.583 182.936 147.167 182.808C146.762 182.68 146.442 182.472 146.207 182.184C145.983 181.885 145.823 181.485 145.727 180.984C145.642 180.472 145.599 179.837 145.599 179.08C145.599 178.333 145.642 177.715 145.727 177.224C145.812 176.733 145.967 176.349 146.191 176.072C146.426 175.795 146.746 175.597 147.151 175.48C147.567 175.363 148.1 175.304 148.751 175.304C149.082 175.304 149.423 175.325 149.775 175.368C150.127 175.4 150.463 175.453 150.783 175.528C151.103 175.603 151.38 175.688 151.615 175.784L151.407 177.128C150.938 177 150.474 176.904 150.015 176.84C149.556 176.776 149.119 176.744 148.703 176.744C148.351 176.744 148.026 176.76 147.727 176.792C147.428 176.813 147.172 176.856 146.959 176.92ZM160.607 181.56H163.167V183H160.607V181.56ZM156.703 183C156.245 183 155.866 182.941 155.567 182.824C155.269 182.707 155.034 182.509 154.863 182.232C154.693 181.944 154.57 181.549 154.495 181.048C154.421 180.547 154.383 179.917 154.383 179.16C154.383 178.381 154.431 177.747 154.527 177.256C154.634 176.755 154.81 176.365 155.055 176.088C155.301 175.8 155.642 175.603 156.079 175.496C156.517 175.379 157.071 175.32 157.743 175.32C158.426 175.32 159.018 175.357 159.519 175.432C160.021 175.507 160.543 175.635 161.087 175.816V181.56L160.495 183H156.703ZM159.071 181.56C159.349 181.56 159.541 181.501 159.647 181.384C159.754 181.267 159.807 181.059 159.807 180.76V176.76H156.479C156.191 176.76 155.994 176.819 155.887 176.936C155.791 177.053 155.743 177.288 155.743 177.64V181.56H159.071ZM157.695 187.272L156.895 186.28C157.29 185.971 157.658 185.619 157.999 185.224C158.351 184.829 158.661 184.419 158.927 183.992C159.205 183.565 159.418 183.144 159.567 182.728C159.727 182.301 159.807 181.912 159.807 181.56H161.087C161.087 182.008 160.997 182.493 160.815 183.016C160.645 183.539 160.399 184.061 160.079 184.584C159.77 185.107 159.413 185.597 159.007 186.056C158.602 186.525 158.165 186.931 157.695 187.272ZM171.732 181.56H173.652V183H171.732V181.56ZM168.788 175.32C169.513 175.32 170.089 175.389 170.516 175.528C170.953 175.656 171.262 175.875 171.444 176.184C171.636 176.483 171.732 176.888 171.732 177.4V183H162.532V181.56H170.452V176.936C170.196 176.872 169.929 176.829 169.652 176.808C169.374 176.776 169.049 176.76 168.676 176.76C168.249 176.76 167.78 176.792 167.268 176.856C166.756 176.92 166.27 177.016 165.812 177.144L165.316 175.96C165.614 175.811 165.956 175.693 166.34 175.608C166.734 175.512 167.145 175.443 167.572 175.4C167.998 175.347 168.404 175.32 168.788 175.32ZM165.348 182.472C165.049 182.131 164.852 181.683 164.756 181.128C164.66 180.563 164.612 179.971 164.612 179.352C164.612 178.744 164.676 178.157 164.804 177.592C164.942 177.027 165.113 176.483 165.316 175.96L166.516 176.328C166.334 176.872 166.185 177.389 166.068 177.88C165.95 178.36 165.892 178.851 165.892 179.352C165.892 179.736 165.908 180.109 165.94 180.472C165.982 180.835 166.052 181.176 166.148 181.496C166.254 181.816 166.398 182.104 166.58 182.36L165.348 182.472ZM181.848 181.56H182.808V183H181.912C181.592 183 181.341 182.931 181.16 182.792C180.979 182.643 180.829 182.413 180.712 182.104L179.608 179.224C179.352 178.605 179.064 178.12 178.744 177.768C178.424 177.405 178.024 177.149 177.544 177C177.075 176.84 176.472 176.76 175.736 176.76C175.533 176.76 175.32 176.765 175.096 176.776C174.883 176.787 174.653 176.803 174.408 176.824L174.2 175.416C174.509 175.384 174.803 175.363 175.08 175.352C175.368 175.331 175.64 175.32 175.896 175.32C176.792 175.32 177.544 175.437 178.152 175.672C178.771 175.896 179.288 176.253 179.704 176.744C180.12 177.235 180.472 177.88 180.76 178.68L181.848 181.56ZM179.672 178.76L180.856 179.272C180.664 179.805 180.419 180.301 180.12 180.76C179.832 181.208 179.485 181.603 179.08 181.944C178.685 182.275 178.227 182.536 177.704 182.728C177.192 182.909 176.605 183 175.944 183H173.016V181.56H176.472C176.899 181.56 177.283 181.475 177.624 181.304C177.976 181.133 178.28 180.909 178.536 180.632C178.803 180.355 179.027 180.056 179.208 179.736C179.4 179.405 179.555 179.08 179.672 178.76ZM177.576 186.04C177.469 186.04 177.347 185.992 177.208 185.896C177.069 185.8 176.947 185.677 176.84 185.528C176.744 185.389 176.696 185.267 176.696 185.16C176.696 185.043 176.744 184.915 176.84 184.776C176.947 184.648 177.069 184.531 177.208 184.424C177.347 184.328 177.469 184.28 177.576 184.28C177.693 184.28 177.816 184.328 177.944 184.424C178.083 184.531 178.2 184.648 178.296 184.776C178.403 184.915 178.456 185.043 178.456 185.16C178.456 185.267 178.403 185.389 178.296 185.528C178.2 185.667 178.083 185.784 177.944 185.88C177.805 185.987 177.683 186.04 177.576 186.04ZM188.428 175.32C189.154 175.32 189.73 175.389 190.156 175.528C190.594 175.656 190.903 175.875 191.084 176.184C191.276 176.483 191.372 176.888 191.372 177.4V183H182.172V181.56H190.092V176.936C189.836 176.872 189.57 176.829 189.292 176.808C189.015 176.776 188.69 176.76 188.316 176.76C187.89 176.76 187.42 176.792 186.908 176.856C186.396 176.92 185.911 177.016 185.452 177.144L184.956 175.96C185.255 175.811 185.596 175.693 185.98 175.608C186.375 175.512 186.786 175.443 187.212 175.4C187.639 175.347 188.044 175.32 188.428 175.32ZM184.988 182.472C184.69 182.131 184.492 181.683 184.396 181.128C184.3 180.563 184.252 179.971 184.252 179.352C184.252 178.744 184.316 178.157 184.444 177.592C184.583 177.027 184.754 176.483 184.956 175.96L186.156 176.328C185.975 176.872 185.826 177.389 185.708 177.88C185.591 178.36 185.532 178.851 185.532 179.352C185.532 179.736 185.548 180.109 185.58 180.472C185.623 180.835 185.692 181.176 185.788 181.496C185.895 181.816 186.039 182.104 186.22 182.36L184.988 182.472ZM99.5084 212C98.9644 212 98.5271 211.893 98.1964 211.68C97.8658 211.467 97.6258 211.12 97.4764 210.64C97.3378 210.149 97.2684 209.504 97.2684 208.704C97.2684 208.224 97.3058 207.723 97.3804 207.2C97.4658 206.667 97.5778 206.219 97.7164 205.856L98.9324 206.064C98.8044 206.491 98.7084 206.907 98.6444 207.312C98.5804 207.717 98.5484 208.096 98.5484 208.448C98.5484 208.885 98.5644 209.275 98.5964 209.616C98.6391 209.947 98.7084 210.261 98.8044 210.56H107.412V204.48H108.692V212H99.5084ZM102.02 204.16C101.914 204.16 101.791 204.112 101.652 204.016C101.514 203.92 101.391 203.803 101.284 203.664C101.188 203.515 101.14 203.387 101.14 203.28C101.14 203.163 101.188 203.04 101.284 202.912C101.391 202.773 101.514 202.656 101.652 202.56C101.791 202.453 101.914 202.4 102.02 202.4C102.138 202.4 102.26 202.453 102.388 202.56C102.527 202.656 102.644 202.773 102.74 202.912C102.847 203.04 102.9 203.163 102.9 203.28C102.9 203.387 102.847 203.509 102.74 203.648C102.644 203.787 102.527 203.909 102.388 204.016C102.25 204.112 102.127 204.16 102.02 204.16ZM104.324 204.16C104.218 204.16 104.095 204.112 103.956 204.016C103.818 203.92 103.695 203.803 103.588 203.664C103.492 203.515 103.444 203.387 103.444 203.28C103.444 203.163 103.492 203.04 103.588 202.912C103.695 202.773 103.818 202.656 103.956 202.56C104.095 202.453 104.218 202.4 104.324 202.4C104.442 202.4 104.564 202.453 104.692 202.56C104.831 202.656 104.948 202.773 105.044 202.912C105.151 203.04 105.204 203.163 105.204 203.28C105.204 203.387 105.151 203.509 105.044 203.648C104.948 203.787 104.831 203.909 104.692 204.016C104.554 204.112 104.431 204.16 104.324 204.16ZM111.889 212V201.92H113.169V210.56H115.089V212H111.889ZM120.709 204.32C121.435 204.32 122.011 204.389 122.437 204.528C122.875 204.656 123.184 204.875 123.365 205.184C123.557 205.483 123.653 205.888 123.653 206.4V212H114.453V210.56H122.373V205.936C122.117 205.872 121.851 205.829 121.573 205.808C121.296 205.776 120.971 205.76 120.597 205.76C120.171 205.76 119.701 205.792 119.189 205.856C118.677 205.92 118.192 206.016 117.733 206.144L117.237 204.96C117.536 204.811 117.877 204.693 118.261 204.608C118.656 204.512 119.067 204.443 119.493 204.4C119.92 204.347 120.325 204.32 120.709 204.32ZM117.269 211.472C116.971 211.131 116.773 210.683 116.677 210.128C116.581 209.563 116.533 208.971 116.533 208.352C116.533 207.744 116.597 207.157 116.725 206.592C116.864 206.027 117.035 205.483 117.237 204.96L118.437 205.328C118.256 205.872 118.107 206.389 117.989 206.88C117.872 207.36 117.813 207.851 117.813 208.352C117.813 208.736 117.829 209.109 117.861 209.472C117.904 209.835 117.973 210.176 118.069 210.496C118.176 210.816 118.32 211.104 118.501 211.36L117.269 211.472ZM132.283 210.56H133.403V212H132.283V210.56ZM125.515 212V210.56H131.067C130.779 209.504 130.513 208.651 130.267 208C130.033 207.349 129.793 206.848 129.547 206.496C129.302 206.144 129.019 205.904 128.699 205.776C128.379 205.648 127.99 205.584 127.531 205.584C127.35 205.584 127.147 205.6 126.923 205.632C126.699 205.653 126.497 205.691 126.315 205.744L125.963 204.336C126.241 204.272 126.518 204.224 126.795 204.192C127.073 204.16 127.318 204.144 127.531 204.144C128.097 204.144 128.577 204.187 128.971 204.272C129.377 204.347 129.729 204.512 130.027 204.768C130.337 205.013 130.619 205.381 130.875 205.872C131.131 206.363 131.393 207.019 131.659 207.84C131.937 208.651 132.251 209.664 132.603 210.88V212H125.515ZM141.598 210.56H142.558V212H141.662C141.342 212 141.091 211.931 140.91 211.792C140.729 211.643 140.579 211.413 140.462 211.104L139.358 208.224C139.102 207.605 138.814 207.12 138.494 206.768C138.174 206.405 137.774 206.149 137.294 206C136.825 205.84 136.222 205.76 135.486 205.76C135.283 205.76 135.07 205.765 134.846 205.776C134.633 205.787 134.403 205.803 134.158 205.824L133.95 204.416C134.259 204.384 134.553 204.363 134.83 204.352C135.118 204.331 135.39 204.32 135.646 204.32C136.542 204.32 137.294 204.437 137.902 204.672C138.521 204.896 139.038 205.253 139.454 205.744C139.87 206.235 140.222 206.88 140.51 207.68L141.598 210.56ZM139.422 207.76L140.606 208.272C140.414 208.805 140.169 209.301 139.87 209.76C139.582 210.208 139.235 210.603 138.83 210.944C138.435 211.275 137.977 211.536 137.454 211.728C136.942 211.909 136.355 212 135.694 212H132.766V210.56H136.222C136.649 210.56 137.033 210.475 137.374 210.304C137.726 210.133 138.03 209.909 138.286 209.632C138.553 209.355 138.777 209.056 138.958 208.736C139.15 208.405 139.305 208.08 139.422 207.76ZM136.91 202.56C136.803 202.56 136.681 202.512 136.542 202.416C136.403 202.32 136.281 202.203 136.174 202.064C136.078 201.915 136.03 201.787 136.03 201.68C136.03 201.563 136.078 201.44 136.174 201.312C136.281 201.173 136.403 201.056 136.542 200.96C136.681 200.853 136.803 200.8 136.91 200.8C137.027 200.8 137.15 200.853 137.278 200.96C137.417 201.056 137.534 201.173 137.63 201.312C137.737 201.44 137.79 201.563 137.79 201.68C137.79 201.787 137.737 201.909 137.63 202.048C137.534 202.187 137.417 202.309 137.278 202.416C137.139 202.512 137.017 202.56 136.91 202.56ZM145.762 212H141.922V210.56H144.482V201.92H145.762V212ZM148.967 212V201.92H150.247V212H148.967ZM164.828 210.56H166.748V212H164.828V210.56ZM158.444 214.4H161.372C162.193 214.4 162.758 214.341 163.068 214.224C163.388 214.117 163.548 213.893 163.548 213.552V204.48H164.828V212.576C164.828 213.237 164.774 213.781 164.668 214.208C164.561 214.635 164.358 214.965 164.06 215.2C163.761 215.435 163.34 215.6 162.796 215.696C162.252 215.792 161.537 215.84 160.652 215.84C159.873 215.84 159.238 215.787 158.748 215.68C158.268 215.573 157.894 215.387 157.628 215.12C157.372 214.864 157.196 214.501 157.1 214.032C157.014 213.573 156.972 212.981 156.972 212.256C156.972 211.808 156.988 211.344 157.02 210.864C157.062 210.373 157.121 209.904 157.196 209.456C157.27 209.008 157.356 208.613 157.452 208.272L158.636 208.48C158.508 209.109 158.412 209.723 158.348 210.32C158.284 210.907 158.252 211.461 158.252 211.984C158.252 212.485 158.262 212.923 158.284 213.296C158.316 213.68 158.369 214.048 158.444 214.4ZM160.972 202.56C160.865 202.56 160.742 202.512 160.604 202.416C160.465 202.32 160.342 202.203 160.236 202.064C160.14 201.915 160.092 201.787 160.092 201.68C160.092 201.563 160.14 201.44 160.236 201.312C160.342 201.173 160.465 201.056 160.604 200.96C160.742 200.853 160.865 200.8 160.972 200.8C161.089 200.8 161.212 200.853 161.34 200.96C161.478 201.056 161.596 201.173 161.692 201.312C161.798 201.44 161.852 201.563 161.852 201.68C161.852 201.787 161.798 201.909 161.692 202.048C161.596 202.187 161.478 202.309 161.34 202.416C161.201 202.512 161.078 202.56 160.972 202.56ZM172.366 204.32C173.091 204.32 173.667 204.389 174.094 204.528C174.531 204.656 174.84 204.875 175.022 205.184C175.214 205.483 175.31 205.888 175.31 206.4V212H166.11V210.56H174.03V205.936C173.774 205.872 173.507 205.829 173.23 205.808C172.952 205.776 172.627 205.76 172.254 205.76C171.827 205.76 171.358 205.792 170.846 205.856C170.334 205.92 169.848 206.016 169.39 206.144L168.894 204.96C169.192 204.811 169.534 204.693 169.918 204.608C170.312 204.512 170.723 204.443 171.15 204.4C171.576 204.347 171.982 204.32 172.366 204.32ZM168.926 211.472C168.627 211.131 168.43 210.683 168.334 210.128C168.238 209.563 168.19 208.971 168.19 208.352C168.19 207.744 168.254 207.157 168.382 206.592C168.52 206.027 168.691 205.483 168.894 204.96L170.094 205.328C169.912 205.872 169.763 206.389 169.646 206.88C169.528 207.36 169.47 207.851 169.47 208.352C169.47 208.736 169.486 209.109 169.518 209.472C169.56 209.835 169.63 210.176 169.726 210.496C169.832 210.816 169.976 211.104 170.158 211.36L168.926 211.472Z" fill="black"/>
<defs>
<filter id="filter0_d_481_657" x="0" y="0" width="275" height="275" filterUnits="userSpaceOnUse" color-interpolation-filters="sRGB">
<feFlood flood-opacity="0" result="BackgroundImageFix"/>
<feColorMatrix in="SourceAlpha" type="matrix" values="0 0 0 0 0 0 0 0 0 0 0 0 0 0 0 0 0 0 127 0" result="hardAlpha"/>
<feMorphology radius="8" operator="dilate" in="SourceAlpha" result="effect1_dropShadow_481_657"/>
<feOffset dx="1" dy="1"/>
<feGaussianBlur stdDeviation="9"/>
<feComposite in2="hardAlpha" operator="out"/>
<feColorMatrix type="matrix" values="0 0 0 0 0 0 0 0 0 0 0 0 0 0 0 0 0 0 0.17 0"/>
<feBlend mode="normal" in2="BackgroundImageFix" result="effect1_dropShadow_481_657"/>
<feBlend mode="normal" in="SourceGraphic" in2="effect1_dropShadow_481_657" result="shape"/>
</filter>
</defs>
</svg>
