<svg width="449" height="459" viewBox="0 0 449 459" fill="none" xmlns="http://www.w3.org/2000/svg">
<path d="M1.40869 198.919C2.08277 194.126 2.60025 189.298 3.49221 184.546C4.25481 180.474 5.44637 176.484 6.42685 172.453C11.1727 153.014 18.322 134.507 28.7396 117.417C35.2353 106.754 41.7242 95.962 49.4795 86.2321C57.085 76.6861 66.0728 68.1885 74.8699 59.657C81.3043 53.42 88.0655 47.401 95.3102 42.1513C103.331 36.3365 111.774 30.9439 120.564 26.3955C130.846 21.0778 141.679 16.829 152.307 12.199C165.469 6.45908 179.434 3.37465 193.529 1.69286C206.057 0.194898 218.803 0.371929 231.454 0.038293C248.456 -0.404285 264.954 3.04102 281.132 7.70511C291.72 10.7555 302.199 14.4459 312.296 18.8445C321.372 22.8004 330.047 27.7982 338.578 32.8776C352.094 40.9325 364.316 50.6897 375.871 61.4205C386.023 70.8508 395.882 80.4922 403.849 91.8018C410.269 100.912 416.179 110.417 421.844 120.025C431.54 136.448 438.009 154.267 442.7 172.664C444.886 181.25 445.832 190.156 447.344 198.913C440.542 198.906 433.74 198.892 426.931 198.885C400.396 198.851 373.869 198.824 347.335 198.797C346.844 195.78 346.273 192.771 345.891 189.734C344.972 182.415 345.728 181.23 352.428 178.574C366.624 172.943 376.266 162.819 381.692 148.636C383.98 142.651 384.716 136.434 383.98 130.102C376.892 130.102 370.036 130.102 363.213 130.102C360.884 151.577 346.633 163.84 327.957 160.681C311.881 157.964 300.898 141.541 304.228 125.914C307.305 111.48 324.675 96.7655 346.368 106.182C350.215 100.919 354.123 95.5807 358.352 89.7932C357.494 89.3166 357.085 89.1055 356.69 88.8672C355.723 88.2816 354.804 87.6143 353.803 87.0969C341.2 80.5603 328.195 79.9611 315.026 84.9657C294.77 92.6597 280.546 110.996 282.235 134.616C283.746 155.785 294.927 170.417 314.529 178.595C320.263 180.985 321.427 183.068 320.549 189.244C320.392 190.367 320.106 191.47 319.97 192.594C318.792 202.099 317.641 211.604 316.422 221.552C315.299 220.558 314.441 219.87 313.672 219.101C303.077 208.534 292.475 197.959 281.901 187.371C266.275 171.718 250.642 156.085 235.117 140.336C233.653 138.844 232.101 136.618 232.046 134.691C231.767 124.035 231.897 113.366 232.026 102.703C232.04 101.722 232.782 100.367 233.606 99.8363C236.908 97.7255 238.406 94.859 238.188 90.9847C238.093 89.2893 238.045 87.5803 238.168 85.8849C238.474 81.5748 241.497 77.8095 245.045 77.1559C248.041 76.6043 250.444 78.2385 252.739 82.5553C254.087 85.095 256.055 86.4841 258.976 86.4704C262.605 86.45 266.241 86.559 269.863 86.45C273.853 86.3274 276.515 83.7401 276.536 79.8045C276.597 67.6643 276.59 55.524 276.495 43.3837C276.468 39.4482 274.098 37.0242 270.183 36.7791C267.242 36.5953 264.259 36.9357 261.345 36.6293C256.484 36.1254 253.529 37.9707 251.554 42.519C249.607 47.0197 244.302 47.6121 240.83 44.1055C240.04 43.3088 239.386 42.3556 238.808 41.3887C236.813 38.066 233.953 36.5612 230.051 36.6497C224.38 36.7723 218.701 36.8812 213.036 36.6361C204.259 36.248 195.987 38.2226 187.932 41.5181C173.871 47.2648 162.609 56.4023 154.527 69.2984C151.361 74.3506 151.756 78.7696 155.297 81.9493C158.415 84.7478 162.344 84.5299 167.09 81.2072C170.154 79.0624 173.061 76.6792 176.207 74.6774C180.857 71.7224 185.8 69.5776 191.547 70.0406C199.861 70.7146 205.002 76.1754 205.022 84.5027C205.029 87.0015 205.036 89.4936 205.008 91.9925C204.967 95.179 206.145 97.6234 208.855 99.489C209.768 100.115 210.578 101.593 210.598 102.696C210.769 114.605 210.721 126.52 210.864 138.429C210.898 141.466 209.958 143.733 207.752 145.898C196.756 156.718 185.93 167.707 174.995 178.588C168.09 185.465 161.105 192.253 154.153 199.083C152.805 199.008 151.456 198.872 150.108 198.865C139.391 198.81 128.667 198.783 117.95 198.742C117.691 191.15 117.65 183.545 117.099 175.973C116.799 171.847 117.895 169.403 122.076 168.354C123.778 167.932 125.358 166.815 126.849 165.808C139.255 157.44 144.804 145.66 144.477 130.79C144.11 113.829 137.573 100.095 123.805 89.9906C122.716 89.1872 121.388 88.7038 119.652 87.805C119.55 89.8613 119.427 91.1822 119.434 92.5031C119.461 101.913 119.536 111.33 119.543 120.74C119.55 126.364 117.637 128.216 111.951 128.223C106.62 128.229 101.288 128.229 95.957 128.161C91.2521 128.1 89.189 125.996 89.1686 121.237C89.1413 111.486 89.1686 101.729 89.1686 91.9788C89.1686 90.8962 89.1686 89.8068 89.1686 87.8867C87.085 89.0646 85.5599 89.7251 84.273 90.692C72.2621 99.7001 65.5962 111.765 64.2003 126.657C62.3075 146.927 71.874 163.241 88.6443 169.668C90.9661 170.56 91.218 172.263 91.1636 174.278C90.9457 182.435 90.7142 190.599 90.4963 198.756C89.1345 198.783 87.7796 198.838 86.4178 198.838C58.0791 198.879 29.7473 198.899 1.40869 198.919ZM313.842 131.75C313.821 141.806 322.142 150.78 331.559 150.862C343.678 150.971 352.605 143.127 352.714 132.281C352.816 121.775 344.196 113.25 333.431 113.209C322.421 113.168 313.862 121.271 313.842 131.75ZM189.818 120.352C189.838 119.814 189.852 119.283 189.872 118.745C188.292 117.553 186.808 115.538 185.113 115.333C181.613 114.918 179.768 113.638 179.318 110.056C179.026 107.735 177.909 105.522 175.151 105.481C172.258 105.433 170.916 107.741 170.576 110.111C170.092 113.447 168.731 114.911 165.238 115.367C163.787 115.558 162.133 118.016 161.629 119.752C161.425 120.454 164.053 122.953 165.374 122.939C169.078 122.905 170.44 124.505 170.726 127.882C170.957 130.626 172.312 132.791 175.274 132.839C178.236 132.887 179.312 130.374 179.598 128.012C179.999 124.709 181.388 123.354 184.772 123.109C186.509 122.98 188.136 121.318 189.818 120.352Z" fill="#FDFDFD"/>
<path d="M426.883 324.789C421.967 333.94 417.677 343.493 412.019 352.16C389.802 386.205 360.571 412.862 325.076 432.621C299.08 447.097 271.218 455.669 241.552 458.114C199.943 461.532 160.914 452.598 124.371 432.744C91.1772 414.707 63.4105 390.324 41.731 359.378C34.5544 349.13 28.8622 337.835 22.5299 327.002C22.1486 326.348 22.0533 325.524 21.8218 324.775C28.4264 324.721 35.031 324.666 41.6357 324.605C59.9856 324.659 78.3356 324.727 96.6924 324.761C107.798 324.782 107.784 324.748 115.716 316.829C125.167 307.399 134.645 297.996 144.116 288.586C145.485 289.342 147.473 289.784 148.066 290.935C148.903 292.583 148.815 294.748 148.815 296.695C148.815 296.933 146.479 297.71 145.975 297.301C144.899 296.436 144.314 294.959 143.504 293.706C139.657 294.816 138.254 295.987 138.288 298.574C138.315 300.855 137.205 302.258 135.98 304.11C134.073 306.997 131.976 308.257 128.803 308.638C128.245 308.706 127.857 309.952 127.332 310.606C124.704 313.922 122.913 318.211 117.711 318.47C116.894 318.511 115.696 319.273 115.41 319.988C114.525 322.229 114.001 324.618 113.333 326.94C112.693 329.167 111.563 330.774 108.955 330.985C108.329 331.039 107.77 331.992 107.185 332.53C107.798 333.109 108.336 333.804 109.044 334.219C109.466 334.471 110.167 334.376 110.712 334.28C114.559 333.579 116.023 335.662 116.445 339.06C116.554 339.952 116.99 340.83 116.963 341.702C116.874 344.895 118.712 345.311 121.361 345.236C125.855 345.106 126.461 345.924 126.699 350.533C126.829 352.991 127.312 355.422 127.598 357.873C127.836 359.929 127.911 362.006 128.245 364.035C128.408 365.002 128.851 366.588 129.436 366.718C133.249 367.576 136.477 370.327 140.787 369.768C143.129 369.469 144.498 369.469 144.47 366.493C144.436 363.3 142.687 360.862 141.869 358.071C140.242 352.48 139.337 346.666 138.363 340.899C138.24 340.177 139.459 339.224 140.058 338.379C140.964 343.152 141.461 348.048 142.829 352.685C153.172 387.744 185.501 411.064 221.445 412.201C247.319 413.018 269.672 403.826 287.403 384.775C302.634 368.4 309.573 348.722 308.422 326.334C308.32 324.373 307.496 322.051 306.202 320.635C301.395 315.365 296.241 310.401 291.223 305.315C281.52 295.483 271.817 285.651 262.115 275.819C263.796 274.498 265.294 274.723 266.316 276.568C268.726 280.926 272.43 282.941 277.312 283.288C278.156 283.35 279.287 284.337 279.675 285.181C281.35 288.824 283.985 291.371 287.709 292.719C289.568 293.393 290.848 294.196 290.875 296.498C290.882 297.315 291.869 298.459 292.693 298.854C294.518 299.718 296.506 300.651 298.454 300.733C301.906 300.869 302.28 302.714 301.851 305.397C301.388 308.284 302.668 309.414 305.48 309.026C306.114 308.938 306.747 308.863 307.884 308.713C307.7 311.191 307.625 313.397 307.36 315.583C307.135 317.469 310.042 320.281 311.751 319.587C314.482 318.477 317.621 317.837 318.288 314.112C318.417 313.384 319.445 312.832 320.031 312.172C321.243 310.803 322.428 309.421 323.626 308.039C328.61 312.962 333.506 317.987 338.647 322.739C339.886 323.883 341.949 324.707 343.637 324.714C363.206 324.836 382.775 324.775 402.351 324.741C403.923 324.741 405.503 324.591 407.076 324.509C413.681 324.618 420.278 324.707 426.883 324.789Z" fill="#303E42"/>
<path d="M426.883 324.789C420.285 324.7 413.68 324.612 407.083 324.523C407.92 317.163 406.136 310.626 400.798 305.336C398.081 302.646 395.147 300.174 392.314 297.601C391.306 296.266 390.435 294.802 389.271 293.624C379.241 283.465 369.613 272.837 358.93 263.42C351.216 256.625 348.751 249.149 349.01 239.146C349.35 225.712 347.981 212.231 347.348 198.776C373.882 198.804 400.41 198.838 426.944 198.865C433.746 198.872 440.548 198.885 447.357 198.892C447.827 211.332 448.699 223.772 448.678 236.212C448.644 257.21 444.314 277.562 437.798 297.424C435.013 305.908 431.479 314.153 428.245 322.487C427.925 323.318 427.339 324.033 426.883 324.789ZM397.101 236.164C397.101 232.474 394.52 231.752 391.817 231.663C389.345 231.582 388.379 230.39 388.052 228.211C387.916 227.319 387.963 226.182 387.432 225.61C386.213 224.289 384.77 222.485 383.285 222.349C382.182 222.247 380.167 224.269 379.779 225.678C378.744 229.43 377.239 231.956 372.861 232.099C370.614 232.174 369.137 233.856 369.212 236.246C369.293 238.711 371.118 240.113 373.249 240.031C376.817 239.895 378.329 241.591 379.173 244.716C379.786 246.97 381.168 249.557 383.64 248.931C385.349 248.495 387.269 246.112 387.752 244.253C388.494 241.393 389.754 240.277 392.573 240.161C395.044 240.038 396.931 238.901 397.101 236.164Z" fill="#AFBDAF"/>
<path d="M41.6357 324.612C35.0311 324.666 28.4265 324.72 21.8218 324.782C19.609 319.845 17.0965 315.018 15.2444 309.952C9.04154 292.923 4.36383 275.513 1.91263 257.483C0.15593 244.518 -0.204942 231.548 0.0946497 218.529C0.244445 211.986 0.952571 205.456 1.40196 198.919C29.7406 198.899 58.0724 198.878 86.411 198.851C87.7728 198.851 89.1278 198.797 90.4896 198.77C90.4759 218.495 90.4147 238.213 90.5032 257.939C90.5168 260.778 89.6385 262.834 87.6571 264.823C77.8114 274.689 68.0543 284.643 58.3448 294.639C57.3234 295.687 56.8196 297.24 56.0706 298.561C52.5981 301.727 48.7238 304.566 45.7483 308.148C41.8809 312.812 40.1105 318.402 41.6357 324.612Z" fill="#AFBDAF"/>
<path d="M56.0771 298.554C56.8193 297.233 57.33 295.687 58.3513 294.632C68.0608 284.636 77.818 274.682 87.6636 264.816C89.645 262.828 90.5234 260.771 90.5097 257.932C90.4212 238.207 90.4825 218.488 90.4961 198.763C90.7208 190.606 90.9455 182.442 91.1634 174.285C91.2179 172.276 90.9659 170.567 88.6441 169.675C71.867 163.247 62.3073 146.933 64.2002 126.663C65.5892 111.772 72.2619 99.7069 84.2728 90.6987C85.5597 89.7318 87.0849 89.0782 89.1684 87.8934C89.1684 89.8135 89.1684 90.8961 89.1684 91.9856C89.1616 101.736 89.1343 111.493 89.1684 121.243C89.182 126.003 91.2519 128.107 95.9569 128.168C101.288 128.236 106.62 128.236 111.951 128.229C117.636 128.223 119.55 126.364 119.543 120.746C119.536 111.336 119.461 101.92 119.434 92.5099C119.427 91.1889 119.55 89.8612 119.652 87.8117C121.388 88.7105 122.716 89.1939 123.805 89.9974C137.58 100.095 144.109 113.829 144.477 130.796C144.804 145.66 139.255 157.439 126.849 165.814C125.351 166.822 123.771 167.939 122.076 168.361C117.895 169.403 116.799 171.854 117.098 175.98C117.657 183.552 117.698 191.157 117.95 198.749C118.181 210.283 118.406 221.824 118.637 233.359C118.991 233.454 119.352 233.549 119.706 233.645C123.894 229.382 128.054 225.086 132.282 220.858C139.554 213.579 146.86 206.348 154.153 199.096C161.104 192.267 168.09 185.472 174.995 178.602C185.93 167.721 196.756 156.731 207.752 145.912C209.951 143.747 210.898 141.479 210.864 138.443C210.721 126.534 210.768 114.618 210.598 102.71C210.585 101.607 209.768 100.136 208.855 99.5026C206.152 97.637 204.967 95.1926 205.008 92.006C205.042 89.5071 205.029 87.0151 205.022 84.5162C205.001 76.1821 199.861 70.7214 191.547 70.0541C185.807 69.5911 180.857 71.7359 176.207 74.691C173.054 76.6928 170.153 79.0759 167.089 81.2207C162.344 84.5366 158.408 84.7545 155.296 81.9629C151.756 78.7831 151.361 74.3641 154.527 69.3119C162.609 56.4023 173.871 47.2647 187.931 41.518C195.986 38.2293 204.259 36.2479 213.063 36.6361C218.728 36.8812 224.407 36.7722 230.079 36.6497C233.98 36.5611 236.84 38.0727 238.835 41.3887C239.414 42.3555 240.067 43.3088 240.857 44.1054C244.33 47.612 249.634 47.0196 251.581 42.5189C253.549 37.9706 256.504 36.1186 261.372 36.6292C264.293 36.9356 267.276 36.5884 270.21 36.779C274.125 37.0242 276.495 39.4481 276.522 43.3837C276.611 55.5239 276.624 67.6642 276.563 79.8045C276.542 83.74 273.88 86.3274 269.89 86.4499C266.261 86.5589 262.632 86.4499 259.003 86.4704C256.082 86.484 254.114 85.095 252.766 82.5552C250.471 78.2384 248.074 76.6111 245.072 77.1558C241.524 77.8094 238.508 81.568 238.195 85.8848C238.072 87.5734 238.12 89.2892 238.215 90.9847C238.426 94.8589 236.935 97.7255 233.633 99.8362C232.809 100.361 232.067 101.715 232.053 102.703C231.924 113.366 231.794 124.035 232.074 134.691C232.121 136.618 233.674 138.844 235.144 140.336C250.669 156.085 266.309 171.725 281.928 187.371C292.502 197.966 303.097 208.533 313.699 219.101C314.468 219.87 315.326 220.551 316.449 221.552C317.661 211.604 318.819 202.099 319.997 192.594C320.133 191.47 320.419 190.367 320.576 189.244C321.454 183.068 320.29 180.985 314.556 178.595C294.954 170.424 283.773 155.785 282.262 134.616C280.573 110.996 294.797 92.6665 315.054 84.9656C328.222 79.9611 341.227 80.5602 353.83 87.0968C354.831 87.6143 355.75 88.2815 356.717 88.8671C357.112 89.1054 357.521 89.3165 358.379 89.7931C354.143 95.5807 350.242 100.919 346.395 106.182C324.702 96.7654 307.332 111.479 304.255 125.914C300.918 141.541 311.908 157.964 327.984 160.681C346.66 163.833 360.911 151.57 363.24 130.102C370.063 130.102 376.919 130.102 384.007 130.102C384.743 136.434 384.007 142.651 381.719 148.636C376.293 162.819 366.651 172.943 352.455 178.574C345.762 181.23 345.006 182.408 345.918 189.734C346.3 192.764 346.872 195.774 347.362 198.797C347.995 212.258 349.364 225.733 349.023 239.167C348.771 249.169 351.229 256.645 358.944 263.44C369.634 272.857 379.255 283.486 389.284 293.645C390.448 294.823 391.32 296.287 392.328 297.621C389.059 309.074 378.649 312.076 369.886 304.008C366.971 301.325 364.343 298.329 361.531 295.538C326.057 260.301 290.555 225.086 255.094 189.843C244.888 179.698 234.763 169.471 224.836 159.509C218.095 166.107 211.511 172.501 204.988 178.962C173.013 210.61 141.052 242.278 109.098 273.947C100.246 282.723 91.4358 291.541 82.6046 300.338C81.5629 301.38 80.5551 302.455 79.4725 303.456C70.2056 311.974 60.9932 310.047 56.0771 298.554Z" fill="#313E43"/>
<path d="M313.842 131.75C313.862 121.271 322.421 113.168 333.431 113.209C344.203 113.25 352.823 121.774 352.714 132.281C352.605 143.127 343.678 150.971 331.559 150.862C322.142 150.78 313.828 141.806 313.842 131.75Z" fill="#EDBF4C"/>
<path d="M154.153 199.09C146.86 206.341 139.554 213.579 132.282 220.851C128.054 225.079 123.894 229.376 119.706 233.638C119.352 233.543 118.991 233.447 118.637 233.352C118.406 221.818 118.181 210.277 117.95 198.742C128.667 198.783 139.391 198.811 150.108 198.865C151.456 198.879 152.804 199.008 154.153 199.09Z" fill="#AFBDB0"/>
<path d="M189.818 120.351C188.136 121.318 186.509 122.98 184.766 123.109C181.382 123.354 179.992 124.716 179.591 128.011C179.305 130.367 178.229 132.887 175.267 132.839C172.305 132.791 170.943 130.626 170.719 127.882C170.44 124.505 169.071 122.912 165.367 122.939C164.046 122.952 161.418 120.454 161.622 119.752C162.133 118.016 163.781 115.558 165.231 115.367C168.724 114.911 170.086 113.447 170.569 110.111C170.916 107.741 172.258 105.44 175.145 105.481C177.902 105.522 179.019 107.735 179.312 110.056C179.761 113.631 181.606 114.911 185.106 115.333C186.801 115.538 188.286 117.553 189.865 118.744C189.859 119.276 189.838 119.813 189.818 120.351Z" fill="#354144"/>
<path d="M262.121 275.846C271.824 285.678 281.527 295.51 291.229 305.342C296.248 310.422 301.395 315.386 306.209 320.662C307.503 322.079 308.327 324.407 308.429 326.361C309.579 348.742 302.641 368.427 287.41 384.802C269.679 403.854 247.332 413.046 221.452 412.228C185.515 411.091 153.186 387.764 142.836 352.712C141.468 348.075 140.964 343.179 140.065 338.406C139.929 336.588 139.786 334.777 139.65 332.959C139.677 331.638 139.582 330.297 139.759 328.997C140.099 326.464 140.596 323.944 141.032 321.418L141.012 321.439C143.068 319.43 145.124 317.421 147.174 315.42C150.313 312.267 153.458 309.115 156.597 305.962C156.917 305.628 157.23 305.295 157.55 304.954C158.224 304.355 158.933 303.79 159.566 303.157C180.53 282.158 201.495 261.159 222.412 240.12C223.638 238.888 224.604 237.9 226.109 239.596C226.45 239.909 226.79 240.215 227.137 240.529C227.927 241.359 228.724 242.19 229.514 243.021C231.332 244.859 233.143 246.691 234.961 248.529C235.859 249.435 236.765 250.34 237.664 251.246C240.701 254.31 243.737 257.374 246.774 260.438L246.863 260.54C249.239 262.896 251.608 265.258 253.985 267.614C254.659 268.316 255.34 269.024 256.014 269.725C256.524 270.27 257.042 270.808 257.553 271.352L257.75 271.536C258.145 271.931 258.54 272.326 258.935 272.721L259.098 272.884C259.779 273.599 260.46 274.307 261.148 275.022C261.468 275.281 261.795 275.56 262.121 275.846ZM192.718 292.719C192.112 293.774 190.996 294.823 190.975 295.892C190.819 302.925 190.928 309.959 190.894 316.992C190.887 319.199 191.881 320.547 194.06 320.581C201.318 320.683 208.583 320.751 215.835 320.553C216.767 320.526 218.408 318.878 218.436 317.952C218.64 310.129 218.592 302.299 218.463 294.475C218.449 293.726 217.339 292.358 216.733 292.358C209.148 292.31 201.563 292.46 193.978 292.562C193.556 292.61 193.14 292.664 192.718 292.719ZM230.235 306.439C230.229 306.439 230.229 306.439 230.222 306.439C230.222 310.061 230.276 313.683 230.201 317.299C230.154 319.621 231.27 320.622 233.47 320.635C240.483 320.662 247.496 320.676 254.516 320.703C256.736 320.71 257.948 319.587 257.954 317.421C257.988 310.068 258.05 302.707 257.798 295.367C257.764 294.305 256.061 292.433 255.081 292.399C247.734 292.16 240.381 292.283 233.027 292.303C231.093 292.31 230.167 293.202 230.215 295.238C230.297 298.969 230.235 302.701 230.235 306.439ZM218.585 345.542C218.572 345.542 218.558 345.542 218.544 345.542C218.544 341.92 218.436 338.297 218.585 334.682C218.681 332.394 218.088 331.489 215.569 331.55C208.556 331.72 201.543 331.693 194.529 331.55C191.779 331.495 190.887 332.803 190.873 335.206C190.825 342.104 190.798 349.008 190.757 355.905C190.744 358.52 192.044 359.984 194.645 360.011C201.543 360.072 208.447 360.052 215.344 360.038C217.748 360.031 218.721 358.847 218.619 356.402C218.476 352.787 218.585 349.164 218.585 345.542ZM230.249 345.488C230.269 345.488 230.29 345.488 230.31 345.488C230.31 348.776 230.542 352.085 230.249 355.347C229.943 358.785 231.332 360.093 234.613 360.066C240.966 360.018 247.319 360.059 253.665 360.079C256.599 360.086 258.009 358.731 257.975 355.715C257.9 348.913 257.9 342.104 257.934 335.302C257.948 332.796 256.981 331.523 254.318 331.557C247.285 331.638 240.251 331.659 233.224 331.584C230.991 331.557 230.181 332.455 230.229 334.607C230.303 338.223 230.249 341.859 230.249 345.488Z" fill="#FDFDFD"/>
<path d="M56.0772 298.554C61 310.041 70.2056 311.974 79.4385 303.436C80.5211 302.435 81.5288 301.359 82.5706 300.317C91.4017 291.52 100.212 282.703 109.064 273.926C141.018 242.258 172.979 210.59 204.954 178.942C211.477 172.487 218.068 166.094 224.802 159.489C234.729 169.444 244.854 179.677 255.06 189.823C290.528 225.066 326.023 260.281 361.497 295.517C364.309 298.316 366.937 301.305 369.852 303.987C378.615 312.056 389.025 309.053 392.294 297.601C395.126 300.174 398.061 302.639 400.778 305.336C406.123 310.626 407.907 317.169 407.062 324.523C405.489 324.605 403.91 324.755 402.337 324.755C382.768 324.789 363.192 324.843 343.624 324.727C341.935 324.714 339.872 323.897 338.633 322.753C333.492 318 328.596 312.975 323.612 308.052C323.088 307.528 322.564 307.004 322.039 306.486C319.541 303.96 317.035 301.441 314.536 298.915C313.556 297.825 312.623 296.695 311.588 295.653C288.798 272.653 265.961 249.666 243.152 226.652C231.304 214.702 217.223 214.757 205.362 226.836C198.615 233.706 191.847 240.556 185.065 247.392C171.427 261.132 157.768 274.859 144.116 288.593C134.652 298.009 125.167 307.406 115.716 316.836C107.784 324.755 107.798 324.789 96.6923 324.768C78.3423 324.734 59.9923 324.666 41.6355 324.612C40.1103 318.395 41.8806 312.805 45.7549 308.141C48.7304 304.566 52.6046 301.727 56.0772 298.554Z" fill="#FCFDFC"/>
<path d="M322.06 306.486C322.585 307.011 323.109 307.535 323.633 308.052C322.435 309.428 321.243 310.817 320.038 312.185C319.452 312.846 318.424 313.397 318.295 314.126C317.628 317.85 314.489 318.49 311.758 319.6C310.049 320.295 307.135 317.483 307.367 315.597C307.632 313.411 307.714 311.205 307.891 308.726C306.754 308.876 306.121 308.951 305.487 309.04C302.675 309.428 301.395 308.304 301.858 305.41C302.287 302.728 301.913 300.889 298.461 300.746C296.506 300.665 294.518 299.732 292.7 298.867C291.876 298.479 290.889 297.328 290.882 296.511C290.862 294.21 289.582 293.406 287.716 292.732C283.992 291.377 281.357 288.838 279.682 285.195C279.294 284.351 278.17 283.363 277.319 283.302C272.437 282.955 268.726 280.939 266.323 276.582C265.301 274.736 263.803 274.505 262.122 275.833C261.795 275.547 261.468 275.267 261.148 274.982C261.495 273.286 261.189 272.21 259.098 272.844L258.935 272.68C258.54 272.285 258.145 271.89 257.75 271.495L257.553 271.312C257.451 270.433 257.349 269.555 257.246 268.67C256.838 269.01 256.423 269.344 256.014 269.684C255.34 268.983 254.659 268.275 253.985 267.573C253.794 266.457 253.835 265.218 253.338 264.257C252.814 263.25 251.908 262.256 250.921 261.718C249.702 261.057 248.225 260.88 246.863 260.499L246.774 260.397C246.931 259.233 243.227 250.558 242.376 250.64C240.817 250.783 238.753 247.637 237.664 251.205C236.765 250.299 235.86 249.394 234.961 248.488C235.621 245.227 232.591 242.163 229.514 242.98C228.724 242.149 227.927 241.318 227.137 240.488C227.287 240.065 227.437 239.637 227.587 239.214C227.097 239.33 226.606 239.446 226.116 239.555C224.611 237.866 223.644 238.847 222.419 240.079C201.495 261.119 180.531 282.117 159.573 303.116C158.94 303.756 158.231 304.314 157.557 304.913C156.985 304.607 156.413 304.307 155.841 304.001C156.093 304.641 156.352 305.281 156.604 305.914C153.465 309.067 150.319 312.219 147.181 315.372C146.329 315.134 145.22 314.425 144.668 314.725C142.115 316.121 141.087 318.531 141.019 321.391L141.039 321.371C138.969 321.193 138.2 322.242 138.247 324.203C138.302 326.341 138.138 328.499 138.322 330.624C138.39 331.42 139.187 332.149 139.657 332.912C139.793 334.73 139.936 336.541 140.072 338.359C139.473 339.203 138.254 340.156 138.377 340.878C139.357 346.638 140.256 352.453 141.883 358.05C142.7 360.849 144.45 363.279 144.484 366.473C144.511 369.448 143.15 369.448 140.801 369.748C136.491 370.306 133.263 367.555 129.45 366.697C128.865 366.568 128.422 364.982 128.259 364.015C127.918 361.979 127.843 359.902 127.612 357.853C127.333 355.401 126.842 352.971 126.713 350.513C126.475 345.903 125.862 345.086 121.375 345.215C118.733 345.29 116.895 344.875 116.976 341.681C116.997 340.81 116.568 339.932 116.459 339.04C116.037 335.642 114.573 333.558 110.726 334.26C110.181 334.362 109.48 334.45 109.058 334.198C108.349 333.783 107.812 333.089 107.199 332.51C107.784 331.972 108.343 331.019 108.969 330.964C111.577 330.753 112.707 329.146 113.347 326.92C114.014 324.591 114.539 322.208 115.424 319.968C115.71 319.246 116.908 318.49 117.725 318.45C122.927 318.191 124.725 313.901 127.346 310.585C127.871 309.925 128.259 308.686 128.817 308.617C131.99 308.229 134.087 306.977 135.994 304.09C137.219 302.238 138.329 300.835 138.302 298.554C138.268 295.973 139.67 294.802 143.517 293.686C144.321 294.938 144.906 296.416 145.989 297.281C146.493 297.689 148.828 296.913 148.828 296.675C148.828 294.727 148.917 292.562 148.079 290.914C147.494 289.764 145.499 289.321 144.13 288.565C157.782 274.832 171.441 261.105 185.079 247.365C191.861 240.528 198.629 233.679 205.376 226.809C217.237 214.73 231.318 214.675 243.166 226.625C265.975 249.639 288.812 272.619 311.629 295.626C312.657 296.668 313.597 297.798 314.577 298.888C313.992 299.037 313.413 299.194 312.221 299.5C315.789 301.679 315.088 304.444 314.319 306.268C316.198 306.568 317.839 306.942 319.487 307.045C320.324 307.119 321.202 306.697 322.06 306.486Z" fill="#2F3D44"/>
<path d="M397.101 236.164C396.931 238.901 395.045 240.038 392.58 240.14C389.761 240.263 388.501 241.373 387.759 244.233C387.276 246.091 385.356 248.474 383.647 248.91C381.175 249.537 379.793 246.956 379.18 244.696C378.336 241.57 376.817 239.875 373.256 240.011C371.125 240.093 369.293 238.697 369.219 236.225C369.144 233.835 370.621 232.154 372.868 232.079C377.246 231.936 378.758 229.41 379.786 225.658C380.174 224.248 382.189 222.226 383.293 222.328C384.784 222.464 386.227 224.269 387.439 225.59C387.97 226.162 387.923 227.299 388.059 228.191C388.386 230.37 389.352 231.561 391.824 231.643C394.514 231.752 397.101 232.474 397.101 236.164Z" fill="#313E42"/>
<path d="M230.235 306.439C230.235 302.707 230.297 298.969 230.215 295.238C230.167 293.202 231.093 292.31 233.027 292.303C240.38 292.283 247.741 292.16 255.081 292.399C256.061 292.433 257.757 294.298 257.798 295.367C258.056 302.714 257.988 310.068 257.954 317.421C257.947 319.587 256.735 320.717 254.516 320.703C247.503 320.669 240.489 320.662 233.469 320.635C231.27 320.628 230.154 319.621 230.201 317.299C230.276 313.683 230.222 310.061 230.222 306.439C230.228 306.439 230.228 306.439 230.235 306.439Z" fill="#344046"/>
<path d="M218.585 345.542C218.585 349.164 218.476 352.787 218.626 356.402C218.728 358.853 217.755 360.038 215.351 360.038C208.454 360.052 201.55 360.072 194.652 360.011C192.044 359.991 190.751 358.52 190.764 355.905C190.805 349.008 190.832 342.104 190.88 335.206C190.894 332.803 191.786 331.495 194.536 331.55C201.55 331.693 208.57 331.72 215.576 331.55C218.088 331.488 218.681 332.394 218.592 334.682C218.442 338.297 218.551 341.92 218.551 345.542C218.558 345.542 218.572 345.542 218.585 345.542Z" fill="#344146"/>
<path d="M230.249 345.488C230.249 341.859 230.31 338.229 230.228 334.6C230.181 332.449 230.991 331.557 233.224 331.577C240.258 331.659 247.292 331.632 254.318 331.55C256.981 331.523 257.948 332.789 257.934 335.295C257.9 342.097 257.893 348.906 257.975 355.708C258.009 358.724 256.599 360.079 253.665 360.072C247.312 360.052 240.959 360.011 234.613 360.059C231.332 360.086 229.943 358.779 230.249 355.34C230.542 352.079 230.31 348.77 230.31 345.481C230.29 345.488 230.269 345.488 230.249 345.488Z" fill="#334046"/>
<path d="M192.719 292.719C193.141 292.664 193.563 292.61 193.978 292.555C195.122 292.855 196.259 293.4 197.41 293.42C202.612 293.515 207.821 293.495 213.029 293.447C215.406 293.427 217.142 294.271 217.183 296.804C217.292 303.368 217.271 309.932 217.149 316.495C217.135 317.21 216.189 318.497 215.624 318.524C209.094 318.892 202.557 319.178 196.021 319.185C194.931 319.185 193.127 317.946 192.882 316.972C192.242 314.385 192.051 311.627 192.085 308.938C192.153 303.531 192.494 298.125 192.719 292.719Z" fill="#333F45"/>
<path d="M192.718 292.719C192.493 298.125 192.153 303.531 192.085 308.938C192.051 311.62 192.241 314.385 192.882 316.972C193.12 317.946 194.924 319.185 196.02 319.185C202.557 319.178 209.094 318.892 215.623 318.524C216.188 318.49 217.135 317.21 217.148 316.495C217.264 309.932 217.291 303.368 217.182 296.804C217.142 294.271 215.405 293.427 213.029 293.447C207.82 293.495 202.618 293.515 197.409 293.42C196.259 293.4 195.122 292.862 193.978 292.555C201.563 292.453 209.148 292.303 216.733 292.351C217.339 292.358 218.449 293.72 218.463 294.469C218.592 302.292 218.64 310.122 218.435 317.946C218.408 318.872 216.767 320.519 215.834 320.547C208.583 320.744 201.318 320.676 194.059 320.574C191.881 320.547 190.88 319.192 190.893 316.986C190.927 309.952 190.818 302.918 190.975 295.885C190.995 294.823 192.112 293.781 192.718 292.719Z" fill="#363D41"/>
<path d="M237.657 251.225C238.747 247.657 240.81 250.803 242.369 250.66C243.227 250.578 246.931 259.253 246.768 260.417C243.731 257.353 240.694 254.289 237.657 251.225Z" fill="#303E42"/>
<path d="M246.856 260.519C248.218 260.908 249.702 261.085 250.914 261.738C251.901 262.276 252.807 263.27 253.331 264.278C253.828 265.238 253.781 266.477 253.978 267.594C251.609 265.231 249.232 262.875 246.856 260.519Z" fill="#303E42"/>
<path d="M141.005 321.432C141.073 318.579 142.101 316.162 144.654 314.766C145.213 314.46 146.316 315.168 147.167 315.413C145.117 317.415 143.061 319.423 141.005 321.432Z" fill="#303E42"/>
<path d="M139.643 332.952C139.18 332.19 138.383 331.461 138.308 330.665C138.118 328.54 138.288 326.389 138.234 324.244C138.186 322.283 138.955 321.234 141.025 321.411C140.589 323.937 140.092 326.45 139.752 328.99C139.575 330.29 139.67 331.625 139.643 332.952Z" fill="#303E42"/>
<path d="M229.507 243C232.584 242.183 235.614 245.247 234.954 248.509C233.143 246.67 231.325 244.839 229.507 243Z" fill="#303E42"/>
<path d="M256.014 269.705C256.422 269.364 256.838 269.031 257.246 268.69C257.348 269.569 257.45 270.447 257.552 271.332C257.042 270.787 256.524 270.249 256.014 269.705Z" fill="#303E42"/>
<path d="M156.597 305.948C156.345 305.308 156.086 304.668 155.834 304.035C156.406 304.342 156.978 304.641 157.55 304.948C157.23 305.281 156.917 305.615 156.597 305.948Z" fill="#384146"/>
<path d="M259.098 272.864C261.188 272.224 261.488 273.3 261.148 275.002C260.46 274.287 259.779 273.572 259.098 272.864Z" fill="#303E42"/>
<path d="M226.109 239.582C226.6 239.466 227.09 239.351 227.58 239.242C227.43 239.664 227.281 240.093 227.131 240.515C226.797 240.202 226.45 239.889 226.109 239.582Z" fill="#303E42"/>
<path d="M322.06 306.486C321.195 306.697 320.324 307.119 319.473 307.065C317.818 306.963 316.184 306.588 314.305 306.289C315.074 304.464 315.775 301.706 312.208 299.521C313.392 299.214 313.978 299.058 314.563 298.908C317.062 301.441 319.561 303.96 322.06 306.486Z" fill="#303E42"/>
</svg>
