<svg width="32" height="32" viewBox="0 0 32 32" fill="none" xmlns="http://www.w3.org/2000/svg">
<path d="M28.9999 22.254L23.7539 17.008L8.99988 2.25397C8.49988 1.75397 7.99988 1.99997 7.49988 2.50397L3.49988 6.50397C2.99988 7.00397 3.24988 7.25397 3.99988 7.50397C4.74988 7.75397 4.99988 8.00397 4.99988 10.004C4.99988 10.504 6.49988 11.004 6.49988 11.004C6.71049 11.0766 6.8945 11.2108 7.02819 11.389C7.16187 11.5672 7.23908 11.7814 7.24988 12.004V13.254C7.24988 13.254 7.28488 13.988 8.99988 14.754C9.13996 14.8263 9.25935 14.9332 9.34681 15.0643C9.43428 15.1955 9.48695 15.3468 9.49988 15.504C9.49988 17.504 9.99988 17.754 9.99988 17.754L11.4999 18.504C11.4999 18.504 11.9999 18.754 11.9999 19.004C11.9999 20.504 11.9999 21.254 12.4999 21.504C12.4999 21.504 14.4999 22.258 14.4999 22.758V25.008C14.4999 25.508 14.9999 25.758 15.4999 25.758H18.2499V26.008L21.9999 29.758C22.0599 29.82 22.1265 29.8746 22.1999 29.922C22.3094 29.9904 22.4354 30.0281 22.5645 30.0311C22.6937 30.0341 22.8213 30.0022 22.9339 29.939C23.1452 29.8256 23.3325 29.682 23.4959 29.508L28.9959 24.008C29.1293 23.9042 29.2374 23.7713 29.3118 23.6196C29.3863 23.4678 29.4252 23.301 29.4256 23.1319C29.426 22.9629 29.3878 22.796 29.3141 22.6438C29.2403 22.4917 29.1329 22.3584 28.9999 22.254ZM12.3949 16.714L11.5399 16.288C11.5119 16.0276 11.4985 15.7658 11.4999 15.504C11.4974 15.1356 11.4223 14.7714 11.2788 14.4322C11.1354 14.0929 10.9264 13.7853 10.6639 13.527C10.4405 13.299 10.181 13.1094 9.89588 12.966L9.24988 12.628V12.004C9.25004 11.5602 9.15141 11.1219 8.96115 10.721C8.77089 10.3201 8.49376 9.9665 8.14988 9.68597C7.80732 9.39366 7.40693 9.17694 6.97488 9.04997C6.95918 8.4375 6.83105 7.83313 6.59688 7.26697C6.49265 7.03757 6.35994 6.8222 6.20188 6.62597L8.36988 4.45597L21.1499 17.238C20.4143 17.9767 19.6957 18.7322 18.9949 19.504C18.9949 19.504 18.2409 20.254 18.2449 20.754V23.754H16.4949V22.754C16.49 22.2265 16.3055 21.7165 15.9719 21.308C15.8008 21.0972 15.6035 20.909 15.3849 20.748C14.9524 20.4404 14.4893 20.1783 14.0029 19.966C14.0029 19.866 13.9949 19.856 13.9949 19.004C13.9906 18.4816 13.8086 17.9762 13.4789 17.571C13.3226 17.3793 13.1433 17.2076 12.9449 17.06C12.7696 16.9304 12.5839 16.8153 12.3899 16.716L12.3949 16.714ZM25.8109 24.186L23.6889 26.306C23.4045 26.5709 23.0284 26.7152 22.6398 26.7083C22.2512 26.7015 21.8805 26.544 21.6056 26.2692C21.3308 25.9944 21.1734 25.6236 21.1665 25.235C21.1597 24.8464 21.3039 24.4703 21.5689 24.186L23.6889 22.065C23.8635 21.8909 24.0782 21.7625 24.3142 21.691C24.5502 21.6196 24.8002 21.6074 25.042 21.6554C25.2838 21.7034 25.5101 21.8102 25.7009 21.9664C25.8917 22.1226 26.0411 22.3234 26.1359 22.551C26.2495 22.8251 26.2793 23.1267 26.2214 23.4178C26.1636 23.7088 26.0207 23.9762 25.8109 24.186Z" fill="#313E42"/>
</svg>
