<svg width="22" height="22" viewBox="0 0 22 22" fill="none" xmlns="http://www.w3.org/2000/svg">
<g id="carbon:phone">
<path id="Vector" d="M17.7152 19.9447H17.6026C4.59395 19.1966 2.74692 8.22032 2.48873 4.8705C2.46792 4.61005 2.49872 4.34805 2.57934 4.09952C2.65997 3.85099 2.78884 3.62081 2.95857 3.42217C3.12831 3.22353 3.33557 3.06033 3.56849 2.94193C3.8014 2.82353 4.05539 2.75225 4.3159 2.73218H7.96363C8.22881 2.73192 8.48795 2.8113 8.7075 2.96002C8.92704 3.10874 9.09687 3.31997 9.19499 3.56632L10.2013 6.04228C10.2981 6.28295 10.3222 6.54679 10.2704 6.80101C10.2186 7.05524 10.0933 7.28864 9.90997 7.47224L8.49987 8.89558C8.72013 10.1473 9.31957 11.3011 10.2171 12.201C11.1146 13.1009 12.2668 13.7034 13.518 13.9269L14.9546 12.5036C15.1409 12.3223 15.3765 12.1999 15.632 12.1516C15.8875 12.1034 16.1515 12.1314 16.3911 12.2322L18.887 13.2318C19.1296 13.333 19.3366 13.5042 19.4816 13.7235C19.6267 13.9428 19.7031 14.2003 19.7012 14.4632V17.9586C19.7012 18.4854 19.492 18.9905 19.1195 19.363C18.7471 19.7354 18.2419 19.9447 17.7152 19.9447ZM4.47479 4.05622C4.29921 4.05622 4.13082 4.12597 4.00667 4.25012C3.88252 4.37427 3.81277 4.54266 3.81277 4.71824V4.7712C4.1173 8.69036 6.07025 17.9586 17.6755 18.6207C17.7624 18.626 17.8496 18.6142 17.932 18.5858C18.0144 18.5574 18.0903 18.513 18.1555 18.4552C18.2207 18.3974 18.2739 18.3273 18.3119 18.2489C18.35 18.1705 18.3721 18.0853 18.3772 17.9984V14.4632L15.8814 13.4635L13.9814 15.3503L13.6636 15.3106C7.90405 14.589 7.12287 8.82938 7.12287 8.7698L7.08314 8.45203L8.96328 6.55203L7.97025 4.05622H4.47479Z" fill="#777777"/>
</g>
</svg>
