<svg width="63" height="62" viewBox="0 0 63 62" fill="none" xmlns="http://www.w3.org/2000/svg">
<g id="fluent:person-search-32-regular">
<path id="Vector" d="M14.3429 17.3804C14.3429 19.1427 14.69 20.8877 15.3644 22.5158C16.0388 24.1439 17.0273 25.6233 18.2734 26.8694C19.5195 28.1155 20.9989 29.104 22.627 29.7784C24.2551 30.4528 26.0001 30.7999 27.7624 30.7999C29.5247 30.7999 31.2697 30.4528 32.8978 29.7784C34.5259 29.104 36.0053 28.1155 37.2514 26.8694C38.4975 25.6233 39.486 24.1439 40.1604 22.5158C40.8348 20.8877 41.1819 19.1427 41.1819 17.3804C41.1819 13.8213 39.768 10.408 37.2514 7.89141C34.7348 5.37477 31.3215 3.96094 27.7624 3.96094C24.2033 3.96094 20.79 5.37477 18.2734 7.89141C15.7568 10.408 14.3429 13.8213 14.3429 17.3804ZM18.1771 17.3804C18.1771 14.8382 19.1869 12.4002 20.9845 10.6026C22.7821 8.80495 25.2202 7.79507 27.7624 7.79507C30.3046 7.79507 32.7427 8.80495 34.5403 10.6026C36.3379 12.4002 37.3477 14.8382 37.3477 17.3804C37.3477 19.9226 36.3379 22.3607 34.5403 24.1583C32.7427 25.9559 30.3046 26.9657 27.7624 26.9657C25.2202 26.9657 22.7821 25.9559 20.9845 24.1583C19.1869 22.3607 18.1771 19.9226 18.1771 17.3804ZM27.7624 57.6388C28.4078 57.6388 29.0468 57.6216 29.6795 57.5871C29.6933 56.3345 30.197 55.1371 31.0828 54.2514L31.7882 53.5459C30.4942 53.7146 29.1465 53.8047 27.7624 53.8047C22.247 53.8047 17.3451 52.3784 13.8809 50.1738C10.3918 47.9576 8.59172 45.1242 8.59172 42.3023V41.3438C8.59172 40.5811 8.89469 39.8497 9.43397 39.3104C9.97325 38.7711 10.7047 38.4681 11.4673 38.4681H35.2907C35.7773 37.0933 36.4703 35.8004 37.3458 34.634H11.4673C9.68779 34.634 7.98114 35.3409 6.72282 36.5992C5.4645 37.8576 4.75759 39.5642 4.75759 41.3438V42.3023C4.75759 46.8898 7.67728 50.77 11.822 53.4079C15.9897 56.0611 21.6316 57.6388 27.7624 57.6388ZM48.8501 54.7632C46.3656 54.7632 44.0651 53.9772 42.1864 52.6353L35.8275 58.9942C35.4659 59.3434 34.9817 59.5366 34.479 59.5323C33.9764 59.5279 33.4956 59.3263 33.1401 58.9708C32.7847 58.6154 32.5831 58.1346 32.5787 57.6319C32.5743 57.1293 32.7676 56.645 33.1168 56.2835L39.4738 49.9265C37.9795 47.825 37.2347 45.2825 37.3588 42.7069C37.483 40.1314 38.469 37.6723 40.1585 35.7243C41.8479 33.7764 44.1429 32.4526 46.6751 31.9655C49.2072 31.4784 51.8295 31.8562 54.1211 33.0384C56.4127 34.2205 58.2407 36.1383 59.3115 38.484C60.3823 40.8296 60.634 43.4671 60.026 45.9729C59.418 48.4787 57.9857 50.7076 55.959 52.3017C53.9323 53.8958 51.4287 54.7627 48.8501 54.7632ZM48.8501 50.9291C50.8839 50.9291 52.8343 50.1212 54.2724 48.6831C55.7105 47.245 56.5184 45.2946 56.5184 43.2608C56.5184 41.2271 55.7105 39.2766 54.2724 37.8385C52.8343 36.4005 50.8839 35.5925 48.8501 35.5925C46.8164 35.5925 44.8659 36.4005 43.4278 37.8385C41.9898 39.2766 41.1819 41.2271 41.1819 43.2608C41.1819 45.2946 41.9898 47.245 43.4278 48.6831C44.8659 50.1212 46.8164 50.9291 48.8501 50.9291Z" fill="#313E42"/>
</g>
</svg>
