<svg width="62" height="62" viewBox="0 0 62 62" fill="none" xmlns="http://www.w3.org/2000/svg">
<g id="fluent:person-accounts-20-regular">
<path id="Vector" d="M28.2523 6.26147C24.9983 6.26147 21.8776 7.55412 19.5766 9.85505C17.2757 12.156 15.9831 15.2767 15.9831 18.5307C15.9831 21.7847 17.2757 24.9054 19.5766 27.2064C21.8776 29.5073 24.9983 30.7999 28.2523 30.7999C31.5063 30.7999 34.627 29.5073 36.9279 27.2064C39.2289 24.9054 40.5215 21.7847 40.5215 18.5307C40.5215 15.2767 39.2289 12.156 36.9279 9.85505C34.627 7.55412 31.5063 6.26147 28.2523 6.26147ZM19.0504 18.5307C19.0504 16.0902 20.0198 13.7497 21.7455 12.024C23.4712 10.2983 25.8118 9.32878 28.2523 9.32878C30.6928 9.32878 33.0333 10.2983 34.759 12.024C36.4847 13.7497 37.4542 16.0902 37.4542 18.5307C37.4542 20.9712 36.4847 23.3118 34.759 25.0374C33.0333 26.7631 30.6928 27.7326 28.2523 27.7326C25.8118 27.7326 23.4712 26.7631 21.7455 25.0374C20.0198 23.3118 19.0504 20.9712 19.0504 18.5307ZM12.9433 33.8672C12.1354 33.8636 11.3347 34.0196 10.5873 34.3263C9.83978 34.6329 9.16024 35.0842 8.58766 35.6542C8.01509 36.2243 7.56074 36.9018 7.25072 37.6479C6.94071 38.3939 6.78112 39.1939 6.78113 40.0019C6.78113 45.1887 9.3362 49.0995 13.3298 51.6484C17.2621 54.1544 22.5624 55.3384 28.2523 55.3384H28.4056C28.3031 54.8336 28.2518 54.3198 28.2523 53.8047V52.2711C22.9305 52.2711 18.2621 51.1546 14.98 49.0596C11.7594 47.0045 9.84844 44.02 9.84844 40.0019C9.84844 38.3056 11.2226 36.9346 12.9433 36.9346H29.7829C30.9363 35.3964 32.6255 34.3476 34.5157 33.9961L34.5403 33.8672H12.9433ZM37.4542 35.4009V36.9346H35.9206C34.7003 36.9346 33.53 37.4193 32.6672 38.2821C31.8043 39.145 31.3196 40.3153 31.3196 41.5355V53.8047C31.3196 55.025 31.8043 56.1953 32.6672 57.0581C33.53 57.921 34.7003 58.4057 35.9206 58.4057H54.3244C55.5446 58.4057 56.7149 57.921 57.5778 57.0581C58.4406 56.1953 58.9254 55.025 58.9254 53.8047V41.5355C58.9254 40.3153 58.4406 39.145 57.5778 38.2821C56.7149 37.4193 55.5446 36.9346 54.3244 36.9346H52.7907V35.4009C52.7907 34.1806 52.306 33.0104 51.4431 32.1475C50.5803 31.2847 49.41 30.7999 48.1898 30.7999H42.0552C40.8349 30.7999 39.6646 31.2847 38.8018 32.1475C37.9389 33.0104 37.4542 34.1806 37.4542 35.4009ZM42.0552 33.8672H48.1898C48.5965 33.8672 48.9866 34.0288 49.2742 34.3164C49.5619 34.6041 49.7234 34.9941 49.7234 35.4009V36.9346H40.5215V35.4009C40.5215 34.9941 40.6831 34.6041 40.9707 34.3164C41.2583 34.0288 41.6484 33.8672 42.0552 33.8672Z" fill="#313E42"/>
</g>
</svg>
