<svg width="75" height="76" viewBox="0 0 75 76" fill="none" xmlns="http://www.w3.org/2000/svg">
<g id="Frame 7">
<g id="logo">
<path id="Vector" d="M0.232422 32.8158C0.343625 32.025 0.428994 31.2287 0.576142 30.4446C0.701948 29.7729 0.898519 29.1147 1.06027 28.4497C1.84319 25.2428 3.02262 22.1897 4.74122 19.3703C5.81281 17.6113 6.88329 15.8309 8.16269 14.2258C9.41738 12.6509 10.9001 11.2491 12.3514 9.84165C13.4128 8.81273 14.5282 7.81976 15.7234 6.95372C17.0466 5.99445 18.4395 5.10483 19.8896 4.35448C21.5857 3.47721 23.3728 2.77629 25.1263 2.01247C27.2975 1.06556 29.6014 0.556718 31.9265 0.279271C33.9933 0.0321524 36.0961 0.0613573 38.1831 0.00631721C40.9879 -0.0666952 43.7096 0.501678 46.3785 1.27112C48.1252 1.77434 49.8539 2.38315 51.5197 3.10878C53.017 3.7614 54.448 4.58588 55.8555 5.42383C58.0852 6.75266 60.1014 8.3623 62.0076 10.1326C63.6824 11.6883 65.3089 13.2788 66.6231 15.1446C67.6824 16.6475 68.6574 18.2156 69.5919 19.8005C71.1915 22.5099 72.2586 25.4494 73.0325 28.4845C73.3931 29.901 73.5492 31.3702 73.7986 32.8147C72.6764 32.8136 71.5543 32.8113 70.431 32.8102C66.0536 32.8046 61.6774 32.8001 57.3 32.7956C57.2191 32.298 57.1248 31.8015 57.0619 31.3005C56.9102 30.093 57.0349 29.8976 58.1402 29.4595C60.4822 28.5306 62.0728 26.8603 62.968 24.5205C63.3454 23.5331 63.4667 22.5076 63.3454 21.463C62.1761 21.463 61.045 21.463 59.9195 21.463C59.5353 25.0058 57.1843 27.0288 54.1032 26.5076C51.4512 26.0594 49.6393 23.3501 50.1886 20.7722C50.6963 18.3908 53.5618 15.9635 57.1405 17.5169C57.7752 16.6486 58.4199 15.768 59.1175 14.8132C58.9759 14.7346 58.9085 14.6998 58.8434 14.6605C58.6839 14.5639 58.5322 14.4538 58.3671 14.3684C56.2879 13.2901 54.1425 13.1912 51.9701 14.0168C48.6284 15.2861 46.2819 18.3111 46.5605 22.2077C46.8098 25.6999 48.6542 28.1138 51.8881 29.4629C52.8339 29.8571 53.026 30.2009 52.8811 31.2197C52.8552 31.405 52.8081 31.587 52.7856 31.7723C52.5913 33.3404 52.4014 34.9085 52.2004 36.5496C52.015 36.3856 51.8735 36.2721 51.7466 36.1452C49.9988 34.4019 48.2498 32.6574 46.5054 30.9108C43.9275 28.3284 41.3485 25.7494 38.7874 23.1512C38.5459 22.9052 38.2898 22.5379 38.2809 22.22C38.2348 20.4621 38.2561 18.702 38.2775 16.9429C38.2797 16.7812 38.4022 16.5577 38.5381 16.47C39.0829 16.1218 39.33 15.6489 39.294 15.0098C39.2783 14.7301 39.2705 14.4482 39.2907 14.1685C39.3412 13.4574 39.8399 12.8363 40.4252 12.7284C40.9194 12.6375 41.3159 12.907 41.6945 13.6192C41.9169 14.0382 42.2415 14.2673 42.7234 14.2651C43.3221 14.2617 43.9219 14.2797 44.5195 14.2617C45.1777 14.2415 45.6169 13.8146 45.6203 13.1654C45.6304 11.1626 45.6293 9.15982 45.6135 7.15704C45.609 6.50779 45.2181 6.1079 44.5723 6.06747C44.087 6.03714 43.595 6.0933 43.1143 6.04276C42.3123 5.95963 41.8248 6.26404 41.499 7.01438C41.1778 7.75686 40.3027 7.85459 39.7299 7.2761C39.5996 7.14468 39.4917 6.98742 39.3963 6.82792C39.0671 6.27976 38.5954 6.03152 37.9517 6.04612C37.0161 6.06634 36.0792 6.08432 35.1447 6.04388C33.6968 5.97985 32.332 6.3056 31.0032 6.84926C28.6837 7.7973 26.8258 9.30472 25.4925 11.4322C24.9701 12.2657 25.0353 12.9947 25.6194 13.5192C26.1338 13.9809 26.782 13.9449 27.5649 13.3968C28.0704 13.043 28.55 12.6498 29.0689 12.3196C29.8361 11.8321 30.6516 11.4782 31.5997 11.5546C32.9712 11.6658 33.8192 12.5667 33.8226 13.9404C33.8237 14.3527 33.8248 14.7638 33.8204 15.176C33.8136 15.7017 34.0079 16.105 34.455 16.4128C34.6055 16.5161 34.7392 16.7598 34.7426 16.9418C34.7706 18.9064 34.7628 20.8721 34.7864 22.8367C34.792 23.3377 34.637 23.7117 34.273 24.0689C32.459 25.8538 30.673 27.6668 28.869 29.4618C27.73 30.5963 26.5775 31.7161 25.4307 32.8428C25.2083 32.8304 24.9859 32.808 24.7635 32.8068C22.9954 32.7979 21.2263 32.7934 19.4583 32.7866C19.4156 31.5342 19.4088 30.2795 19.3179 29.0304C19.2684 28.3497 19.4493 27.9465 20.139 27.7735C20.4198 27.7038 20.6804 27.5196 20.9264 27.3534C22.973 25.9729 23.8884 24.0296 23.8345 21.5764C23.7739 18.7784 22.6955 16.5127 20.4243 14.8458C20.2446 14.7133 20.0255 14.6335 19.7391 14.4852C19.7222 14.8245 19.702 15.0424 19.7031 15.2603C19.7076 16.8126 19.72 18.3661 19.7211 19.9185C19.7222 20.8463 19.4066 21.1518 18.4687 21.1529C17.5891 21.1541 16.7096 21.1541 15.8301 21.1428C15.0539 21.1327 14.7136 20.7856 14.7102 20.0005C14.7057 18.392 14.7102 16.7823 14.7102 15.1738C14.7102 14.9952 14.7102 14.8155 14.7102 14.4987C14.3665 14.693 14.1149 14.802 13.9026 14.9615C11.9211 16.4476 10.8215 18.438 10.5912 20.8946C10.2789 24.2386 11.8571 26.9299 14.6237 27.9903C15.0068 28.1374 15.0483 28.4182 15.0393 28.7507C15.0034 30.0964 14.9652 31.4432 14.9292 32.7889C14.7046 32.7934 14.4811 32.8023 14.2564 32.8023C9.58138 32.8091 4.90746 32.8125 0.232422 32.8158ZM51.7747 21.7348C51.7713 23.3939 53.1439 24.8743 54.6974 24.8878C56.6968 24.9058 58.1694 23.6118 58.1874 21.8224C58.2042 20.0892 56.7822 18.6829 55.0063 18.6761C53.19 18.6694 51.778 20.0061 51.7747 21.7348ZM31.3143 19.8544C31.3177 19.7657 31.32 19.6781 31.3233 19.5894C31.0627 19.3928 30.8179 19.0603 30.5382 19.0266C29.9608 18.9581 29.6564 18.7469 29.5823 18.1561C29.534 17.773 29.3498 17.408 28.8948 17.4012C28.4174 17.3934 28.1962 17.7742 28.14 18.1651C28.0602 18.7155 27.8356 18.957 27.2594 19.0322C27.0201 19.0637 26.7471 19.4692 26.664 19.7556C26.6303 19.8713 27.0639 20.2835 27.2818 20.2813C27.8929 20.2757 28.1175 20.5396 28.1647 21.0968C28.2029 21.5495 28.4264 21.9067 28.9151 21.9145C29.4037 21.9224 29.5811 21.5079 29.6283 21.1181C29.6946 20.5733 29.9237 20.3498 30.482 20.3094C30.7684 20.288 31.0369 20.014 31.3143 19.8544Z" fill="#FDFDFD"/>
<path id="Vector_2" d="M70.4232 53.5805C69.6122 55.0902 68.9045 56.6662 67.9711 58.0961C64.3059 63.7124 59.4837 68.11 53.6281 71.3697C49.3395 73.7578 44.7431 75.172 39.849 75.5752C32.9847 76.1391 26.5461 74.6654 20.5176 71.3899C15.0416 68.4144 10.461 64.392 6.88447 59.2867C5.70055 57.5962 4.7615 55.7327 3.71686 53.9456C3.65395 53.8378 3.63823 53.7019 3.60004 53.5783C4.68961 53.5693 5.77918 53.5603 6.86874 53.5502C9.89595 53.5592 12.9232 53.5704 15.9515 53.5761C17.7835 53.5794 17.7813 53.5738 19.0899 52.2674C20.649 50.7117 22.2126 49.1605 23.775 47.6081C24.0008 47.7328 24.3288 47.8058 24.4265 47.9957C24.5647 48.2675 24.5501 48.6247 24.5501 48.9459C24.5501 48.9853 24.1648 49.1133 24.0817 49.0459C23.9042 48.9033 23.8076 48.6595 23.6739 48.4528C23.0393 48.6359 22.8079 48.8291 22.8135 49.256C22.818 49.6323 22.6349 49.8637 22.4327 50.1692C22.1182 50.6455 21.7723 50.8533 21.2488 50.9162C21.1567 50.9274 21.0927 51.1329 21.0062 51.2408C20.5726 51.7878 20.2772 52.4955 19.419 52.5382C19.2842 52.5449 19.0865 52.6707 19.0393 52.7886C18.8933 53.1582 18.8068 53.5525 18.6967 53.9355C18.5912 54.3028 18.4047 54.5679 17.9745 54.6027C17.8711 54.6117 17.779 54.769 17.6824 54.8577C17.7835 54.9532 17.8723 55.0678 17.9891 55.1363C18.0587 55.1778 18.1744 55.1621 18.2643 55.1464C18.8989 55.0307 19.1404 55.3744 19.2101 55.9349C19.2281 56.0821 19.2999 56.227 19.2955 56.3707C19.2808 56.8976 19.5841 56.9661 20.0211 56.9537C20.7624 56.9324 20.8624 57.0672 20.9017 57.8276C20.9231 58.2331 21.0028 58.6341 21.05 59.0385C21.0893 59.3777 21.1017 59.7203 21.1567 60.0551C21.1837 60.2146 21.2567 60.4763 21.3533 60.4976C21.9823 60.6392 22.5147 61.093 23.2258 61.0009C23.6122 60.9514 23.8379 60.9514 23.8335 60.4606C23.8278 59.9338 23.5392 59.5316 23.4044 59.0711C23.1359 58.1489 22.9865 57.1896 22.8259 56.2382C22.8057 56.1191 23.0067 55.9619 23.1056 55.8226C23.255 56.61 23.337 57.4176 23.5627 58.1826C25.269 63.9663 30.6023 67.8135 36.532 68.001C40.8004 68.1358 44.4881 66.6194 47.4131 63.4765C49.9258 60.7751 51.0704 57.5288 50.8806 53.8355C50.8638 53.512 50.7278 53.129 50.5144 52.8954C49.7214 52.0259 48.8711 51.2071 48.0432 50.368C46.4426 48.746 44.8419 47.124 43.2413 45.502C43.5187 45.2841 43.7658 45.3212 43.9343 45.6256C44.332 46.3445 44.943 46.6769 45.7484 46.7342C45.8877 46.7443 46.0741 46.9072 46.1382 47.0465C46.4145 47.6474 46.8492 48.0676 47.4636 48.29C47.7703 48.4012 47.9814 48.5337 47.9859 48.9134C47.9871 49.0482 48.1499 49.2369 48.2859 49.302C48.5869 49.4447 48.9149 49.5986 49.2361 49.612C49.8056 49.6345 49.8674 49.9389 49.7966 50.3815C49.7203 50.8577 49.9314 51.0442 50.3954 50.9802C50.4998 50.9656 50.6043 50.9532 50.7919 50.9285C50.7615 51.3374 50.7492 51.7013 50.7054 52.0619C50.6683 52.373 51.1479 52.8369 51.4299 52.7224C51.8803 52.5393 52.3981 52.4337 52.5082 51.8193C52.5296 51.6991 52.6992 51.6081 52.7958 51.4991C52.9957 51.2734 53.1912 51.0453 53.3889 50.8173C54.2111 51.6294 55.0187 52.4584 55.8668 53.2424C56.0712 53.4312 56.4116 53.5671 56.6901 53.5682C59.9184 53.5884 63.1467 53.5783 66.3761 53.5727C66.6355 53.5727 66.8961 53.548 67.1556 53.5345C68.2452 53.5525 69.3336 53.5671 70.4232 53.5805Z" fill="#303E42"/>
<path id="Vector_3" d="M70.4232 53.5805C69.3347 53.5659 68.2452 53.5513 67.1567 53.5367C67.2949 52.3225 67.0006 51.2441 66.12 50.3714C65.6718 49.9277 65.1876 49.5199 64.7204 49.0953C64.5541 48.8752 64.4103 48.6337 64.2183 48.4394C62.5637 46.7634 60.9754 45.01 59.213 43.4565C57.9403 42.3355 57.5337 41.1022 57.5764 39.4521C57.6325 37.2359 57.4068 35.0118 57.3023 32.7922C61.6797 32.7967 66.0559 32.8023 70.4333 32.8068C71.5554 32.808 72.6776 32.8102 73.8009 32.8113C73.8784 34.8635 74.0221 36.9158 74.0188 38.968C74.0132 42.4321 73.2988 45.7896 72.2238 49.0661C71.7644 50.4657 71.1814 51.826 70.6478 53.2009C70.5951 53.3379 70.4985 53.4559 70.4232 53.5805ZM65.51 38.9601C65.51 38.3513 65.0843 38.2322 64.6384 38.2176C64.2306 38.2041 64.0711 38.0076 64.0172 37.6481C63.9947 37.501 64.0026 37.3134 63.915 37.219C63.7139 37.0011 63.4758 36.7035 63.2309 36.681C63.0489 36.6641 62.7165 36.9978 62.6524 37.2303C62.4817 37.8492 62.2334 38.2659 61.5112 38.2895C61.1405 38.3019 60.8968 38.5793 60.9091 38.9736C60.9226 39.3802 61.2236 39.6116 61.5752 39.5981C62.1638 39.5756 62.4132 39.8553 62.5525 40.3709C62.6536 40.7427 62.8816 41.1696 63.2893 41.0662C63.5713 40.9943 63.888 40.6012 63.9678 40.2945C64.0902 39.8228 64.298 39.6386 64.763 39.6195C65.1708 39.5992 65.4819 39.4117 65.51 38.9601Z" fill="#AFBDAF"/>
<path id="Vector_4" d="M6.86867 53.5512C5.7791 53.5602 4.68953 53.5692 3.59996 53.5793C3.2349 52.7649 2.82041 51.9686 2.51488 51.1328C1.49159 48.3236 0.719903 45.4514 0.315527 42.4769C0.0257238 40.3382 -0.0338093 38.1984 0.0156144 36.0507C0.0403263 34.9713 0.157146 33.8941 0.231282 32.8157C4.90632 32.8124 9.58024 32.809 14.2553 32.8045C14.4799 32.8045 14.7035 32.7955 14.9281 32.791C14.9259 36.0451 14.9158 39.2981 14.9304 42.5522C14.9326 43.0206 14.7877 43.3598 14.4608 43.6878C12.8366 45.3154 11.2269 46.9577 9.62517 48.6066C9.45668 48.7796 9.37355 49.0357 9.24999 49.2536C8.67713 49.7759 8.03799 50.2443 7.54712 50.8352C6.90911 51.6046 6.61706 52.5268 6.86867 53.5512Z" fill="#AFBDAF"/>
<path id="Vector_5" d="M9.25122 49.2526C9.37366 49.0347 9.4579 48.7797 9.62639 48.6056C11.2282 46.9566 12.8378 45.3144 14.4621 43.6868C14.7889 43.3588 14.9338 43.0196 14.9316 42.5512C14.917 39.2971 14.9271 36.0441 14.9293 32.79C14.9664 31.4443 15.0035 30.0975 15.0394 28.7519C15.0484 28.4205 15.0068 28.1386 14.6238 27.9914C11.8561 26.931 10.279 24.2397 10.5913 20.8957C10.8204 18.4391 11.9212 16.4487 13.9027 14.9626C14.115 14.8031 14.3666 14.6953 14.7103 14.4998C14.7103 14.8166 14.7103 14.9952 14.7103 15.1749C14.7092 16.7834 14.7047 18.3931 14.7103 20.0016C14.7125 20.7868 15.054 21.1339 15.8302 21.144C16.7097 21.1552 17.5892 21.1552 18.4688 21.1541C19.4067 21.153 19.7223 20.8463 19.7212 19.9196C19.7201 18.3673 19.7077 16.8138 19.7032 15.2614C19.7021 15.0435 19.7223 14.8245 19.7392 14.4864C20.0256 14.6346 20.2446 14.7144 20.4244 14.8469C22.6967 16.5127 23.7739 18.7784 23.8346 21.5775C23.8885 24.0296 22.9731 25.9729 20.9265 27.3545C20.6793 27.5208 20.4187 27.705 20.1391 27.7746C19.4494 27.9465 19.2685 28.3508 19.3179 29.0315C19.4101 30.2806 19.4168 31.5353 19.4584 32.7878C19.4965 34.6906 19.5336 36.5945 19.5718 38.4973C19.6302 38.513 19.6897 38.5288 19.7482 38.5445C20.439 37.8413 21.1253 37.1326 21.8228 36.435C23.0225 35.2342 24.2277 34.0413 25.4308 32.845C26.5776 31.7184 27.7301 30.5974 28.8691 29.464C30.673 27.669 32.459 25.8561 34.2731 24.0712C34.6359 23.714 34.7921 23.34 34.7865 22.839C34.7629 20.8744 34.7707 18.9087 34.7426 16.9441C34.7404 16.7621 34.6056 16.5195 34.4551 16.415C34.0092 16.1072 33.8137 15.704 33.8204 15.1783C33.8261 14.7661 33.8238 14.3549 33.8227 13.9427C33.8193 12.5678 32.9713 11.667 31.5997 11.5569C30.6528 11.4805 29.8362 11.8343 29.069 12.3218C28.549 12.6521 28.0704 13.0452 27.565 13.399C26.7821 13.9461 26.1328 13.982 25.6195 13.5215C25.0354 12.9969 24.9702 12.2679 25.4925 11.4344C26.8259 9.30473 28.6837 7.79731 31.0033 6.84927C32.3321 6.30673 33.6969 5.97986 35.1493 6.04389C36.0838 6.08432 37.0206 6.06635 37.9563 6.04613C38.5999 6.03153 39.0717 6.2809 39.4008 6.82793C39.4963 6.98743 39.6041 7.14469 39.7344 7.27611C40.3073 7.85459 41.1823 7.75687 41.5036 7.01439C41.8282 6.26405 42.3157 5.95852 43.1189 6.04276C43.6007 6.09331 44.0927 6.03602 44.5769 6.06747C45.2227 6.10791 45.6136 6.5078 45.6181 7.15704C45.6327 9.15983 45.635 11.1626 45.6249 13.1654C45.6215 13.8146 45.1823 14.2415 44.5241 14.2617C43.9254 14.2797 43.3267 14.2617 42.728 14.2651C42.2461 14.2673 41.9214 14.0382 41.699 13.6192C41.3205 12.907 40.9251 12.6386 40.4298 12.7284C39.8445 12.8363 39.3469 13.4563 39.2952 14.1685C39.275 14.447 39.2829 14.7301 39.2986 15.0098C39.3334 15.6489 39.0874 16.1218 38.5427 16.4701C38.4067 16.5565 38.2843 16.7801 38.2821 16.9429C38.2607 18.702 38.2394 20.4621 38.2854 22.2201C38.2933 22.5379 38.5494 22.9053 38.792 23.1512C41.3531 25.7494 43.9332 28.3295 46.51 30.9108C48.2544 32.6586 50.0022 34.4019 51.7512 36.1452C51.8781 36.2721 52.0196 36.3845 52.205 36.5496C52.4049 34.9085 52.5959 33.3404 52.7902 31.7723C52.8126 31.587 52.8598 31.405 52.8857 31.2197C53.0306 30.2009 52.8385 29.8572 51.8927 29.4629C48.6588 28.115 46.8144 25.6999 46.565 22.2077C46.2865 18.3111 48.633 15.2873 51.9747 14.0168C54.1471 13.1912 56.2925 13.2901 58.3717 14.3684C58.5368 14.4538 58.6885 14.5639 58.848 14.6605C58.9131 14.6998 58.9805 14.7346 59.122 14.8132C58.4234 15.768 57.7797 16.6487 57.1451 17.5169C53.5664 15.9635 50.7009 18.3908 50.1932 20.7722C49.6428 23.3501 51.4557 26.0594 54.1078 26.5076C57.1889 27.0276 59.5399 25.0046 59.924 21.463C61.0496 21.463 62.1807 21.463 63.35 21.463C63.4713 22.5076 63.35 23.5332 62.9726 24.5205C62.0774 26.8603 60.4868 28.5306 58.1448 29.4595C57.0406 29.8976 56.9159 30.0919 57.0665 31.3005C57.1294 31.8004 57.2237 32.2969 57.3046 32.7956C57.4091 35.0163 57.6348 37.2393 57.5787 39.4555C57.5371 41.1055 57.9426 42.3389 59.2153 43.4599C60.9788 45.0134 62.566 46.7668 64.2205 48.4427C64.4126 48.6371 64.5564 48.8786 64.7227 49.0987C64.1835 50.9881 62.466 51.4834 61.0204 50.1523C60.5396 49.7098 60.106 49.2155 59.6421 48.755C53.7899 42.9421 47.9332 37.1326 42.0832 31.3185C40.3994 29.6449 38.7291 27.9577 37.0914 26.3144C35.9794 27.4028 34.8932 28.4576 33.8171 29.5235C28.5422 34.7445 23.2696 39.9688 17.9981 45.1931C16.5379 46.641 15.0843 48.0956 13.6275 49.5469C13.4556 49.7188 13.2894 49.8962 13.1108 50.0614C11.582 51.4666 10.0622 51.1487 9.25122 49.2526Z" fill="#313E43"/>
<path id="Vector_6" d="M51.7747 21.7347C51.778 20.006 53.19 18.6693 55.0063 18.6761C56.7833 18.6828 58.2054 20.0891 58.1874 21.8223C58.1694 23.6117 56.6968 24.9057 54.6974 24.8877C53.1439 24.8742 51.7724 23.3938 51.7747 21.7347Z" fill="#EDBF4C"/>
<path id="Vector_7" d="M25.4307 32.8439C24.2276 34.0402 23.0224 35.2342 21.8227 36.4339C21.1252 37.1314 20.4389 37.8402 19.7481 38.5434C19.6896 38.5276 19.6301 38.5119 19.5717 38.4962C19.5335 36.5934 19.4964 34.6894 19.4583 32.7866C21.2263 32.7934 22.9954 32.7979 24.7634 32.8068C24.9858 32.8091 25.2083 32.8304 25.4307 32.8439Z" fill="#AFBDB0"/>
<path id="Vector_8" d="M31.3144 19.8544C31.0369 20.0139 30.7685 20.288 30.4809 20.3094C29.9226 20.3498 29.6935 20.5744 29.6272 21.1181C29.5801 21.5068 29.4026 21.9224 28.914 21.9145C28.4253 21.9066 28.2007 21.5494 28.1636 21.0968C28.1176 20.5396 27.8918 20.2768 27.2807 20.2813C27.0628 20.2835 26.6292 19.8713 26.6629 19.7556C26.7472 19.4691 27.019 19.0636 27.2583 19.0322C27.8345 18.9569 28.0591 18.7154 28.1389 18.165C28.1962 17.7741 28.4175 17.3945 28.8937 17.4012C29.3487 17.408 29.5329 17.773 29.5812 18.156C29.6553 18.7458 29.9597 18.9569 30.5371 19.0266C30.8168 19.0603 31.0616 19.3928 31.3222 19.5893C31.3211 19.677 31.3177 19.7657 31.3144 19.8544Z" fill="#354144"/>
<path id="Vector_9" d="M43.2423 45.5064C44.8429 47.1284 46.4436 48.7504 48.0443 50.3724C48.8721 51.2104 49.7213 52.0292 50.5154 52.8998C50.7289 53.1334 50.8648 53.5176 50.8816 53.8399C51.0715 57.5321 49.9269 60.7795 47.4141 63.4809C44.4891 66.6239 40.8026 68.1403 36.533 68.0055C30.6044 67.8179 25.2711 63.9696 23.5638 58.187C23.338 57.422 23.2549 56.6144 23.1066 55.827C23.0841 55.5271 23.0605 55.2283 23.0381 54.9284C23.0426 54.7105 23.0268 54.4892 23.0561 54.2747C23.1122 53.8568 23.1942 53.4412 23.2661 53.0245L23.2627 53.0278C23.602 52.6965 23.9412 52.3651 24.2793 52.0349C24.7971 51.5148 25.3161 50.9947 25.8339 50.4746C25.8867 50.4196 25.9384 50.3646 25.9912 50.3084C26.1024 50.2095 26.2192 50.1163 26.3236 50.0119C29.7822 46.5477 33.2407 43.0835 36.6914 39.6126C36.8936 39.4093 37.0531 39.2465 37.3013 39.5262C37.3575 39.5778 37.4137 39.6284 37.4709 39.68C37.6012 39.8171 37.7327 39.9541 37.863 40.0912C38.1629 40.3944 38.4617 40.6966 38.7616 40.9999C38.9098 41.1493 39.0592 41.2987 39.2075 41.4481C39.7085 41.9535 40.2095 42.459 40.7104 42.9645L40.725 42.9813C41.1171 43.37 41.508 43.7597 41.9 44.1484C42.0112 44.2641 42.1235 44.3809 42.2347 44.4966C42.319 44.5865 42.4043 44.6752 42.4886 44.7651L42.5212 44.7954C42.5863 44.8606 42.6514 44.9257 42.7166 44.9908L42.7436 45.0178C42.8559 45.1357 42.9682 45.2526 43.0817 45.3705C43.1345 45.4132 43.1884 45.4593 43.2423 45.5064ZM31.7928 48.2899C31.6929 48.464 31.5086 48.637 31.5053 48.8133C31.4794 49.9737 31.4974 51.134 31.4918 52.2943C31.4907 52.6583 31.6547 52.8807 32.0141 52.8863C33.2115 52.9031 34.41 52.9144 35.6063 52.8818C35.7602 52.8773 36.0309 52.6055 36.0354 52.4527C36.0691 51.1621 36.0612 49.8703 36.0399 48.5797C36.0377 48.4561 35.8546 48.2304 35.7546 48.2304C34.5033 48.2225 33.252 48.2472 32.0006 48.2641C31.931 48.2719 31.8625 48.2809 31.7928 48.2899ZM37.982 50.5533C37.9809 50.5533 37.9809 50.5533 37.9798 50.5533C37.9798 51.1508 37.9888 51.7484 37.9764 52.3449C37.9685 52.7279 38.1528 52.893 38.5156 52.8953C39.6725 52.8998 40.8295 52.902 41.9876 52.9065C42.3538 52.9076 42.5537 52.7223 42.5548 52.3651C42.5605 51.152 42.5706 49.9377 42.529 48.7268C42.5234 48.5516 42.2426 48.2427 42.0808 48.2371C40.8688 48.1978 39.6557 48.218 38.4426 48.2214C38.1236 48.2225 37.9708 48.3696 37.9787 48.7055C37.9921 49.321 37.982 49.9366 37.982 50.5533ZM36.0601 57.0042C36.0579 57.0042 36.0556 57.0042 36.0534 57.0042C36.0534 56.4066 36.0354 55.809 36.0601 55.2126C36.0758 54.8352 35.9781 54.6858 35.5625 54.6959C34.4055 54.724 33.2486 54.7195 32.0916 54.6959C31.6378 54.6869 31.4907 54.9026 31.4884 55.2991C31.4806 56.4369 31.4761 57.5759 31.4693 58.7138C31.4671 59.1451 31.6816 59.3866 32.1107 59.3911C33.2486 59.4012 34.3876 59.3979 35.5254 59.3956C35.922 59.3945 36.0826 59.1991 36.0657 58.7958C36.0421 58.1994 36.0601 57.6018 36.0601 57.0042ZM37.9843 56.9952C37.9876 56.9952 37.991 56.9952 37.9944 56.9952C37.9944 57.5377 38.0326 58.0836 37.9843 58.6217C37.9337 59.1889 38.1629 59.4046 38.7043 59.4001C39.7523 59.3923 40.8003 59.399 41.8472 59.4024C42.3313 59.4035 42.5638 59.18 42.5582 58.6824C42.5459 57.5602 42.5459 56.4369 42.5515 55.3148C42.5537 54.9014 42.3942 54.6914 41.955 54.697C40.7947 54.7105 39.6344 54.7139 38.4751 54.7015C38.1067 54.697 37.973 54.8453 37.9809 55.2002C37.9933 55.7967 37.9843 56.3965 37.9843 56.9952Z" fill="#FDFDFD"/>
<path id="Vector_10" d="M9.25114 49.2526C10.0633 51.1476 11.5819 51.4666 13.1051 50.058C13.2837 49.8929 13.4499 49.7154 13.6218 49.5436C15.0786 48.0923 16.5322 46.6377 17.9924 45.1898C23.2639 39.9655 28.5365 34.7412 33.8114 29.5202C34.8875 28.4554 35.9748 27.4006 37.0857 26.311C38.7234 27.9533 40.3937 29.6415 42.0775 31.3152C47.9286 37.1292 53.7842 42.9388 59.6364 48.7517C60.1003 49.2133 60.5339 49.7064 61.0147 50.149C62.4603 51.4801 64.1778 50.9847 64.717 49.0954C65.1842 49.52 65.6684 49.9266 66.1165 50.3714C66.9983 51.2442 67.2926 52.3237 67.1533 53.5368C66.8938 53.5503 66.6332 53.575 66.3738 53.575C63.1455 53.5806 59.9161 53.5896 56.6878 53.5705C56.4093 53.5682 56.0689 53.4334 55.8645 53.2447C55.0164 52.4607 54.2088 51.6317 53.3866 50.8196C53.3001 50.7331 53.2136 50.6466 53.1271 50.5613C52.7148 50.1445 52.3015 49.7289 51.8892 49.3122C51.7275 49.1325 51.5736 48.946 51.4029 48.7741C47.6433 44.9797 43.8759 41.1876 40.1129 37.3909C38.1584 35.4196 35.8355 35.4286 33.8788 37.4213C32.7656 38.5546 31.6491 39.6847 30.5303 40.8124C28.2804 43.0792 26.0271 45.3437 23.775 47.6093C22.2136 49.1628 20.6489 50.7129 19.0898 52.2686C17.7812 53.575 17.7835 53.5806 15.9514 53.5772C12.9242 53.5716 9.89702 53.5604 6.86869 53.5514C6.61707 52.5258 6.90912 51.6036 7.54826 50.8342C8.03913 50.2445 8.67827 49.7761 9.25114 49.2526Z" fill="#FCFDFC"/>
<path id="Vector_11" d="M53.1305 50.5612C53.2169 50.6477 53.3034 50.7342 53.3899 50.8196C53.1922 51.0465 52.9957 51.2756 52.7968 51.5014C52.7002 51.6103 52.5306 51.7013 52.5093 51.8215C52.3992 52.4359 51.8814 52.5415 51.431 52.7246C51.149 52.8392 50.6683 52.3753 50.7064 52.0641C50.7503 51.7036 50.7637 51.3396 50.7929 50.9308C50.6053 50.9555 50.5009 50.9678 50.3964 50.9824C49.9325 51.0465 49.7213 50.8611 49.7977 50.3837C49.8685 49.9412 49.8067 49.6379 49.2372 49.6143C48.9148 49.6008 48.5868 49.4469 48.2869 49.3043C48.151 49.2403 47.9881 49.0504 47.987 48.9156C47.9836 48.536 47.7725 48.4034 47.4647 48.2922C46.8503 48.0687 46.4156 47.6497 46.1392 47.0488C46.0752 46.9095 45.8899 46.7466 45.7495 46.7365C44.9441 46.6792 44.3319 46.3467 43.9354 45.6278C43.7669 45.3234 43.5198 45.2852 43.2423 45.5043C43.1884 45.4571 43.1345 45.411 43.0817 45.3639C43.139 45.0842 43.0884 44.9067 42.7436 45.0112L42.7166 44.9842C42.6515 44.919 42.5863 44.8539 42.5212 44.7887L42.4886 44.7584C42.4718 44.6135 42.4549 44.4686 42.4381 44.3226C42.3707 44.3788 42.3022 44.4338 42.2348 44.49C42.1236 44.3743 42.0112 44.2574 41.9 44.1417C41.8686 43.9575 41.8753 43.7531 41.7933 43.5947C41.7068 43.4285 41.5574 43.2645 41.3946 43.1757C41.1935 43.0668 40.9497 43.0376 40.7251 42.9747L40.7105 42.9578C40.7363 42.7657 40.1253 41.3347 39.9849 41.3482C39.7276 41.3718 39.3873 40.8528 39.2076 41.4414C39.0593 41.292 38.9099 41.1426 38.7616 40.9932C38.8706 40.4552 38.3707 39.9497 37.863 40.0845C37.7327 39.9475 37.6013 39.8104 37.471 39.6734C37.4957 39.6037 37.5204 39.533 37.5451 39.4633C37.4642 39.4824 37.3834 39.5015 37.3025 39.5195C37.0543 39.2409 36.8947 39.4027 36.6926 39.606C33.2408 43.0769 29.7822 46.541 26.3248 50.0052C26.2203 50.1108 26.1035 50.2029 25.9923 50.3017C25.898 50.2512 25.8036 50.2018 25.7093 50.1512C25.7508 50.2568 25.7935 50.3624 25.8351 50.4669C25.3172 50.9869 24.7983 51.507 24.2805 52.0271C24.14 51.9878 23.957 51.8709 23.866 51.9204C23.4447 52.1506 23.2751 52.5483 23.2639 53.02L23.2673 53.0167C22.9258 52.9875 22.7989 53.1605 22.8067 53.484C22.8157 53.8367 22.7888 54.1927 22.8191 54.5432C22.8303 54.6746 22.9617 54.7948 23.0392 54.9206C23.0617 55.2205 23.0853 55.5193 23.1078 55.8192C23.0089 55.9585 22.8079 56.1158 22.8281 56.2348C22.9898 57.1851 23.1381 58.1444 23.4066 59.0677C23.5413 59.5294 23.83 59.9304 23.8356 60.4572C23.8401 60.9481 23.6155 60.9481 23.228 60.9975C22.5169 61.0896 21.9845 60.6358 21.3555 60.4943C21.2589 60.4729 21.1859 60.2112 21.1589 60.0517C21.1027 59.7158 21.0904 59.3733 21.0522 59.0351C21.0061 58.6308 20.9253 58.2298 20.9039 57.8243C20.8646 57.0638 20.7635 56.929 20.0233 56.9504C19.5874 56.9627 19.2842 56.8942 19.2976 56.3674C19.301 56.2236 19.2302 56.0787 19.2123 55.9316C19.1426 55.371 18.9011 55.0273 18.2665 55.143C18.1766 55.1599 18.0609 55.1745 17.9913 55.1329C17.8745 55.0644 17.7857 54.9498 17.6846 54.8543C17.7812 54.7656 17.8733 54.6083 17.9767 54.5994C18.4069 54.5645 18.5934 54.2994 18.6989 53.9321C18.809 53.548 18.8955 53.1548 19.0415 52.7853C19.0887 52.6662 19.2864 52.5415 19.4212 52.5348C20.2794 52.4921 20.5759 51.7845 21.0084 51.2374C21.0949 51.1285 21.1589 50.924 21.251 50.9128C21.7744 50.8488 22.1204 50.6421 22.4349 50.1658C22.6371 49.8603 22.8202 49.6289 22.8157 49.2526C22.8101 48.8269 23.0415 48.6337 23.6761 48.4495C23.8087 48.6562 23.9053 48.8999 24.0839 49.0426C24.167 49.11 24.5523 48.9819 24.5523 48.9426C24.5523 48.6213 24.5669 48.2641 24.4287 47.9923C24.3321 47.8025 24.003 47.7295 23.7772 47.6048C26.0294 45.3391 28.2827 43.0746 30.5326 40.8079C31.6513 39.6801 32.7679 38.5501 33.881 37.4167C35.8378 35.4241 38.1607 35.4151 40.1152 37.3864C43.8781 41.1831 47.6455 44.9741 51.4096 48.7696C51.5792 48.9415 51.7342 49.1279 51.896 49.3076C51.7994 49.3324 51.7039 49.3582 51.5073 49.4087C52.0959 49.7682 51.9802 50.2242 51.8533 50.5253C52.1633 50.5747 52.434 50.6365 52.7059 50.6533C52.844 50.6657 52.9889 50.596 53.1305 50.5612Z" fill="#2F3D44"/>
<path id="Vector_12" d="M65.51 38.9601C65.4819 39.4116 65.1708 39.5992 64.7642 39.6161C64.2991 39.6363 64.0913 39.8194 63.9689 40.2912C63.8891 40.5978 63.5724 40.991 63.2904 41.0629C62.8827 41.1662 62.6547 40.7405 62.5536 40.3675C62.4143 39.852 62.1638 39.5723 61.5763 39.5947C61.2248 39.6082 60.9226 39.378 60.9102 38.9702C60.8979 38.5759 61.1416 38.2985 61.5123 38.2861C62.2346 38.2625 62.4839 37.8458 62.6536 37.2269C62.7176 36.9944 63.0501 36.6608 63.232 36.6776C63.478 36.7001 63.7162 36.9977 63.9161 37.2157C64.0037 37.31 63.9959 37.4976 64.0183 37.6448C64.0722 38.0042 64.2317 38.2008 64.6395 38.2142C65.0832 38.2322 65.51 38.3513 65.51 38.9601Z" fill="#313E42"/>
<path id="Vector_13" d="M37.9821 50.5535C37.9821 49.9379 37.9922 49.3212 37.9787 48.7057C37.9708 48.3698 38.1236 48.2227 38.4426 48.2216C39.6557 48.2182 40.87 48.198 42.0809 48.2373C42.2426 48.2429 42.5223 48.5507 42.529 48.727C42.5717 49.939 42.5605 51.1522 42.5549 52.3653C42.5538 52.7225 42.3538 52.909 41.9876 52.9067C40.8307 52.9011 39.6737 52.9 38.5156 52.8955C38.1528 52.8944 37.9686 52.7281 37.9764 52.3451C37.9888 51.7486 37.9798 51.151 37.9798 50.5535C37.9809 50.5535 37.9809 50.5535 37.9821 50.5535Z" fill="#344046"/>
<path id="Vector_14" d="M36.0602 57.0044C36.0602 57.6019 36.0422 58.1995 36.0669 58.796C36.0838 59.2003 35.9232 59.3958 35.5267 59.3958C34.3888 59.398 33.2498 59.4014 32.1119 59.3913C31.6817 59.3879 31.4683 59.1453 31.4705 58.714C31.4773 57.5761 31.4818 56.4371 31.4896 55.2992C31.4919 54.9027 31.639 54.687 32.0928 54.696C33.2498 54.7196 34.4079 54.7241 35.5637 54.696C35.9782 54.6859 36.0759 54.8353 36.0613 55.2127C36.0366 55.8092 36.0546 56.4068 36.0546 57.0044C36.0557 57.0044 36.058 57.0044 36.0602 57.0044Z" fill="#344146"/>
<path id="Vector_15" d="M37.9844 56.9952C37.9844 56.3965 37.9945 55.7978 37.981 55.1991C37.9731 54.8441 38.1068 54.697 38.4752 54.7004C39.6356 54.7138 40.7959 54.7094 41.9551 54.6959C42.3943 54.6914 42.5538 54.9003 42.5516 55.3137C42.546 56.4358 42.5448 57.5591 42.5583 58.6812C42.5639 59.1788 42.3314 59.4024 41.8473 59.4012C40.7993 59.3979 39.7513 59.3911 38.7044 59.399C38.163 59.4035 37.9338 59.1878 37.9844 58.6206C38.0327 58.0825 37.9945 57.5366 37.9945 56.9941C37.9911 56.9952 37.9877 56.9952 37.9844 56.9952Z" fill="#334046"/>
<path id="Vector_16" d="M31.793 48.2899C31.8626 48.2809 31.9322 48.2719 32.0008 48.2629C32.1895 48.3124 32.3771 48.4022 32.5669 48.4056C33.4251 48.4213 34.2844 48.418 35.1437 48.4101C35.5357 48.4067 35.8221 48.546 35.8289 48.9639C35.8468 50.0467 35.8435 51.1295 35.8232 52.2123C35.821 52.3303 35.6649 52.5426 35.5716 52.5471C34.4944 52.6077 33.4161 52.6549 32.3377 52.656C32.158 52.656 31.8603 52.4516 31.8199 52.291C31.7143 51.8641 31.6829 51.4092 31.6885 50.9655C31.6997 50.0736 31.7559 49.1818 31.793 48.2899Z" fill="#333F45"/>
<path id="Vector_17" d="M31.7929 48.2899C31.7558 49.1818 31.6996 50.0737 31.6884 50.9656C31.6828 51.4081 31.7142 51.8642 31.8198 52.291C31.8591 52.4516 32.1568 52.6561 32.3377 52.6561C33.416 52.655 34.4943 52.6078 35.5715 52.5471C35.6648 52.5415 35.8209 52.3303 35.8232 52.2124C35.8422 51.1296 35.8467 50.0467 35.8288 48.9639C35.822 48.546 35.5356 48.4068 35.1436 48.4101C34.2843 48.418 33.4261 48.4214 32.5668 48.4056C32.377 48.4023 32.1894 48.3135 32.0007 48.263C33.252 48.2461 34.5033 48.2214 35.7546 48.2293C35.8546 48.2304 36.0377 48.4551 36.0399 48.5786C36.0613 49.8693 36.0691 51.161 36.0354 52.4516C36.031 52.6044 35.7602 52.8762 35.6064 52.8807C34.4101 52.9133 33.2116 52.9021 32.0142 52.8852C31.6547 52.8807 31.4896 52.6572 31.4918 52.2933C31.4974 51.1329 31.4795 49.9726 31.5053 48.8123C31.5087 48.637 31.6929 48.4652 31.7929 48.2899Z" fill="#363D41"/>
<path id="Vector_18" d="M39.2065 41.4447C39.3862 40.8561 39.7266 41.375 39.9838 41.3515C40.1253 41.338 40.7364 42.769 40.7094 42.9611C40.2084 42.4556 39.7075 41.9502 39.2065 41.4447Z" fill="#303E42"/>
<path id="Vector_19" d="M40.724 42.978C40.9487 43.0421 41.1935 43.0713 41.3935 43.1791C41.5563 43.2678 41.7057 43.4318 41.7922 43.5981C41.8742 43.7565 41.8664 43.9609 41.8989 44.1451C41.508 43.7553 41.116 43.3667 40.724 42.978Z" fill="#303E42"/>
<path id="Vector_20" d="M23.2617 53.0267C23.273 52.556 23.4426 52.1573 23.8638 51.927C23.9559 51.8765 24.1379 51.9933 24.2783 52.0337C23.9402 52.364 23.6009 52.6953 23.2617 53.0267Z" fill="#303E42"/>
<path id="Vector_21" d="M23.037 54.9274C22.9607 54.8016 22.8292 54.6814 22.8169 54.55C22.7854 54.1995 22.8135 53.8446 22.8045 53.4907C22.7967 53.1672 22.9236 52.9942 23.2651 53.0234C23.1932 53.4402 23.1112 53.8547 23.055 54.2736C23.0258 54.4882 23.0415 54.7083 23.037 54.9274Z" fill="#303E42"/>
<path id="Vector_22" d="M37.8619 40.088C38.3696 39.9532 38.8694 40.4586 38.7605 40.9967C38.4617 40.6934 38.1618 40.3913 37.8619 40.088Z" fill="#303E42"/>
<path id="Vector_23" d="M42.2347 44.4933C42.3021 44.4371 42.3707 44.3821 42.4381 44.3259C42.4549 44.4708 42.4718 44.6157 42.4886 44.7618C42.4044 44.6719 42.319 44.5832 42.2347 44.4933Z" fill="#303E42"/>
<path id="Vector_24" d="M25.834 50.4724C25.7924 50.3668 25.7498 50.2612 25.7082 50.1567C25.8025 50.2073 25.8969 50.2567 25.9913 50.3073C25.9385 50.3623 25.8868 50.4173 25.834 50.4724Z" fill="#384146"/>
<path id="Vector_25" d="M42.7436 45.0145C43.0884 44.9089 43.1379 45.0864 43.0817 45.3672C42.9682 45.2492 42.8559 45.1313 42.7436 45.0145Z" fill="#303E42"/>
<path id="Vector_26" d="M37.3014 39.5239C37.3823 39.5048 37.4631 39.4857 37.544 39.4678C37.5193 39.5374 37.4946 39.6082 37.4699 39.6778C37.4148 39.6262 37.3576 39.5745 37.3014 39.5239Z" fill="#303E42"/>
<path id="Vector_27" d="M53.1304 50.5612C52.9878 50.5961 52.844 50.6657 52.7036 50.6567C52.4306 50.6399 52.1611 50.5781 51.851 50.5287C51.978 50.2276 52.0937 49.7727 51.5051 49.4121C51.7005 49.3616 51.7971 49.3357 51.8937 49.311C52.306 49.7289 52.7182 50.1445 53.1304 50.5612Z" fill="#303E42"/>
</g>
</g>
</svg>
