<svg width="128" height="128" viewBox="0 0 128 128" fill="none" xmlns="http://www.w3.org/2000/svg">
<g id="healthicons:ui-user-profile">
<g id="Group">
<path id="Vector" d="M85.1846 53.7408C85.1846 59.3593 82.9527 64.7477 78.9798 68.7206C75.0069 72.6935 69.6185 74.9254 64 74.9254C58.3815 74.9254 52.9931 72.6935 49.0202 68.7206C45.0473 64.7477 42.8154 59.3593 42.8154 53.7408C42.8154 48.1223 45.0473 42.7339 49.0202 38.761C52.9931 34.7881 58.3815 32.5562 64 32.5562C69.6185 32.5562 75.0069 34.7881 78.9798 38.761C82.9527 42.7339 85.1846 48.1223 85.1846 53.7408Z" fill="#313E42"/>
<path id="Vector_2" fill-rule="evenodd" clip-rule="evenodd" d="M61.8392 117.252C33.5921 116.119 11.0384 92.858 11.0384 64.3329C11.0384 35.0822 34.7493 11.3713 64 11.3713C93.2507 11.3713 116.962 35.0822 116.962 64.3329C116.962 93.5836 93.2507 117.294 64 117.294H63.2744C62.7942 117.294 62.3158 117.28 61.8392 117.252ZM30.0146 97.7517C29.6186 96.6145 29.4838 95.4028 29.6202 94.2064C29.7566 93.01 30.1607 91.8597 30.8026 90.8409C31.4444 89.8221 32.3074 88.9609 33.3276 88.3212C34.3478 87.6816 35.499 87.28 36.6957 87.1461C57.3401 84.8608 70.787 85.0674 91.3308 87.1938C92.5291 87.3186 93.6831 87.7151 94.7049 88.3533C95.7268 88.9915 96.5895 89.8545 97.2274 90.8765C97.8653 91.8985 98.2616 93.0526 98.3861 94.2509C98.5106 95.4492 98.36 96.6601 97.9457 97.7914C106.751 88.8833 111.682 76.8583 111.665 64.3329C111.665 38.0084 90.3245 16.6675 64 16.6675C37.6754 16.6675 16.3346 38.0084 16.3346 64.3329C16.3346 77.3509 21.5539 89.1507 30.0146 97.7517Z" fill="#313E42"/>
</g>
</g>
</svg>
