<svg width="21" height="21" viewBox="0 0 21 21" fill="none" xmlns="http://www.w3.org/2000/svg">
<g id="ic:round-calendar-month">
<path id="Vector" d="M14.8196 2.16577C14.3536 2.16577 13.9722 2.54709 13.9722 3.01316V3.86054H7.19316V3.01316C7.19316 2.54709 6.81184 2.16577 6.34578 2.16577C5.87972 2.16577 5.49839 2.54709 5.49839 3.01316V3.86054H4.65101C3.71041 3.86054 2.96471 4.62319 2.96471 5.55531L2.95624 17.4187C2.95624 17.8682 3.13479 18.2993 3.45262 18.6171C3.77046 18.9349 4.20153 19.1135 4.65101 19.1135H16.5144C17.4465 19.1135 18.2092 18.3508 18.2092 17.4187V5.55531C18.2092 4.62319 17.4465 3.86054 16.5144 3.86054H15.667V3.01316C15.667 2.54709 15.2857 2.16577 14.8196 2.16577ZM16.5144 17.4187H4.65101V8.94485H16.5144V17.4187ZM9.73532 11.487C9.73532 11.0209 10.1166 10.6396 10.5827 10.6396C11.0488 10.6396 11.4301 11.0209 11.4301 11.487C11.4301 11.9531 11.0488 12.3344 10.5827 12.3344C10.1166 12.3344 9.73532 11.9531 9.73532 11.487ZM6.34578 11.487C6.34578 11.0209 6.7271 10.6396 7.19316 10.6396C7.65923 10.6396 8.04055 11.0209 8.04055 11.487C8.04055 11.9531 7.65923 12.3344 7.19316 12.3344C6.7271 12.3344 6.34578 11.9531 6.34578 11.487ZM13.1249 11.487C13.1249 11.0209 13.5062 10.6396 13.9722 10.6396C14.4383 10.6396 14.8196 11.0209 14.8196 11.487C14.8196 11.9531 14.4383 12.3344 13.9722 12.3344C13.5062 12.3344 13.1249 11.9531 13.1249 11.487ZM9.73532 14.8765C9.73532 14.4105 10.1166 14.0292 10.5827 14.0292C11.0488 14.0292 11.4301 14.4105 11.4301 14.8765C11.4301 15.3426 11.0488 15.7239 10.5827 15.7239C10.1166 15.7239 9.73532 15.3426 9.73532 14.8765ZM6.34578 14.8765C6.34578 14.4105 6.7271 14.0292 7.19316 14.0292C7.65923 14.0292 8.04055 14.4105 8.04055 14.8765C8.04055 15.3426 7.65923 15.7239 7.19316 15.7239C6.7271 15.7239 6.34578 15.3426 6.34578 14.8765ZM13.1249 14.8765C13.1249 14.4105 13.5062 14.0292 13.9722 14.0292C14.4383 14.0292 14.8196 14.4105 14.8196 14.8765C14.8196 15.3426 14.4383 15.7239 13.9722 15.7239C13.5062 15.7239 13.1249 15.3426 13.1249 14.8765Z" fill="#777777"/>
</g>
</svg>
