<svg width="26" height="26" viewBox="0 0 26 26" fill="none" xmlns="http://www.w3.org/2000/svg">
<g id="material-symbols:person-outline">
<path id="Vector" d="M13.1281 12.8008C11.9736 12.8008 10.9852 12.3897 10.1631 11.5675C9.34089 10.7453 8.9298 9.75695 8.9298 8.6024C8.9298 7.44786 9.34089 6.4595 10.1631 5.63732C10.9852 4.81514 11.9736 4.40405 13.1281 4.40405C14.2827 4.40405 15.2711 4.81514 16.0932 5.63732C16.9154 6.4595 17.3265 7.44786 17.3265 8.6024C17.3265 9.75695 16.9154 10.7453 16.0932 11.5675C15.2711 12.3897 14.2827 12.8008 13.1281 12.8008ZM4.73145 21.1975V18.2586C4.73145 17.6638 4.88469 17.1174 5.19117 16.6192C5.49764 16.1209 5.90418 15.7403 6.41079 15.4772C7.49536 14.9349 8.59743 14.5284 9.71699 14.2576C10.8365 13.9868 11.9736 13.851 13.1281 13.8503C14.2827 13.8496 15.4197 13.9854 16.5393 14.2576C17.6589 14.5298 18.7609 14.9363 19.8455 15.4772C20.3528 15.7396 20.7597 16.1202 21.0662 16.6192C21.3727 17.1181 21.5256 17.6645 21.5249 18.2586V21.1975H4.73145ZM6.83062 19.0983H19.4257V18.2586C19.4257 18.0662 19.3777 17.8913 19.2819 17.7338C19.186 17.5764 19.059 17.4539 18.9009 17.3665C17.9563 16.8941 17.0029 16.5401 16.0408 16.3043C15.0786 16.0685 14.1078 15.9502 13.1281 15.9495C12.1485 15.9488 11.1777 16.0671 10.2155 16.3043C9.25342 16.5415 8.30004 16.8955 7.35541 17.3665C7.19798 17.4539 7.07098 17.5764 6.97441 17.7338C6.87785 17.8913 6.82992 18.0662 6.83062 18.2586V19.0983ZM13.1281 10.7016C13.7054 10.7016 14.1998 10.4962 14.6112 10.0855C15.0227 9.67473 15.228 9.18038 15.2273 8.6024C15.2266 8.02443 15.0213 7.53042 14.6112 7.12039C14.2012 6.71035 13.7068 6.50463 13.1281 6.50323C12.5495 6.50183 12.0555 6.70755 11.6461 7.12039C11.2368 7.53322 11.0311 8.02723 11.029 8.6024C11.0269 9.17758 11.2326 9.67193 11.6461 10.0855C12.0597 10.499 12.5537 10.7044 13.1281 10.7016Z" fill="#777777"/>
</g>
</svg>
