<svg width="22" height="22" viewBox="0 0 22 22" fill="none" xmlns="http://www.w3.org/2000/svg">
<g id="material-symbols:lock-outline">
<path id="Vector" d="M5.42328 19.456C4.94554 19.456 4.53671 19.286 4.19679 18.9461C3.85686 18.6062 3.68661 18.197 3.68604 17.7187V9.03246C3.68604 8.55472 3.85629 8.14589 4.19679 7.80597C4.53729 7.46604 4.94612 7.29579 5.42328 7.29521H6.29191V5.55797C6.29191 4.35637 6.71551 3.33226 7.56271 2.48564C8.4099 1.63902 9.43401 1.21542 10.635 1.21484C11.836 1.21427 12.8604 1.63786 13.7082 2.48564C14.556 3.33342 14.9793 4.35753 14.9782 5.55797V7.29521H15.8468C16.3245 7.29521 16.7336 7.46547 17.0741 7.80597C17.4146 8.14647 17.5846 8.5553 17.584 9.03246V17.7187C17.584 18.1965 17.4141 18.6056 17.0741 18.9461C16.7342 19.2866 16.3251 19.4565 15.8468 19.456H5.42328ZM5.42328 17.7187H15.8468V9.03246H5.42328V17.7187ZM10.635 15.1128C11.1128 15.1128 11.5219 14.9429 11.8624 14.603C12.2029 14.263 12.3729 13.8539 12.3723 13.3756C12.3717 12.8973 12.2017 12.4884 11.8624 12.1491C11.5231 11.8097 11.1139 11.6395 10.635 11.6383C10.1561 11.6372 9.7473 11.8074 9.40853 12.1491C9.06977 12.4907 8.89952 12.8996 8.89778 13.3756C8.89604 13.8516 9.06629 14.2607 9.40853 14.603C9.75077 14.9452 10.1596 15.1152 10.635 15.1128ZM8.02916 7.29521H13.2409V5.55797C13.2409 4.83411 12.9876 4.21884 12.4809 3.71214C11.9742 3.20544 11.3589 2.95209 10.635 2.95209C9.91118 2.95209 9.2959 3.20544 8.7892 3.71214C8.28251 4.21884 8.02916 4.83411 8.02916 5.55797V7.29521Z" fill="#777777"/>
</g>
</svg>
