<svg width="25" height="25" viewBox="0 0 25 25" fill="none" xmlns="http://www.w3.org/2000/svg">
<g id="mi:location">
<path id="Vector" d="M12.4877 2.6875C8.08773 2.6875 4.48773 6.2875 4.48773 10.6875C4.48773 16.0875 11.4877 22.1875 11.7877 22.4875C11.9877 22.5875 12.2877 22.6875 12.4877 22.6875C12.6877 22.6875 12.9877 22.5875 13.1877 22.4875C13.4877 22.1875 20.4877 16.0875 20.4877 10.6875C20.4877 6.2875 16.8877 2.6875 12.4877 2.6875ZM12.4877 20.3875C10.3877 18.3875 6.48773 14.0875 6.48773 10.6875C6.48773 7.3875 9.18773 4.6875 12.4877 4.6875C15.7877 4.6875 18.4877 7.3875 18.4877 10.6875C18.4877 13.9875 14.5877 18.3875 12.4877 20.3875ZM12.4877 6.6875C10.2877 6.6875 8.48773 8.4875 8.48773 10.6875C8.48773 12.8875 10.2877 14.6875 12.4877 14.6875C14.6877 14.6875 16.4877 12.8875 16.4877 10.6875C16.4877 8.4875 14.6877 6.6875 12.4877 6.6875ZM12.4877 12.6875C11.3877 12.6875 10.4877 11.7875 10.4877 10.6875C10.4877 9.5875 11.3877 8.6875 12.4877 8.6875C13.5877 8.6875 14.4877 9.5875 14.4877 10.6875C14.4877 11.7875 13.5877 12.6875 12.4877 12.6875Z" fill="#777777"/>
</g>
</svg>
