<svg width="22" height="21" viewBox="0 0 22 21" fill="none" xmlns="http://www.w3.org/2000/svg">
<g id="nimbus:tools">
<path id="Vector" d="M18.7609 14.0695L15.2772 10.5468L18.2149 7.609C18.5172 7.30824 18.757 6.95072 18.9207 6.55699C19.0843 6.16326 19.1686 5.74108 19.1686 5.31469C19.1686 4.88831 19.0843 4.46612 18.9207 4.07239C18.757 3.67866 18.5172 3.32115 18.2149 3.02039C17.6058 2.41314 16.7808 2.07216 15.9206 2.07216C15.0605 2.07216 14.2355 2.41314 13.6263 3.02039L12.4694 4.16429L10.6366 5.99714L7.10089 2.42244C6.79496 2.1239 6.38444 1.95679 5.95698 1.95679C5.52953 1.95679 5.11901 2.1239 4.81308 2.42244L2.51228 4.72324C2.36096 4.87418 2.2409 5.05348 2.15899 5.25089C2.07708 5.44829 2.03491 5.65992 2.03491 5.87365C2.03491 6.08737 2.07708 6.299 2.15899 6.4964C2.2409 6.69381 2.36096 6.87311 2.51228 7.02405L6.08697 10.5468L5.801 10.8327L4.6441 11.9766L2.36929 16.7342C2.22206 17.038 2.17312 17.3801 2.22926 17.713C2.2854 18.0459 2.44383 18.3531 2.68255 18.5918C2.92126 18.8305 3.2284 18.9889 3.5613 19.0451C3.89419 19.1012 4.2363 19.0523 4.5401 18.905L9.24571 16.6302L9.88265 15.9933L10.3896 15.4863L10.6366 15.1874L14.1203 18.6711C14.4262 18.9696 14.8367 19.1367 15.2642 19.1367C15.6917 19.1367 16.1022 18.9696 16.4081 18.6711L18.7089 16.3703C18.8637 16.2228 18.9878 16.0462 19.0742 15.8506C19.1606 15.6551 19.2076 15.4444 19.2124 15.2306C19.2173 15.0169 19.1799 14.8043 19.1024 14.6051C19.0249 14.4058 18.9089 14.2238 18.7609 14.0695ZM15.9141 3.67033C16.3461 3.66894 16.7615 3.83694 17.071 4.13829C17.2224 4.28923 17.3424 4.46853 17.4243 4.66594C17.5062 4.86334 17.5484 5.07497 17.5484 5.2887C17.5484 5.50242 17.5062 5.71405 17.4243 5.91145C17.3424 6.10886 17.2224 6.28816 17.071 6.4391L14.7702 4.20329C15.0766 3.90507 15.4866 3.73731 15.9141 3.73533V3.67033ZM3.65618 5.86715L5.95698 3.57934L7.02289 4.64525L5.89199 5.78915L7.03589 6.93306L8.1798 5.78915L9.47969 7.08904L7.23088 9.44184L3.65618 5.86715ZM3.82517 17.4492L5.86599 13.2505L8.03681 15.4083L3.82517 17.4492ZM9.24571 14.3294L6.9449 12.0286L13.6263 5.34719L15.9141 7.635L9.24571 14.3294ZM15.3162 17.5142L11.8325 14.0435L14.1333 11.7426L15.3422 12.9515L14.1983 14.0954L15.3422 15.2524L16.4991 14.0954L17.617 15.2264L15.3162 17.5142Z" fill="#777777"/>
</g>
</svg>
