<svg width="21" height="21" viewBox="0 0 21 21" fill="none" xmlns="http://www.w3.org/2000/svg">
<g id="tabler:id">
<g id="Group">
<path id="Vector" d="M2.74951 6.21355C2.74951 5.52404 3.02342 4.86278 3.51097 4.37523C3.99852 3.88767 4.65979 3.61377 5.34929 3.61377H15.7484C16.4379 3.61377 17.0992 3.88767 17.5867 4.37523C18.0743 4.86278 18.3482 5.52404 18.3482 6.21355V14.8795C18.3482 15.569 18.0743 16.2302 17.5867 16.7178C17.0992 17.2054 16.4379 17.4793 15.7484 17.4793H5.34929C4.65979 17.4793 3.99852 17.2054 3.51097 16.7178C3.02342 16.2302 2.74951 15.569 2.74951 14.8795V6.21355Z" stroke="#777777" stroke-width="1.73319" stroke-linecap="round" stroke-linejoin="round"/>
<path id="Vector_2" d="M13.1486 7.08032H14.8818M13.1486 10.5467H14.8818M6.21582 14.0131H14.8818M6.21582 8.81351C6.21582 9.27318 6.39842 9.71402 6.72346 10.0391C7.04849 10.3641 7.48934 10.5467 7.94901 10.5467C8.40868 10.5467 8.84952 10.3641 9.17455 10.0391C9.49959 9.71402 9.68219 9.27318 9.68219 8.81351C9.68219 8.35384 9.49959 7.913 9.17455 7.58796C8.84952 7.26293 8.40868 7.08032 7.94901 7.08032C7.48934 7.08032 7.04849 7.26293 6.72346 7.58796C6.39842 7.913 6.21582 8.35384 6.21582 8.81351Z" stroke="#777777" stroke-width="1.73319" stroke-linecap="round" stroke-linejoin="round"/>
</g>
</g>
</svg>
