<svg width="20" height="11" viewBox="0 0 20 11" fill="none" xmlns="http://www.w3.org/2000/svg">
<path id="Vector" d="M18.4822 1.23014L10.9888 8.60523C10.8253 8.76698 10.6046 8.85771 10.3746 8.85771C10.1446 8.85771 9.92388 8.76698 9.76038 8.60523L2.26693 1.23174C2.10241 1.07007 1.88099 0.979487 1.65034 0.979487C1.41968 0.979487 1.19826 1.07007 1.03375 1.23174C0.952736 1.31072 0.888353 1.40511 0.844395 1.50936C0.800436 1.6136 0.777788 1.7256 0.777788 1.83873C0.777788 1.95187 0.800436 2.06386 0.844395 2.16811C0.888353 2.27236 0.952736 2.36675 1.03375 2.44573L8.5256 9.81922C9.01906 10.3037 9.683 10.5752 10.3746 10.5752C11.0661 10.5752 11.7301 10.3037 12.2235 9.81922L19.7154 2.44573C19.7966 2.36673 19.8612 2.27223 19.9053 2.16784C19.9494 2.06344 19.9722 1.95126 19.9722 1.83793C19.9722 1.7246 19.9494 1.61243 19.9053 1.50803C19.8612 1.40364 19.7966 1.30914 19.7154 1.23014C19.5509 1.06847 19.3295 0.977887 19.0988 0.977887C18.8681 0.977887 18.6467 1.06847 18.4822 1.23014Z" fill="#303E42"/>
</svg>
